<svg xmlns="http://www.w3.org/2000/svg" xmlns:xlink="http://www.w3.org/1999/xlink" preserveAspectRatio="xMidYMid meet" width="1920" height="1080" viewBox="0 0 1920 1080" style="width:100%;height:100%"><defs><animateMotion repeatCount="indefinite" dur="3.64s" begin="0s" xlink:href="#_R_G_L_2_G" fill="freeze" keyTimes="0;0.989011;1" path="M540 540 C540,540 961,540 961,540 C961,540 961,540 961,540 " keyPoints="0;1;1" keySplines="0.167 0.167 0.833 0.833;0 0 0 0" calcMode="spline"/><animateMotion repeatCount="indefinite" dur="3.64s" begin="0s" xlink:href="#_R_G_L_1_G" fill="freeze" keyTimes="0;0.989011;1" path="M550 562 C550,562 961,554 961,554 C961,554 961,554 961,554 " keyPoints="0;1;1" keySplines="0.167 0.167 0.833 0.833;0 0 0 0" calcMode="spline"/><animateMotion repeatCount="indefinite" dur="3.64s" begin="0s" xlink:href="#_R_G_L_0_G" fill="freeze" keyTimes="0;0.8241758;1" path="M-120.34 816.97 C-120.34,816.97 1704.66,816.97 1704.66,816.97 C1704.66,816.97 1704.66,816.97 1704.66,816.97 " keyPoints="0;1;1" keySplines="0.357 0 0.505 1;0 0 0 0" calcMode="spline"/><animateTransform repeatCount="indefinite" dur="3.64s" begin="0s" xlink:href="#_R_G_L_0_G" fill="freeze" attributeName="transform" from="-88.574 -95.338" to="-88.574 -95.338" type="translate" additive="sum" keyTimes="0;1" values="-88.574 -95.338;-88.574 -95.338" keySplines="0 0 1 1" calcMode="spline"/><animate attributeType="XML" attributeName="opacity" dur="4s" from="0" to="1" xlink:href="#time_group"/></defs><g id="_R_G"><g id="_R_G_L_2_G"><path id="_R_G_L_2_G_D_0_P_0" stroke="#000000" stroke-linecap="round" stroke-linejoin="round" fill="none" stroke-width="6" stroke-opacity="1" d=" M-984 368 C-984,368 -966,368 -966,368 C-966,368 -942.36,361.5 -930.25,361.5 C-912.25,359.5 -907,369 -887.5,368 C-863.5,364.75 -856.06,360 -840,360 C-823.29,360 -807.15,366.58 -790.5,368 C-773,370.25 -756.08,356.25 -741.25,356.25 C-726.42,356.25 -715.32,367.96 -701.5,368 C-687.14,368.04 -677.75,355.75 -660,356.5 C-645,356.5 -631.48,368.69 -616.5,368 C-597.67,367.13 -581.1,352 -562.25,352 C-545.46,352 -531.24,369.28 -514.5,368 C-492.99,366.35 -476.92,347 -454.75,347 C-438.25,347 -418.83,368.72 -398.5,368 C-379.34,367.32 -367.92,347 -348.75,347 C-330.59,347 -319.66,367.65 -301.5,368 C-281.07,368.4 -266.68,347 -246.25,347 C-224.3,347 -206.93,368 -185.5,368 C-165.49,368 -149.26,347 -129.25,347 C-110.32,347 -95.43,368 -76.5,368 C-56.57,368 -40.44,347 -20.5,347 C-1.34,347 13.84,368 33,368 C51.31,368 65.44,347 83.75,347 C101.6,347 115.15,368 133,368 C150.39,368 163.36,347 180.75,347 C201.71,347 219.05,368 240,368 C258.23,368 272.27,347 290.5,347 C307.96,347 321.04,368 338.5,368 C357.43,368 372.33,347 391.25,347 C409.25,347 423,368 441,368 C462.66,368 480.84,347 502.5,347 C524.16,347 542.34,368 564,368 C582.93,368 597.82,347 616.75,347 C634.75,347 648.95,363.98 666.5,368 C680.15,371.12 691.97,347 707.25,347 C729.15,347 747.6,368 769.5,368 C786.66,368 799.34,347 816.5,347 C832.6,347 843.9,368 860,368 C875.06,368 884.94,347 900,347 C913.89,347 922.11,368 936,368 C949.68,368 957.57,347 971.25,347 C982.07,347 985.18,368 996,368 C1008.28,368 1013.98,347 1026.25,347 C1038.53,347 1044.22,368 1056.5,368 C1069.68,368 1076.82,347 1090,347 C1103.18,347 1110.32,368 1123.5,368 C1136.61,368 1143.64,347 1156.75,347 C1170.5,347 1178.5,368 1192.25,368 C1204.87,368 1211.13,347 1223.75,347 C1237.14,347 1244.61,368 1258,368 C1270.21,368 1275.79,347 1288,347 C1301.39,347 1308.86,368 1322.25,368 C1332.51,368 1334.49,347 1344.75,347 C1350.51,347 1354.43,352.36 1358.37,357.67 C1362.23,362.86 1366.11,368 1371.75,368 C1383.62,368 1390.92,354 1400.5,347 "/></g><g id="_R_G_L_1_G"><path id="_R_G_L_1_G_D_0_P_0" stroke="#000000" stroke-linecap="round" stroke-linejoin="round" fill="none" stroke-width="6" stroke-opacity="1" d=" M-984 368 C-984,368 -966,368 -966,368 C-966,368 -942.36,361.5 -930.25,361.5 C-912.25,359.5 -907,369 -887.5,368 C-863.5,364.75 -856.06,360 -840,360 C-823.29,360 -807.15,366.58 -790.5,368 C-773,370.25 -756.08,356.25 -741.25,356.25 C-726.42,356.25 -715.32,367.96 -701.5,368 C-687.14,368.04 -677.75,355.75 -660,356.5 C-645,356.5 -631.48,368.69 -616.5,368 C-597.67,367.13 -581.1,352 -562.25,352 C-545.46,352 -531.24,369.28 -514.5,368 C-492.99,366.35 -476.92,347 -454.75,347 C-438.25,347 -418.83,368.72 -398.5,368 C-379.34,367.32 -367.92,347 -348.75,347 C-330.59,347 -319.66,367.65 -301.5,368 C-281.07,368.4 -266.68,347 -246.25,347 C-224.3,347 -206.93,368 -185.5,368 C-165.49,368 -149.26,347 -129.25,347 C-110.32,347 -95.43,368 -76.5,368 C-56.57,368 -40.44,347 -20.5,347 C-1.34,347 13.84,368 33,368 C51.31,368 65.44,347 83.75,347 C101.6,347 115.15,368 133,368 C150.39,368 163.36,347 180.75,347 C201.71,347 219.05,368 240,368 C258.23,368 272.27,347 290.5,347 C307.96,347 321.04,368 338.5,368 C357.43,368 372.33,347 391.25,347 C409.25,347 423,368 441,368 C462.66,368 480.84,347 502.5,347 C524.16,347 542.34,368 564,368 C582.93,368 597.82,347 616.75,347 C634.75,347 648.95,363.98 666.5,368 C680.15,371.12 691.97,347 707.25,347 C729.15,347 747.6,368 769.5,368 C786.66,368 799.34,347 816.5,347 C832.6,347 843.9,368 860,368 C875.06,368 884.94,347 900,347 C913.89,347 922.11,368 936,368 C949.68,368 957.57,347 971.25,347 C982.07,347 985.18,368 996,368 C1008.28,368 1013.98,347 1026.25,347 C1038.53,347 1044.22,368 1056.5,368 C1069.68,368 1076.82,347 1090,347 C1103.18,347 1110.32,368 1123.5,368 C1136.61,368 1143.64,347 1156.75,347 C1170.5,347 1178.5,368 1192.25,368 C1204.87,368 1211.13,347 1223.75,347 C1237.14,347 1244.61,368 1258,368 C1270.21,368 1275.79,347 1288,347 C1301.39,347 1308.86,368 1322.25,368 C1332.51,368 1334.49,347 1344.75,347 C1350.51,347 1354.43,352.36 1358.37,357.67 C1362.23,362.86 1366.11,368 1371.75,368 C1383.62,368 1390.92,354 1400.5,347 "/></g><g id="_R_G_L_0_G"><path id="_R_G_L_0_G_D_0_P_0" fill="#000000" fill-opacity="1" fill-rule="nonzero" d=" M161.29 31.46 C160.42,31.35 159.43,31.33 158.35,31.49 C155.3,31.94 152.62,36.11 151.8,39.3 C150.5,38.58 148.99,37.66 147.26,36.43 C139.66,31.03 138.14,20.85 138.14,20.85 C138.14,20.85 137.38,26.63 141.02,33.32 C144.67,40 149.23,42.82 150.75,44.03 C152.27,45.25 152.12,46.92 154.63,55.59 C157.14,64.25 161.77,72 162.91,70.48 C164.06,68.96 163.68,54.45 164.59,49.89 C165.5,45.33 168.08,47.15 169,41.68 C169.91,36.2 172.11,28.3 162.38,15.53 C152.65,2.76 135.86,0.25 135.86,0.25 C159.14,9.57 161.64,24.22 161.29,31.46z "/><path id="_R_G_L_0_G_D_1_P_0" fill="#000000" fill-opacity="1" fill-rule="nonzero" d=" M114.04 3.06 C114.04,3.06 99.75,10.35 96.55,25.56 C93.36,40.76 95.95,51.25 95.95,51.25 C95.95,51.25 93.06,17.95 114.04,3.06z "/><path id="_R_G_L_0_G_D_2_P_0" fill="#000000" fill-opacity="1" fill-rule="nonzero" d=" M145.13 87.51 C117.76,62.42 109.71,52.69 112.75,32.63 C115.79,12.56 134.72,19.71 134.72,19.71 C127.49,14.38 106.82,14.69 107.73,44.18 C108.64,73.67 153.57,96.14 162.15,122.78 C170.74,149.41 151.51,167.17 151.51,167.17 C151.51,167.17 162.31,149.99 158.96,134.94 C155.62,119.89 144.67,115.32 144.67,115.32 C144.67,115.32 176.9,161.54 109.71,171.88 C42.51,182.22 10.28,137.82 10.28,137.82 C10.28,137.82 27.61,177.05 75.96,183.74 C124.3,190.43 157.59,175.07 165.65,156.07 C173.71,137.07 172.49,112.59 145.13,87.51z "/><path id="_R_G_L_0_G_D_3_P_0" fill="#000000" fill-opacity="1" fill-rule="nonzero" d=" M12.56 101.49 C11.46,97.42 10.88,93.56 10.61,90.22 C14.2,93.7 21.16,99.28 31.87,103.01 C48.44,108.79 57.26,107.57 57.26,107.57 C57.26,107.57 48.9,105.52 43.04,101.64 C41.88,100.87 40.8,99.98 39.82,99.04 C45.38,100.54 56.66,102.83 73.9,102.94 C99.59,103.09 112.82,97.61 140.87,126.27 C140.87,126.27 129.62,95.26 83.41,96.47 C37.19,97.69 27.46,84.01 27.46,84.01 C27.46,84.01 31.72,97.23 31.72,97.23 C31.72,97.23 24.27,95.26 16.97,84.62 C9.67,73.97 8,61.66 8,61.66 C8,61.66 0.25,69.11 3.44,86.74 C6.63,104.38 22.75,126.88 22.75,126.88 C22.75,126.88 15.91,113.8 12.56,101.49z "/><path id="_R_G_L_0_G_D_4_P_0" fill="#000000" fill-opacity="1" fill-rule="nonzero" d=" M89.36 116.93 C60.03,117.65 41.01,110.96 41.01,110.96 C58.17,128.9 104.16,117.82 125.95,127.14 C125.95,127.14 118.69,116.21 89.36,116.93z "/><path id="_R_G_L_0_G_D_5_P_0" fill="#000000" fill-opacity="1" fill-rule="nonzero" d=" M73.75 160.86 C115.56,167.7 126.2,146.72 126.2,146.72 C126.2,146.72 108.92,159.32 69.65,153.86 C30.37,148.4 7.77,121.79 7.77,121.79 C7.77,121.79 31.95,154.01 73.75,160.86z "/></g></g><g id="time_group"/></svg>