<svg xmlns="http://www.w3.org/2000/svg" xmlns:xlink="http://www.w3.org/1999/xlink" preserveAspectRatio="xMidYMid meet" width="1920" height="1080" viewBox="0 0 1920 1080" style="width:100%;height:100%"><defs><animateTransform repeatCount="indefinite" dur="6.16s" begin="0s" xlink:href="#_R_G_L_2_G" fill="freeze" attributeName="transform" from="-9" to="-9" type="rotate" additive="sum" keyTimes="0;0.3766234;0.4862922;0.5822532;0.6919221;0.7878766;0.8975519;0.9935065;1" values="-9;-9;0;-9;0;-9;0;-9;-9" keySplines="0.167 0.167 0.833 0.833;0.167 0.167 0.833 0.833;0.167 0.167 0.833 0.833;0.167 0.167 0.833 0.833;0.167 0.167 0.833 0.833;0.167 0.167 0.833 0.833;0.167 0.167 0.833 0.833;0 0 0 0" calcMode="spline"/><animateTransform repeatCount="indefinite" dur="6.16s" begin="0s" xlink:href="#_R_G_L_2_G" fill="freeze" attributeName="transform" from="2.17 2.17" to="2.17 2.17" type="scale" additive="sum" keyTimes="0;1" values="2.17 2.17;2.17 2.17" keySplines="0 0 1 1" calcMode="spline"/><animateTransform repeatCount="indefinite" dur="6.16s" begin="0s" xlink:href="#_R_G_L_2_G" fill="freeze" attributeName="transform" from="-15.913 -67.041" to="-15.913 -67.041" type="translate" additive="sum" keyTimes="0;1" values="-15.913 -67.041;-15.913 -67.041" keySplines="0 0 1 1" calcMode="spline"/><animate attributeType="XML" attributeName="opacity" dur="6s" from="0" to="1" xlink:href="#time_group"/></defs><g id="_R_G"><g id="_R_G_L_5_G" transform=" translate(602.415, 714.936) scale(2.17, 2.17) translate(-99.64, -46.558)"><path id="_R_G_L_5_G_D_0_P_0" stroke="#000000" stroke-linecap="round" stroke-linejoin="round" fill="none" stroke-width="1" stroke-opacity="1" d=" M45.22 57.42 C45.22,57.42 36.28,54.76 26.46,53.15 C16.65,51.55 12.54,48.72 7.92,46.99 C3.31,45.26 2.5,44.9 5.04,48.41 C7.57,51.92 11.44,53.65 13.4,55.31 C15.35,56.98 13.4,56.35 10.36,55.87 C7.32,55.4 7.27,56 11.22,59.75 C15.16,63.5 29.86,71.48 33.97,74.86 C38.07,78.24 43.42,84.23 48.81,87.3 C54.2,90.38 58.79,90.62 58.79,90.62 "/><path id="_R_G_L_5_G_D_1_P_0" stroke="#000000" stroke-linecap="round" stroke-linejoin="round" fill="none" stroke-width="1" stroke-opacity="1" d=" M83.33 20.71 C83.33,20.71 78.49,20.24 74.51,19.98 C70.54,19.73 68.1,20.08 67.29,19.6 C66.48,19.12 68.23,16.99 76.96,14.3 C85.68,11.61 116.16,2.5 152.91,20.71 C183.71,37.73 185.42,49.23 196.78,56.16 "/></g><g id="_R_G_L_4_G" transform=" translate(625.022, 697.366) scale(2.17, 2.17) translate(-90.84, -48.37)"><path id="_R_G_L_4_G_D_0_P_0" stroke="#000000" stroke-linecap="round" stroke-linejoin="round" fill="none" stroke-width="1" stroke-opacity="1" d=" M147.17 2.5 C151.14,13.47 158.26,28.87 164.1,38.36 C169.94,47.86 174.82,55.75 177,61.91 C179.18,68.07 175.44,68.8 173.43,67.33 C171.42,65.86 157.13,46.79 134.89,35.58 C112.65,24.38 90.32,24.68 74.67,27.58 C59.02,30.49 58.76,35.63 39,41.1 C19.24,46.57 18.99,54.7 22.75,59.06 C26.51,63.43 36.31,63.25 46.51,61.59 C56.71,59.92 65.69,57.46 74.61,66.2 C83.52,74.93 91.1,82.06 100.97,86.8 C110.85,91.53 121.95,93.98 131.45,93.92 C140.94,93.85 150.62,92.91 157.3,89.04 C163.98,85.17 167.22,80.38 169.36,80 C171.51,79.62 172.55,81.22 169.68,84.49 C166.82,87.76 158.07,91.99 148.06,93.11 C138.06,94.24 127.88,92.12 119.64,91.48 C111.4,90.84 103.86,90.14 95.91,90.2 C87.95,90.26 79.42,90.26 67.23,86.54 C55.04,82.82 40.09,73.85 32.52,69.93 C24.95,66 17.23,58.29 13.13,56.67 C9.02,55.04 8.29,56.37 11.8,59.7 C15.31,63.04 22.32,66.63 32.52,68.3 C42.72,69.97 59.83,71.29 71.61,68.47 C83.4,65.65 91.83,54.02 88.38,46.57 C84.94,39.13 74.84,34.26 61.24,33.91 C47.64,33.57 38.05,36.39 26.85,39.82 C15.66,43.24 2.5,49.99 6.21,51.19 C9.92,52.4 13.89,51.26 14.41,52.05 C14.92,52.84 11.55,54.42 12.44,56.03 C13.34,57.63 25.66,68.22 33.96,72.06 C42.25,75.91 56.12,80.92 73.61,76.73 "/></g><g id="_R_G_L_3_G" transform=" translate(641.864, 706.783) scale(2.17, 2.17) translate(-119.967, -56.991)"><path id="_R_G_L_3_G_D_0_P_0" stroke="#000000" stroke-linecap="round" stroke-linejoin="round" fill="none" stroke-width="1" stroke-opacity="1" d=" M2.5 99.35 C2.5,99.35 48.55,101.76 64.34,105.51 C80.12,109.27 97.06,110.58 113.04,111.03 C129.01,111.48 166.99,110.71 182.45,110.13 C197.92,109.56 215.94,109.37 224.03,105.26 C232.11,101.15 237.43,84.82 229.39,68.65 C221.35,52.48 204.76,37.06 198.51,22.54 C194.95,14.26 191.58,8.35 189.52,2.5 "/></g><g id="_R_G_L_2_G" transform=" translate(766.47, 600.104)"><path id="_R_G_L_2_G_D_0_P_0" stroke="#000000" stroke-linecap="round" stroke-linejoin="round" fill="none" stroke-width="1" stroke-opacity="1" d=" M29.51 65.44 C27.14,60.91 25.68,52.92 26.09,47.58 C27.03,35.13 29.77,37.06 27.49,30.52 C25.21,23.97 21.71,24.01 22.45,27.26 C23.2,30.52 25.36,32.7 31.61,35.86 C37.85,39.03 43.3,41.93 44.27,42.77 C45.23,43.6 48.37,45.98 52.35,50.72 C56.33,55.47 58.93,58.84 60.77,60.88 C62.62,62.92 64.85,63.11 66.18,62.72 C67.52,62.33 67.57,59.85 66.85,58.31 C66.12,56.78 65.06,57.16 65.31,60.24 C65.56,63.32 65.32,64.54 65.31,63.71 C65.3,62.87 66.46,56.95 65.56,55.45 C64.67,53.95 61.03,46.75 60.09,43.44 C59.15,40.14 59.06,39.54 57.74,37.74 C56.41,35.95 55.23,34.48 54.53,36.89 C53.83,39.29 54.59,41.19 55.77,43.08 C56.95,44.97 58.42,44.12 57.57,41.64 C56.71,39.16 57.01,36.33 56.84,33.94 C56.67,31.54 56.5,31.8 54.15,33.25 C51.79,34.71 47.32,37.19 46.26,37.91 C45.2,38.64 48.16,43.13 51.32,47.2 C54.49,51.26 57.61,56.18 60.47,58.44 C63.34,60.71 64.92,61.69 63.77,60.88 C62.61,60.07 54.92,52.92 51.36,48.95 C47.81,44.97 45.46,44.12 44.91,41.51 C44.35,38.9 45.17,37.02 46.26,34.62 C47.35,32.23 47.9,28.42 46.49,26.32 C45.08,24.23 46.68,25 46.76,23.03 C46.83,21.06 45.76,20.34 44.22,20.12 C42.68,19.91 42.6,23.16 44.31,23.93 C46.02,24.7 46.58,22.77 47.82,23.97 C49.06,25.17 54.32,28.38 56.5,28.72 C58.68,29.06 60.65,29.56 61.72,30.81 C62.78,32.07 63.64,35.43 62.7,37.19 C61.76,38.94 60.81,39.44 59.71,39.24 C58.6,39.04 58.17,38.98 58.94,39.11 C59.71,39.24 63.3,38.51 62.78,35.9 C62.27,33.3 61.42,31.28 61.24,28.46 C61.07,25.64 61.13,20.85 56.04,14.86 C50.94,8.87 42.13,2.5 29.55,4.21 C16.98,5.92 8.27,20.38 5.39,29.94 C2.5,39.5 3.4,57.09 7.79,67.99 "/></g><g id="_R_G_L_1_G" transform=" translate(1186.657, 619.452) scale(2.17, 2.17) translate(-16.039, -69.45)"><path id="_R_G_L_1_G_D_0_P_0" stroke="#000000" stroke-linecap="round" stroke-linejoin="round" fill="none" stroke-width="1" stroke-opacity="1" d=" M2.5 68.11 C2.5,68.11 4.23,43.68 4.09,40.65 C3.96,37.63 5.79,36.03 6.55,38.08 C7.31,40.14 10.9,64.21 11.13,65.94 C11.36,67.67 9.27,61.05 8.2,53.74 C7.13,46.43 6.15,41.45 5.58,39.44 C5.01,37.44 5.21,35.53 11.13,34.62 C11.13,34.62 11.72,40.06 12.7,41.91 C13.68,43.75 13.39,40.64 13.54,38.44 C13.69,36.25 13.77,34.71 13.59,34.07 C13.42,33.43 12.93,33.6 12.87,35.69 C12.81,37.78 14.33,40.5 14.94,43.25 C15.56,46.01 15.98,42.91 15.48,38.41 C14.98,33.91 14.53,28.36 14.35,24.34 C14.18,20.32 13.9,12.83 15.57,9.08 C17.24,5.33 20.09,5.65 21.52,6.63 C22.96,7.61 24.44,8.49 24.32,11.52 C24.21,14.56 25.18,15.06 25.28,17.44 C25.39,19.83 24.53,22.94 25.21,23.61 C25.88,24.28 26.27,23.96 26.95,21.35 C27.63,18.73 28.14,16.97 27.18,17.66 C26.22,18.35 25.06,21.38 24.25,23.4 C23.45,25.43 20.52,27.65 18.71,27.33 C16.91,27.01 16.55,26.68 15.93,26.26 C15.32,25.84 15.7,27.19 16.67,27.87 C17.65,28.54 20.77,28.78 22.96,27.26 C25.15,25.75 26.9,23.59 25.94,24.27 C24.97,24.96 23.54,26.39 23.7,27.63 C23.85,28.87 24.36,29.69 25.34,32.1 C26.31,34.52 26.97,37.88 27.5,38.01 C28.03,38.14 28.61,36.13 28.25,33.95 C27.89,31.77 28.18,28.88 27.73,29.8 C27.29,30.71 26.63,30 27.41,31.71 C28.18,33.43 28.22,33.95 28.99,37.09 C29.76,40.22 30.15,39.68 29.89,38.13 C29.64,36.57 29.18,32.12 29.12,28.32 C29.06,24.52 29.05,20.83 28.55,18.77 C28.05,16.7 27.44,14.75 27.36,12.11 C27.28,9.47 26.24,7.01 24.95,6.66 C23.67,6.31 23.05,5.78 22.09,4.36 C21.14,2.95 17.91,2.5 16.49,4.02 C15.06,5.53 13.54,7.43 13.28,9.97 C13.02,12.52 12.14,17 11.46,20.98 C10.78,24.96 10.42,31.05 10.9,31.89 C11.38,32.72 11.85,31.32 12.56,29.76 C13.27,28.2 15.91,28.09 16.07,29.94 C16.23,31.8 16.09,34.49 17.38,36.74 C18.67,39 19.37,39.71 19.54,42.61 C19.71,45.51 20.04,46.32 20.22,45.23 C20.39,44.14 20.79,42.3 20.84,40.69 C20.88,39.09 21.06,39.12 22,38.33 C22.93,37.54 23.23,35.88 23.16,34.28 C23.09,32.69 23.74,31.54 24.36,32 C24.98,32.46 25.47,33.48 25.19,36.25 C24.9,39.02 24.88,41.11 24.64,43.21 C24.4,45.3 24.83,45.14 23.36,42.96 C21.88,40.79 21.79,41.25 21.72,40.43 C21.64,39.61 22.93,39.14 23.55,41.39 C24.17,43.64 24.69,43.69 24.38,46.76 C24.07,49.83 24.77,50.43 23.97,54.94 C23.16,59.45 23.31,67.8 23.31,67.8 C23.31,67.8 28.53,68.68 28.53,68.68 C28.53,68.68 29.98,58.99 30.57,52.5 C31.17,46.01 32.17,40.4 31.53,37.35 C30.9,34.29 30.55,33.12 32.17,33.74 C33.79,34.36 35.27,36.29 35.69,39.25 C36.12,42.21 35.48,61.28 35.49,64.96 C35.51,68.63 34.8,68.42 35.86,68.87 C36.93,69.32 42.43,69.07 43.26,69.83 C44.09,70.59 42.49,68.02 43.12,66.65 C43.76,65.28 43.79,62.75 43.33,61.23 C42.86,59.71 40.85,52.39 40.95,50.2 C41.05,48.01 38.7,39.81 37.47,37.83 C36.24,35.85 34.81,35.06 34.85,38.24 C34.89,41.42 34.85,49.48 34.81,55.19 C34.77,60.91 34.49,64.7 34.21,67.5 C33.94,70.29 32.63,69.95 39.62,70.54 C41.02,70.66 42.62,70.8 44.32,70.96 "/></g><g id="_R_G_L_0_G" transform=" translate(1158.788, 557.464) scale(2.17, 2.17) translate(-95.08, -85.746)"><path id="_R_G_L_0_G_D_0_P_0" stroke="#000000" stroke-linecap="round" stroke-linejoin="round" fill="none" stroke-width="1" stroke-opacity="1" d=" M111.35 134.53 C111.35,134.53 113.19,145.2 102.07,146.16 C90.95,147.12 84.91,146.82 80.34,148.37 C75.78,149.92 75.41,150.65 83.51,151.24 C91.61,151.83 106.19,154.56 112.52,154.26 C118.86,153.97 127.01,153.08 133.49,151.12 C139.97,149.16 140.75,149.16 141.05,142.77 C141.23,138.77 140.07,136.01 139.17,134.5 C138.67,133.66 137.79,133.13 136.82,133.07 C125.93,132.47 54.05,128.44 46.13,127.26 C37.56,125.98 38.73,125.1 39.42,120.39 C40.11,115.67 40.11,115.08 40.11,115.08 "/><path id="_R_G_L_0_G_D_1_P_0" stroke="#000000" stroke-linecap="round" stroke-linejoin="round" fill="none" stroke-width="1" stroke-opacity="1" d=" M5.84 155.83 C5.84,155.83 8.49,155.15 11.24,155.15 C13.99,155.15 61.81,164.38 64.75,164.08 C67.7,163.79 78.4,159.76 82.43,158.68 C86.45,157.6 86.85,156.62 83.31,156.13 C79.78,155.64 33.33,149.25 28.32,149.25 C23.32,149.25 14.38,151.41 8.49,152.79 C2.6,154.16 2.5,156.04 7.9,156.67 C13.3,157.31 26.26,159.96 33.82,161.14 C41.38,162.31 61.61,166.24 65.34,165.95 C69.07,165.65 73.39,163.98 77.22,162.51 C81.05,161.04 83.7,161.63 86.85,161.82 C89.99,162.02 93.72,163.2 94.11,160.25 C94.5,157.31 94.11,156.13 86.16,156.03 C78.2,155.93 35.2,148.76 31.56,148.76 C27.93,148.76 24.2,149.58 24.2,149.58 "/><path id="_R_G_L_0_G_D_2_P_0" stroke="#000000" stroke-linecap="round" stroke-linejoin="round" fill="none" stroke-width="1" stroke-opacity="1" d=" M136.99 161.8 C131.84,160.78 127.66,162.28 124.5,164 C120.06,166.43 115.09,167.78 110.03,167.73 C106.62,167.69 103.88,166.96 104.42,164.57 C105.3,160.67 112.89,158.53 123.79,158.91 C133.45,159.23 136.46,160.54 137.28,162.27 C137.38,162.49 137.45,162.71 137.49,162.95 C137.85,165.01 135.43,166.12 131.01,166.49 C126.59,166.85 115.71,168.99 115.71,168.99 "/><path id="_R_G_L_0_G_D_3_P_0" stroke="#000000" stroke-linecap="round" stroke-linejoin="round" fill="none" stroke-width="1" stroke-opacity="1" d=" M166.48 115.08 C166.48,115.08 42.22,112.46 42.22,112.46 C41.46,112.45 40.9,111.77 41.01,111.02 C41.01,111.02 52.58,35.11 52.58,35.11 C53.24,30.75 56.59,27.28 60.92,26.46 C60.92,26.46 176.99,4.57 176.99,4.57 C182.63,2.5 187.66,7.06 187.16,12.7 C187.16,12.7 176.89,129.13 176.89,129.13 C176.89,129.13 176.3,135.61 171.68,135.61 C168.87,135.74 166.9,135.64 165.81,135.55 C165.66,135.53 165.64,135.33 165.79,135.3 C167.72,134.86 171.78,134.68 172.86,125.98 C173.84,115.57 182.78,10.12 182.78,10.12 "/></g></g><g id="time_group"/></svg>