<svg xmlns="http://www.w3.org/2000/svg" xmlns:xlink="http://www.w3.org/1999/xlink" preserveAspectRatio="xMidYMid meet" width="1920" height="1080" viewBox="0 0 1920 1080" style="width:100%;height:100%"><defs><animate repeatCount="indefinite" dur="5.32s" begin="0s" xlink:href="#_R_G_L_2_G" fill="freeze" attributeName="opacity" from="0" to="1" keyTimes="0;0.2180451;0.2932331;1" values="0;0;1;1" keySplines="0.167 0.167 0.833 0.833;0.167 0.167 0.833 0.833;0 0 0 0" calcMode="spline"/><animateMotion repeatCount="indefinite" dur="5.32s" begin="0s" xlink:href="#_R_G_L_2_G" fill="freeze" keyTimes="0;0.2180451;0.9473684;1" path="M960 495 C960,495 960,495 960,495 C960,495 960,-230 960,-230 C960,-230 960,-230 960,-230 " keyPoints="0;0;1;1" keySplines="0.167 0.167 0.833 0.833;0.167 0.167 0.833 0.833;0 0 0 0" calcMode="spline"/><animateTransform repeatCount="indefinite" dur="5.32s" begin="0s" xlink:href="#_R_G_L_2_G" fill="freeze" attributeName="transform" from="-960 -540" to="-960 -540" type="translate" additive="sum" keyTimes="0;1" values="-960 -540;-960 -540" keySplines="0 0 1 1" calcMode="spline"/><animate attributeType="XML" attributeName="opacity" dur="5s" from="0" to="1" xlink:href="#time_group"/></defs><g id="_R_G"><g id="_R_G_L_3_G" transform=" translate(960, 540) translate(0, 0)"><path id="_R_G_L_3_G_D_0_P_0" fill="#000000" fill-opacity="1" fill-rule="nonzero" d=" M199 -218 C199,-218 199,129 199,129 C199,129 -244,129 -244,129 C-244,129 -244,-218 -244,-218 C-244,-218 199,-218 199,-218z "/></g><g id="_R_G_L_2_G"><g id="_R_G_L_2_G_L_0_G" transform=" translate(925.554, 846.378) scale(2.124, 2.124) translate(-88.304, -187.432)"><path id="_R_G_L_2_G_L_0_G_D_0_P_0" stroke="#000000" stroke-linecap="round" stroke-linejoin="round" fill="none" stroke-width="2" stroke-opacity="1" d=" M42.11 152.17 C42.11,152.17 169,152.17 169,152.17 "/><path id="_R_G_L_2_G_L_0_G_D_1_P_0" stroke="#000000" stroke-linecap="round" stroke-linejoin="round" fill="none" stroke-width="2" stroke-opacity="1" d=" M22.26 147.83 C22.26,147.83 27.53,157.14 27.53,157.14 C27.53,157.14 38.08,137.28 38.08,137.28 "/><path id="_R_G_L_2_G_L_0_G_D_2_P_0" stroke="#000000" stroke-linecap="round" stroke-linejoin="round" fill="none" stroke-width="2" stroke-opacity="1" d=" M42.11 186.3 C42.11,186.3 169,186.3 169,186.3 "/><path id="_R_G_L_2_G_L_0_G_D_3_P_0" stroke="#000000" stroke-linecap="round" stroke-linejoin="round" fill="none" stroke-width="2" stroke-opacity="1" d=" M22.26 181.96 C22.26,181.96 27.53,191.26 27.53,191.26 C27.53,191.26 38.08,171.41 38.08,171.41 "/><path id="_R_G_L_2_G_L_0_G_D_4_P_0" stroke="#000000" stroke-linecap="round" stroke-linejoin="round" fill="none" stroke-width="2" stroke-opacity="1" d=" M42.11 216.39 C42.11,216.39 169,216.39 169,216.39 "/><path id="_R_G_L_2_G_L_0_G_D_5_P_0" stroke="#000000" stroke-linecap="round" stroke-linejoin="round" fill="none" stroke-width="2" stroke-opacity="1" d=" M22.26 212.05 C22.26,212.05 27.53,221.36 27.53,221.36 C27.53,221.36 38.08,201.5 38.08,201.5 "/><path id="_R_G_L_2_G_L_0_G_D_6_P_0" stroke="#000000" stroke-linecap="round" stroke-linejoin="round" fill="none" stroke-width="2" stroke-opacity="1" d=" M56.23 110.14 C56.23,110.14 154.89,110.14 154.89,110.14 "/><path id="_R_G_L_2_G_L_0_G_D_7_P_0" stroke="#000000" stroke-linecap="round" stroke-linejoin="round" fill="none" stroke-width="2" stroke-opacity="1" d=" M56.23 124.1 C56.23,124.1 135.65,124.1 135.65,124.1 "/><path id="_R_G_L_2_G_L_0_G_D_8_P_0" stroke="#000000" stroke-linecap="round" stroke-linejoin="round" fill="none" stroke-width="2" stroke-opacity="1" d=" M40.56 246.49 C40.56,246.49 72.21,246.49 72.21,246.49 "/><path id="_R_G_L_2_G_L_0_G_D_9_P_0" stroke="#000000" stroke-linecap="round" stroke-linejoin="round" fill="none" stroke-width="2" stroke-opacity="1" d=" M27.53 259.21 C27.53,259.21 161.25,259.21 161.25,259.21 "/><path id="_R_G_L_2_G_L_0_G_D_10_P_0" stroke="#000000" stroke-linecap="round" stroke-linejoin="round" fill="none" stroke-width="2" stroke-opacity="1" d=" M43.36 276.27 C43.36,276.27 127.12,276.27 127.12,276.27 "/><path id="_R_G_L_2_G_L_0_G_D_11_P_0" stroke="#000000" stroke-linecap="round" stroke-linejoin="round" fill="none" stroke-width="2" stroke-opacity="1" d=" M43.36 291.16 C43.36,291.16 112.23,291.16 112.23,291.16 "/><path id="_R_G_L_2_G_L_0_G_D_12_P_0" stroke="#000000" stroke-linecap="round" stroke-linejoin="round" fill="none" stroke-width="2" stroke-opacity="1" d=" M43.36 305.74 C43.36,305.74 142.01,305.74 142.01,305.74 "/><path id="_R_G_L_2_G_L_0_G_D_13_P_0" stroke="#000000" stroke-linecap="round" stroke-linejoin="round" fill="none" stroke-width="2" stroke-opacity="1" d=" M46.6 14.25 C46.6,14.25 45.99,8.3 42.28,7.68 C38.57,7.06 32.37,6.88 30.81,12.75 C30.19,18.78 30.46,26.37 31.39,28.53 C32.32,30.69 34.13,33.4 39.31,32.86 C44.48,32.32 45.6,30.46 46.6,25.68 "/><path id="_R_G_L_2_G_L_0_G_D_14_P_0" stroke="#000000" stroke-linecap="round" stroke-linejoin="round" fill="none" stroke-width="2" stroke-opacity="1" d=" M68.76 32.32 C68.76,32.32 64.91,32.32 64.91,32.32 C61.71,32.32 59.11,29.72 59.11,26.52 C59.11,26.52 59.11,13.19 59.11,13.19 C59.11,9.98 61.71,7.39 64.91,7.39 C64.91,7.39 68.76,7.39 68.76,7.39 C71.96,7.39 74.56,9.98 74.56,13.19 C74.56,13.19 74.56,26.52 74.56,26.52 C74.56,29.72 71.96,32.32 68.76,32.32z "/><path id="_R_G_L_2_G_L_0_G_D_15_P_0" stroke="#000000" stroke-linecap="round" stroke-linejoin="round" fill="none" stroke-width="2" stroke-opacity="1" d=" M87.07 8.5 C87.07,8.5 87.07,31.16 87.07,31.16 C87.07,31.8 87.59,32.32 88.23,32.32 C88.23,32.32 93.32,32.32 93.32,32.32 C98.19,32.32 102.13,28.37 102.13,23.51 C102.13,23.51 102.13,15.96 102.13,15.96 C102.13,10.98 97.98,6.98 93,7.17 C93,7.17 88.18,7.35 88.18,7.35 C87.56,7.37 87.07,7.88 87.07,8.5z "/><path id="_R_G_L_2_G_L_0_G_D_16_P_0" stroke="#000000" stroke-linecap="round" stroke-linejoin="round" fill="none" stroke-width="2" stroke-opacity="1" d=" M128 7.39 C128,7.39 116.68,7.39 116.68,7.39 C115.76,7.39 115.02,8.13 115.02,9.04 C115.02,9.04 115.02,32.32 115.02,32.32 C115.02,32.32 128,32.32 128,32.32 "/><path id="_R_G_L_2_G_L_0_G_D_17_P_0" stroke="#000000" stroke-linecap="round" stroke-linejoin="round" fill="none" stroke-width="2" stroke-opacity="1" d=" M115.02 19.85 C115.02,19.85 128.69,19.85 128.69,19.85 "/><path id="_R_G_L_2_G_L_0_G_D_18_P_0" stroke="#000000" stroke-linecap="round" stroke-linejoin="round" fill="none" stroke-width="2" stroke-opacity="1" d=" M150.01 0.5 C150.01,0.5 139.66,38.8 139.66,38.8 "/><path id="_R_G_L_2_G_L_0_G_D_19_P_0" stroke="#000000" stroke-linecap="round" stroke-linejoin="round" fill="none" stroke-width="2" stroke-opacity="1" d=" M39.16 78.8 C39.16,78.8 16.06,78.8 16.06,78.8 C13.69,78.8 11.78,76.89 11.78,74.52 C11.78,74.52 11.78,58.22 11.78,58.22 C11.78,55.86 13.69,53.94 16.06,53.94 C16.06,53.94 39.16,53.94 39.16,53.94 C41.52,53.94 43.44,55.86 43.44,58.22 C43.44,58.22 43.44,74.52 43.44,74.52 C43.44,76.89 41.52,78.8 39.16,78.8z "/><path id="_R_G_L_2_G_L_0_G_D_20_P_0" stroke="#000000" stroke-linecap="round" stroke-linejoin="round" fill="none" stroke-width="2" stroke-opacity="1" d=" M67.84 53.94 C67.84,53.94 150.01,53.94 150.01,53.94 "/><path id="_R_G_L_2_G_L_0_G_D_21_P_0" stroke="#000000" stroke-linecap="round" stroke-linejoin="round" fill="none" stroke-width="2" stroke-opacity="1" d=" M73.76 66.37 C73.76,66.37 84.91,66.37 84.91,66.37 "/><path id="_R_G_L_2_G_L_0_G_D_22_P_0" stroke="#000000" stroke-linecap="round" stroke-linejoin="round" fill="none" stroke-width="2" stroke-opacity="1" d=" M88.38 66.37 C88.38,66.37 97.03,66.37 97.03,66.37 "/><path id="_R_G_L_2_G_L_0_G_D_23_P_0" stroke="#000000" stroke-linecap="round" stroke-linejoin="round" fill="none" stroke-width="2" stroke-opacity="1" d=" M100.27 66.37 C100.27,66.37 120.58,66.37 120.58,66.37 "/><path id="_R_G_L_2_G_L_0_G_D_24_P_0" stroke="#000000" stroke-linecap="round" stroke-linejoin="round" fill="none" stroke-width="2" stroke-opacity="1" d=" M124.21 66.68 C124.21,66.68 132.55,66.68 132.55,66.68 "/><path id="_R_G_L_2_G_L_0_G_D_25_P_0" stroke="#000000" stroke-linecap="round" stroke-linejoin="round" fill="none" stroke-width="2" stroke-opacity="1" d=" M136.34 66.37 C136.34,66.37 156.88,66.37 156.88,66.37 "/><path id="_R_G_L_2_G_L_0_G_D_26_P_0" stroke="#000000" stroke-linecap="round" stroke-linejoin="round" fill="none" stroke-width="2" stroke-opacity="1" d=" M160.43 66.68 C160.43,66.68 169,66.68 169,66.68 "/><path id="_R_G_L_2_G_L_0_G_D_27_P_0" stroke="#000000" stroke-linecap="round" stroke-linejoin="round" fill="none" stroke-width="2" stroke-opacity="1" d=" M79.89 79.42 C79.89,79.42 137.8,79.42 137.8,79.42 "/><path id="_R_G_L_2_G_L_0_G_D_28_P_0" stroke="#000000" stroke-linecap="round" stroke-linejoin="round" fill="none" stroke-width="2" stroke-opacity="1" d=" M56.97 54.25 C56.97,54.79 56.53,55.23 55.99,55.23 C55.44,55.23 55,54.79 55,54.25 C55,53.7 55.44,53.26 55.99,53.26 C56.53,53.26 56.97,53.7 56.97,54.25z "/><path id="_R_G_L_2_G_L_0_G_D_29_P_0" stroke="#000000" stroke-linecap="round" stroke-linejoin="round" fill="none" stroke-width="2" stroke-opacity="1" d=" M63.17 66.6 C63.17,67.16 62.72,67.61 62.16,67.61 C61.61,67.61 61.16,67.16 61.16,66.6 C61.16,66.05 61.61,65.6 62.16,65.6 C62.72,65.6 63.17,66.05 63.17,66.6z "/><path id="_R_G_L_2_G_L_0_G_D_30_P_0" stroke="#000000" stroke-linecap="round" stroke-linejoin="round" fill="none" stroke-width="2" stroke-opacity="1" d=" M69.54 79.11 C69.54,79.71 69.05,80.19 68.46,80.19 C67.86,80.19 67.38,79.71 67.38,79.11 C67.38,78.52 67.86,78.03 68.46,78.03 C69.05,78.03 69.54,78.52 69.54,79.11z "/><path id="_R_G_L_2_G_L_0_G_D_31_P_0" stroke="#000000" stroke-linecap="round" stroke-linejoin="round" fill="none" stroke-width="2" stroke-opacity="1" d=" M172.71 315.13 C172.71,315.13 119.66,315.13 119.66,315.13 C118.89,315.13 118.27,314.5 118.27,313.73 C118.27,313.73 118.27,312.8 118.27,312.8 C118.27,312.03 118.89,311.4 119.66,311.4 C119.66,311.4 172.71,311.4 172.71,311.4 C173.48,311.4 174.11,312.03 174.11,312.8 C174.11,312.8 174.11,313.73 174.11,313.73 C174.11,314.5 173.48,315.13 172.71,315.13z "/><path id="_R_G_L_2_G_L_0_G_D_32_P_0" stroke="#000000" stroke-linecap="round" stroke-linejoin="round" fill="none" stroke-width="2" stroke-opacity="1" d=" M125.72 322.11 C125.72,322.11 44.75,322.11 44.75,322.11 C43.98,322.11 43.36,321.48 43.36,320.71 C43.36,320.71 43.36,319.78 43.36,319.78 C43.36,319.01 43.98,318.38 44.75,318.38 C44.75,318.38 125.72,318.38 125.72,318.38 C126.49,318.38 127.12,319.01 127.12,319.78 C127.12,319.78 127.12,320.71 127.12,320.71 C127.12,321.48 126.49,322.11 125.72,322.11z "/><path id="_R_G_L_2_G_L_0_G_D_33_P_0" stroke="#000000" stroke-linecap="round" stroke-linejoin="round" fill="none" stroke-width="2" stroke-opacity="1" d=" M44.75 331.88 C44.75,331.88 97.8,331.88 97.8,331.88 C98.57,331.88 99.2,331.25 99.2,330.48 C99.2,330.48 99.2,329.56 99.2,329.56 C99.2,328.78 98.57,328.16 97.8,328.16 C97.8,328.16 44.75,328.16 44.75,328.16 C43.98,328.16 43.36,328.78 43.36,329.56 C43.36,329.56 43.36,330.48 43.36,330.48 C43.36,331.25 43.98,331.88 44.75,331.88z "/><path id="_R_G_L_2_G_L_0_G_D_34_P_0" stroke="#000000" stroke-linecap="round" stroke-linejoin="round" fill="none" stroke-width="2" stroke-opacity="1" d=" M91.74 338.86 C91.74,338.86 172.71,338.86 172.71,338.86 C173.48,338.86 174.11,338.23 174.11,337.46 C174.11,337.46 174.11,336.54 174.11,336.54 C174.11,335.76 173.48,335.14 172.71,335.14 C172.71,335.14 91.74,335.14 91.74,335.14 C90.97,335.14 90.34,335.76 90.34,336.54 C90.34,336.54 90.34,337.46 90.34,337.46 C90.34,338.23 90.97,338.86 91.74,338.86z "/><path id="_R_G_L_2_G_L_0_G_D_35_P_0" stroke="#000000" stroke-linecap="round" stroke-linejoin="round" fill="none" stroke-width="2" stroke-opacity="1" d=" M172.71 348.63 C172.71,348.63 119.66,348.63 119.66,348.63 C118.89,348.63 118.27,348.01 118.27,347.23 C118.27,347.23 118.27,346.31 118.27,346.31 C118.27,345.53 118.89,344.91 119.66,344.91 C119.66,344.91 172.71,344.91 172.71,344.91 C173.48,344.91 174.11,345.53 174.11,346.31 C174.11,346.31 174.11,347.23 174.11,347.23 C174.11,348.01 173.48,348.63 172.71,348.63z "/><path id="_R_G_L_2_G_L_0_G_D_36_P_0" stroke="#000000" stroke-linecap="round" stroke-linejoin="round" fill="none" stroke-width="2" stroke-opacity="1" d=" M125.72 355.61 C125.72,355.61 44.75,355.61 44.75,355.61 C43.98,355.61 43.36,354.99 43.36,354.22 C43.36,354.22 43.36,353.29 43.36,353.29 C43.36,352.52 43.98,351.89 44.75,351.89 C44.75,351.89 125.72,351.89 125.72,351.89 C126.49,351.89 127.12,352.52 127.12,353.29 C127.12,353.29 127.12,354.22 127.12,354.22 C127.12,354.99 126.49,355.61 125.72,355.61z "/><path id="_R_G_L_2_G_L_0_G_D_37_P_0" stroke="#000000" stroke-linecap="round" stroke-linejoin="round" fill="none" stroke-width="2" stroke-opacity="1" d=" M44.75 365.38 C44.75,365.38 97.8,365.38 97.8,365.38 C98.57,365.38 99.2,364.76 99.2,363.99 C99.2,363.99 99.2,363.06 99.2,363.06 C99.2,362.29 98.57,361.66 97.8,361.66 C97.8,361.66 44.75,361.66 44.75,361.66 C43.98,361.66 43.36,362.29 43.36,363.06 C43.36,363.06 43.36,363.99 43.36,363.99 C43.36,364.76 43.98,365.38 44.75,365.38z "/><path id="_R_G_L_2_G_L_0_G_D_38_P_0" stroke="#000000" stroke-linecap="round" stroke-linejoin="round" fill="none" stroke-width="2" stroke-opacity="1" d=" M91.74 372.37 C91.74,372.37 172.71,372.37 172.71,372.37 C173.48,372.37 174.11,371.74 174.11,370.97 C174.11,370.97 174.11,370.04 174.11,370.04 C174.11,369.27 173.48,368.64 172.71,368.64 C172.71,368.64 91.74,368.64 91.74,368.64 C90.97,368.64 90.34,369.27 90.34,370.04 C90.34,370.04 90.34,370.97 90.34,370.97 C90.34,371.74 90.97,372.37 91.74,372.37z "/><path id="_R_G_L_2_G_L_0_G_D_39_P_0" stroke="#000000" stroke-linecap="round" stroke-linejoin="round" fill="none" stroke-width="2" stroke-opacity="1" d=" M98.73 232.02 C98.73,232.02 85.8,238.71 85.8,238.71 C85.8,238.71 98.1,245.58 98.1,245.58 "/><path id="_R_G_L_2_G_L_0_G_D_40_P_0" stroke="#000000" stroke-linecap="round" stroke-linejoin="round" fill="none" stroke-width="2" stroke-opacity="1" d=" M109.58 227.04 C109.58,227.04 102.17,246.49 102.17,246.49 "/><path id="_R_G_L_2_G_L_0_G_D_41_P_0" stroke="#000000" stroke-linecap="round" stroke-linejoin="round" fill="none" stroke-width="2" stroke-opacity="1" d=" M113.29 232.02 C113.29,232.02 125.32,238.8 125.32,238.8 C125.32,238.8 113.29,245.58 113.29,245.58 "/><path id="_R_G_L_2_G_L_0_G_D_42_P_0" stroke="#000000" stroke-linecap="round" stroke-linejoin="round" fill="none" stroke-width="2" stroke-opacity="1" d=" M15.43 103.3 C15.43,103.3 2.5,109.99 2.5,109.99 C2.5,109.99 14.8,116.86 14.8,116.86 "/><path id="_R_G_L_2_G_L_0_G_D_43_P_0" stroke="#000000" stroke-linecap="round" stroke-linejoin="round" fill="none" stroke-width="2" stroke-opacity="1" d=" M26.28 98.32 C26.28,98.32 18.87,117.76 18.87,117.76 "/><path id="_R_G_L_2_G_L_0_G_D_44_P_0" stroke="#000000" stroke-linecap="round" stroke-linejoin="round" fill="none" stroke-width="2" stroke-opacity="1" d=" M29.99 103.3 C29.99,103.3 42.02,110.08 42.02,110.08 C42.02,110.08 29.99,116.86 29.99,116.86 "/><path id="_R_G_L_2_G_L_0_G_D_45_P_0" stroke="#000000" stroke-linecap="round" stroke-linejoin="round" fill="none" stroke-width="2" stroke-opacity="1" d=" M117.39 164.49 C117.39,164.49 104.45,171.18 104.45,171.18 C104.45,171.18 116.75,178.05 116.75,178.05 "/><path id="_R_G_L_2_G_L_0_G_D_46_P_0" stroke="#000000" stroke-linecap="round" stroke-linejoin="round" fill="none" stroke-width="2" stroke-opacity="1" d=" M128.24 159.51 C128.24,159.51 120.82,178.96 120.82,178.96 "/><path id="_R_G_L_2_G_L_0_G_D_47_P_0" stroke="#000000" stroke-linecap="round" stroke-linejoin="round" fill="none" stroke-width="2" stroke-opacity="1" d=" M131.94 164.49 C131.94,164.49 143.97,171.27 143.97,171.27 C143.97,171.27 131.94,178.05 131.94,178.05 "/></g></g><g id="_R_G_L_1_G" transform=" translate(916.49, 749.278) scale(1.8, 1.8) translate(-198.395, -37.514)"><path id="_R_G_L_1_G_D_0_P_0" stroke="#000000" stroke-linecap="round" stroke-linejoin="round" fill="none" stroke-width="2" stroke-opacity="1" d=" M365.93 6.75 C365.93,6.75 368.28,6.68 369.05,8.1 C369.66,9.22 386.03,44.55 392.9,59.38 C394.29,62.38 392.08,65.8 388.77,65.78 C388.77,65.78 227.22,64.5 227.22,64.5 C225.86,64.49 224.74,65.59 224.74,66.96 C224.74,68.31 223.65,69.41 222.29,69.41 C222.29,69.41 174.53,69.41 174.53,69.41 C173.66,69.41 172.88,68.88 172.55,68.08 C172.55,68.08 171.79,66.19 171.79,66.19 C171.47,65.39 170.7,64.87 169.83,64.86 C169.83,64.86 6.57,63.75 6.57,63.75 C4.06,63.73 2.5,61.01 3.75,58.83 C3.75,58.83 33.65,6.75 33.65,6.75 "/><path id="_R_G_L_1_G_D_1_P_0" stroke="#000000" stroke-linecap="round" stroke-linejoin="round" fill="none" stroke-width="2" stroke-opacity="1" d=" M144.7 43.01 C144.7,43.01 142.1,58.34 142.1,58.34 C141.95,59.23 142.64,60.04 143.54,60.04 C143.54,60.04 253.14,60.04 253.14,60.04 C253.97,60.04 254.64,59.34 254.59,58.5 C254.59,58.5 253.78,43.18 253.78,43.18 C253.74,42.4 253.1,41.8 252.33,41.8 C252.33,41.8 146.14,41.8 146.14,41.8 C145.42,41.8 144.82,42.31 144.7,43.01z "/><path id="_R_G_L_1_G_D_2_P_0" stroke="#000000" stroke-linecap="round" stroke-linejoin="round" fill="none" stroke-width="2" stroke-opacity="1" d=" M3.31 60.81 C3.31,60.81 3.31,66.82 3.31,66.82 C3.31,69.97 5.87,72.53 9.02,72.53 C9.02,72.53 389.13,72.53 389.13,72.53 C391.37,72.53 393.19,70.71 393.19,68.47 C393.19,68.47 393.19,62.34 393.19,62.34 "/><path id="_R_G_L_1_G_D_3_P_0" stroke="#000000" stroke-linecap="round" stroke-linejoin="round" fill="none" stroke-width="2" stroke-opacity="1" d=" M330.83 9.19 C330.83,9.19 70.39,9.19 70.39,9.19 C69.36,9.19 68.53,8.36 68.53,7.34 C68.53,7.34 68.53,4.36 68.53,4.36 C68.53,3.33 69.36,2.5 70.39,2.5 C70.39,2.5 330.83,2.5 330.83,2.5 C331.85,2.5 332.68,3.33 332.68,4.36 C332.68,4.36 332.68,7.34 332.68,7.34 C332.68,8.36 331.85,9.19 330.83,9.19z "/><path id="_R_G_L_1_G_D_4_P_0" stroke="#000000" stroke-linecap="round" stroke-linejoin="round" fill="none" stroke-width="2" stroke-opacity="1" d=" M61 35.86 C61,35.86 62.27,31.86 62.27,31.86 C62.43,31.34 62.92,30.98 63.47,30.98 C63.47,30.98 95.52,30.89 95.52,30.89 C96.07,30.89 96.5,31.35 96.46,31.89 C96.46,31.89 96.12,36.55 96.12,36.55 C96.08,37.05 95.65,37.44 95.15,37.42 C95.15,37.42 58.02,36.15 58.02,36.15 C57.3,36.12 56.82,35.4 57.08,34.73 C57.08,34.73 65.64,12.16 65.64,12.16 C65.64,12.16 333.2,12.92 333.2,12.92 C333.82,12.93 334.36,13.32 334.56,13.91 C334.56,13.91 342.01,35.88 342.01,35.88 C342.27,36.64 341.71,37.42 340.91,37.42 C340.91,37.42 322.37,37.42 322.37,37.42 C321.62,37.42 321,36.81 321,36.05 C321,36.05 321,35.3 321,35.3 C321,34.67 320.5,34.17 319.87,34.17 C319.87,34.17 318.42,34.17 318.42,34.17 C317.79,34.17 317.29,34.67 317.29,35.3 C317.29,35.3 317.29,36.71 317.29,36.71 C317.29,37.46 316.67,38.08 315.92,38.08 C315.92,38.08 303.16,38.08 303.16,38.08 C302.54,38.08 302.03,37.57 302.03,36.95 C302.03,36.95 302.03,35.11 302.03,35.11 C302.03,34.48 301.52,33.97 300.9,33.97 C300.9,33.97 299.59,33.97 299.59,33.97 C298.97,33.97 298.46,34.48 298.46,35.11 C298.46,35.11 298.46,36.42 298.46,36.42 C298.46,37.04 297.96,37.55 297.33,37.55 C297.33,37.55 283.48,37.55 283.48,37.55 C282.77,37.55 282.19,36.97 282.19,36.26 C282.19,36.26 282.19,35.01 282.19,35.01 C282.19,34.39 281.68,33.88 281.06,33.88 C280.43,33.88 279.92,34.39 279.92,35.01 C279.92,35.01 279.92,36.31 279.92,36.31 C279.92,37.02 279.35,37.59 278.64,37.59 C278.64,37.59 264.37,37.59 264.37,37.59 C263.71,37.59 263.17,37.06 263.17,36.4 C263.17,36.4 263.17,34.29 263.17,34.29 C263.17,33.66 262.66,33.15 262.04,33.15 C262.04,33.15 261.26,33.15 261.26,33.15 C260.64,33.15 260.13,33.66 260.13,34.29 C260.13,34.29 260.13,36.88 260.13,36.88 C260.13,37.54 259.59,38.08 258.93,38.08 C258.93,38.08 240.51,38.08 240.51,38.08 C239.8,38.08 239.23,37.5 239.23,36.8 C239.23,36.8 239.23,35.16 239.23,35.16 C239.23,34.53 238.72,34.02 238.09,34.02 C238.09,34.02 237.46,34.02 237.46,34.02 C236.84,34.02 236.33,34.53 236.33,35.16 C236.33,35.16 236.33,36.32 236.33,36.32 C236.33,37.02 235.76,37.59 235.05,37.59 C235.05,37.59 144.69,37.59 144.69,37.59 C143.79,37.59 143.07,36.87 143.07,35.98 C143.07,35.98 143.07,35.39 143.07,35.39 C143.07,34.86 142.64,34.42 142.1,34.42 C142.1,34.42 140.88,34.42 140.88,34.42 C140.35,34.42 139.91,34.86 139.91,35.39 C139.91,35.39 139.91,36.46 139.91,36.46 C139.91,37.35 139.19,38.08 138.3,38.08 C138.3,38.08 120.08,38.08 120.08,38.08 C119.34,38.08 118.74,37.48 118.74,36.73 C118.74,36.73 118.74,34.36 118.74,34.36 C118.74,33.83 118.31,33.39 117.77,33.39 C117.24,33.39 116.81,33.83 116.81,34.36 C116.81,34.36 116.81,36.43 116.81,36.43 C116.81,37.17 116.21,37.77 115.46,37.77 C115.46,37.77 100.52,37.77 100.52,37.77 C99.74,37.77 99.11,37.14 99.11,36.36 C99.11,36.36 99.11,33.46 99.11,33.46 C99.11,32.89 98.65,32.43 98.08,32.43 C98.08,32.43 96.73,32.43 96.73,32.43 "/></g><g id="_R_G_L_0_G" transform=" translate(920.358, 495.207) scale(1.8, 1.8) translate(-169.397, -112.884)"><path id="_R_G_L_0_G_D_0_P_0" stroke="#000000" stroke-linecap="round" stroke-linejoin="round" fill="none" stroke-width="2" stroke-opacity="1" d=" M323 210.52 C323,210.52 17.47,210.52 17.47,210.52 C16.38,210.52 15.5,209.65 15.5,208.56 C15.5,208.56 15.5,17.34 15.5,17.34 C15.5,16.25 16.38,15.37 17.47,15.37 C17.47,15.37 323,15.37 323,15.37 C324.09,15.37 324.97,16.25 324.97,17.34 C324.97,17.34 324.97,208.56 324.97,208.56 C324.97,209.65 324.09,210.52 323,210.52z "/><path id="_R_G_L_0_G_D_1_P_0" stroke="#000000" stroke-linecap="round" stroke-linejoin="round" fill="none" stroke-width="2" stroke-opacity="1" d=" M37.39 223.27 C37.39,223.27 4.01,223.27 4.01,223.27 C3.18,223.27 2.5,222.59 2.5,221.76 C2.5,221.76 2.5,11.19 2.5,11.19 C2.5,6.39 6.39,2.5 11.19,2.5 C11.19,2.5 327.61,2.5 327.61,2.5 C332.4,2.5 336.29,6.39 336.29,11.19 C336.29,11.19 336.29,221.76 336.29,221.76 C336.29,222.59 335.62,223.27 334.78,223.27 C334.78,223.27 301.79,223.27 301.79,223.27 "/></g></g><g id="time_group"/></svg>