<svg xmlns="http://www.w3.org/2000/svg" xmlns:xlink="http://www.w3.org/1999/xlink" preserveAspectRatio="xMidYMid meet" width="1920" height="1080" viewBox="0 0 1920 1080" style="width:100%;height:100%"><defs><animate repeatCount="indefinite" dur="5.88s" begin="0s" xlink:href="#_R_G_L_0_G_L_3_G" fill="freeze" attributeName="opacity" from="0" to="1" keyTimes="0;0.2517007;0.3197279;1" values="0;0;1;1" keySplines="0.167 0.167 0.833 0.833;0.167 0.167 0.833 0.833;0 0 0 0" calcMode="spline"/><animateMotion repeatCount="indefinite" dur="5.88s" begin="0s" xlink:href="#_R_G_L_0_G_L_2_G" fill="freeze" keyTimes="0;0.3197279;0.8503401;1" path="M960 540 C960,540 960,540 960,540 C960,540 1146,-262 1146,-262 C1146,-262 1146,-262 1146,-262 " keyPoints="0;0;1;1" keySplines="0.167 0.167 0.833 0.833;0.167 0.167 0.833 0.833;0 0 0 0" calcMode="spline"/><animateTransform repeatCount="indefinite" dur="5.88s" begin="0s" xlink:href="#_R_G_L_0_G_L_2_G" fill="freeze" attributeName="transform" from="-960 -540" to="-960 -540" type="translate" additive="sum" keyTimes="0;1" values="-960 -540;-960 -540" keySplines="0 0 1 1" calcMode="spline"/><animate attributeType="XML" attributeName="opacity" dur="6s" from="0" to="1" xlink:href="#time_group"/></defs><g id="_R_G"><g id="_R_G_L_0_G"><g id="_R_G_L_0_G_L_3_G" transform=" translate(960, 540) translate(0, 0)"><path id="_R_G_L_0_G_L_3_G_D_0_P_0" fill="#000000" fill-opacity="1" fill-rule="nonzero" d=" M0 -267.25 C0,-267.25 -75.5,81 -75.5,81 C-75.5,81 140.5,135.5 139,135.5 C137.5,135.5 210.75,-229.75 210.75,-229.75 C210.75,-229.75 0,-267.25 0,-267.25z "/></g><g id="_R_G_L_0_G_L_2_G"><g id="_R_G_L_0_G_L_2_G_L_0_G" transform=" translate(962.012, 743.929) scale(1.26, 1.26) translate(-138.053, -331.212)"><path id="_R_G_L_0_G_L_2_G_L_0_G_D_0_P_0" stroke="#343434" stroke-linecap="round" stroke-linejoin="round" fill="none" stroke-width="2" stroke-opacity="1" d=" M209.94 324.19 C209.94,324.19 84.23,299.06 84.23,299.06 C82.76,298.76 81.81,297.34 82.1,295.87 C82.1,295.87 93.48,238.98 93.48,238.98 C93.77,237.52 95.2,236.57 96.67,236.86 C96.67,236.86 222.38,262 222.38,262 C223.84,262.29 224.8,263.72 224.5,265.18 C224.5,265.18 213.13,322.07 213.13,322.07 C212.84,323.54 211.41,324.49 209.94,324.19z "/><path id="_R_G_L_0_G_L_2_G_L_0_G_D_1_P_0" stroke="#343434" stroke-linecap="round" stroke-linejoin="round" fill="none" stroke-width="2" stroke-opacity="1" d=" M94.74 237.03 C94.74,237.03 211.48,324.19 211.48,324.19 "/><path id="_R_G_L_0_G_L_2_G_L_0_G_D_2_P_0" stroke="#343434" stroke-linecap="round" stroke-linejoin="round" fill="none" stroke-width="2" stroke-opacity="1" d=" M82.51 298.16 C82.51,298.16 223.75,262.83 223.75,262.83 "/><path id="_R_G_L_0_G_L_2_G_L_0_G_D_3_P_0" stroke="#343434" stroke-linecap="round" stroke-linejoin="round" fill="none" stroke-width="2" stroke-opacity="1" d=" M107.91 361.42 C107.91,361.42 71.83,354.21 71.83,354.21 C71.09,354.06 70.61,353.34 70.76,352.6 C70.76,352.6 78.5,313.87 78.5,313.87 C78.65,313.13 79.37,312.65 80.11,312.8 C80.11,312.8 116.19,320.01 116.19,320.01 C116.93,320.16 117.41,320.88 117.26,321.62 C117.26,321.62 109.52,360.35 109.52,360.35 C109.37,361.09 108.65,361.57 107.91,361.42z "/><path id="_R_G_L_0_G_L_2_G_L_0_G_D_4_P_0" stroke="#343434" stroke-linecap="round" stroke-linejoin="round" fill="none" stroke-width="2" stroke-opacity="1" d=" M71.03 353.56 C71.03,353.56 117.14,320.56 117.14,320.56 "/><path id="_R_G_L_0_G_L_2_G_L_0_G_D_5_P_0" stroke="#343434" stroke-linecap="round" stroke-linejoin="round" fill="none" stroke-width="2" stroke-opacity="1" d=" M78.87 313.07 C78.87,313.07 108.74,361.41 108.74,361.41 "/><path id="_R_G_L_0_G_L_2_G_L_0_G_D_6_P_0" stroke="#343434" stroke-linecap="round" stroke-linejoin="round" fill="none" stroke-width="2" stroke-opacity="1" d=" M154.04 370.65 C154.04,370.65 117.96,363.44 117.96,363.44 C117.22,363.29 116.74,362.57 116.89,361.83 C116.89,361.83 124.63,323.09 124.63,323.09 C124.78,322.35 125.5,321.87 126.25,322.02 C126.25,322.02 162.32,329.23 162.32,329.23 C163.06,329.38 163.55,330.1 163.4,330.84 C163.4,330.84 155.65,369.58 155.65,369.58 C155.5,370.32 154.78,370.8 154.04,370.65z "/><path id="_R_G_L_0_G_L_2_G_L_0_G_D_7_P_0" stroke="#343434" stroke-linecap="round" stroke-linejoin="round" fill="none" stroke-width="2" stroke-opacity="1" d=" M117.16 362.78 C117.16,362.78 163.27,329.79 163.27,329.79 "/><path id="_R_G_L_0_G_L_2_G_L_0_G_D_8_P_0" stroke="#343434" stroke-linecap="round" stroke-linejoin="round" fill="none" stroke-width="2" stroke-opacity="1" d=" M125.01 322.29 C125.01,322.29 154.88,370.63 154.88,370.63 "/><path id="_R_G_L_0_G_L_2_G_L_0_G_D_9_P_0" stroke="#343434" stroke-linecap="round" stroke-linejoin="round" fill="none" stroke-width="2" stroke-opacity="1" d=" M201.02 380.04 C201.02,380.04 164.94,372.83 164.94,372.83 C164.2,372.68 163.72,371.96 163.87,371.22 C163.87,371.22 171.61,332.49 171.61,332.49 C171.76,331.75 172.48,331.27 173.22,331.41 C173.22,331.41 209.3,338.63 209.3,338.63 C210.04,338.78 210.52,339.5 210.37,340.24 C210.37,340.24 202.63,378.97 202.63,378.97 C202.48,379.71 201.76,380.19 201.02,380.04z "/><path id="_R_G_L_0_G_L_2_G_L_0_G_D_10_P_0" stroke="#343434" stroke-linecap="round" stroke-linejoin="round" fill="none" stroke-width="2" stroke-opacity="1" d=" M164.13 372.18 C164.13,372.18 210.24,339.18 210.24,339.18 "/><path id="_R_G_L_0_G_L_2_G_L_0_G_D_11_P_0" stroke="#343434" stroke-linecap="round" stroke-linejoin="round" fill="none" stroke-width="2" stroke-opacity="1" d=" M171.98 331.69 C171.98,331.69 201.85,380.03 201.85,380.03 "/><path id="_R_G_L_0_G_L_2_G_L_0_G_D_12_P_0" stroke="#343434" stroke-linecap="round" stroke-linejoin="round" fill="none" stroke-width="2" stroke-opacity="1" d=" M109.73 429.69 C109.73,429.69 60.26,419.8 60.26,419.8 C58.7,419.49 57.69,417.97 58,416.41 C58,416.41 67.08,370.97 67.08,370.97 C67.4,369.41 68.92,368.39 70.48,368.71 C70.48,368.71 119.95,378.6 119.95,378.6 C121.51,378.91 122.52,380.43 122.21,381.99 C122.21,381.99 113.12,427.43 113.12,427.43 C112.81,428.99 111.29,430 109.73,429.69z "/><path id="_R_G_L_0_G_L_2_G_L_0_G_D_13_P_0" stroke="#343434" stroke-linecap="round" stroke-linejoin="round" fill="none" stroke-width="2" stroke-opacity="1" d=" M175.65 490.29 C175.65,490.29 52.53,465.67 52.53,465.67 C50.2,465.2 48.69,462.94 49.16,460.61 C49.16,460.61 52.35,444.67 52.35,444.67 C52.81,442.35 55.08,440.84 57.4,441.3 C57.4,441.3 180.52,465.92 180.52,465.92 C182.85,466.39 184.35,468.65 183.89,470.98 C183.89,470.98 180.7,486.92 180.7,486.92 C180.24,489.24 177.97,490.75 175.65,490.29z "/><path id="_R_G_L_0_G_L_2_G_L_0_G_D_14_P_0" stroke="#343434" stroke-linecap="round" stroke-linejoin="round" fill="none" stroke-width="2" stroke-opacity="1" d=" M68.44 368.88 C68.44,368.88 112.06,429.34 112.06,429.34 "/><path id="_R_G_L_0_G_L_2_G_L_0_G_D_15_P_0" stroke="#343434" stroke-linecap="round" stroke-linejoin="round" fill="none" stroke-width="2" stroke-opacity="1" d=" M57.64 419.28 C57.64,419.28 121.19,379.43 121.19,379.43 "/><path id="_R_G_L_0_G_L_2_G_L_0_G_D_16_P_0" stroke="#343434" stroke-linecap="round" stroke-linejoin="round" fill="none" stroke-width="2" stroke-opacity="1" d=" M129.92 390.2 C129.92,390.2 197.13,403.64 197.13,403.64 "/><path id="_R_G_L_0_G_L_2_G_L_0_G_D_17_P_0" stroke="#343434" stroke-linecap="round" stroke-linejoin="round" fill="none" stroke-width="2" stroke-opacity="1" d=" M127.77 400.96 C127.77,400.96 178.02,411.01 178.02,411.01 "/><path id="_R_G_L_0_G_L_2_G_L_0_G_D_18_P_0" stroke="#343434" stroke-linecap="round" stroke-linejoin="round" fill="none" stroke-width="2" stroke-opacity="1" d=" M125.52 412.16 C125.52,412.16 163.99,419.85 163.99,419.85 "/><path id="_R_G_L_0_G_L_2_G_L_0_G_D_19_P_0" stroke="#343434" stroke-linecap="round" stroke-linejoin="round" fill="none" stroke-width="2" stroke-opacity="1" d=" M123.37 422.92 C123.37,422.92 186.01,435.44 186.01,435.44 "/><path id="_R_G_L_0_G_L_2_G_L_0_G_D_20_P_0" stroke="#343434" stroke-linecap="round" stroke-linejoin="round" fill="none" stroke-width="2" stroke-opacity="1" d=" M85.68 459.63 C85.68,459.63 147.73,472.03 147.73,472.03 "/><path id="_R_G_L_0_G_L_2_G_L_0_G_D_21_P_0" stroke="#343434" stroke-linecap="round" stroke-linejoin="round" fill="none" stroke-width="2" stroke-opacity="1" d=" M229.97 241.9 C229.97,241.9 104.85,215.21 104.85,215.21 C102.53,214.71 101.05,212.43 101.54,210.11 C101.54,210.11 106.38,187.42 106.38,187.42 C106.88,185.1 109.16,183.62 111.48,184.11 C111.48,184.11 236.61,210.8 236.61,210.8 C238.93,211.3 240.41,213.58 239.91,215.9 C239.91,215.9 235.07,238.59 235.07,238.59 C234.58,240.91 232.29,242.39 229.97,241.9z "/><path id="_R_G_L_0_G_L_2_G_L_0_G_D_22_P_0" stroke="#343434" stroke-linecap="round" stroke-linejoin="round" fill="none" stroke-width="2" stroke-opacity="1" d=" M139.42 206.33 C139.42,206.33 202.41,219.76 202.41,219.76 "/><path id="_R_G_L_0_G_L_2_G_L_0_G_D_23_P_0" stroke="#343434" stroke-linecap="round" stroke-linejoin="round" fill="none" stroke-width="2" stroke-opacity="1" d=" M184.31 82.19 C184.31,82.19 133.21,71.29 133.21,71.29 C131.95,71.02 131.15,69.78 131.42,68.52 C131.42,68.52 144.53,7.06 144.53,7.06 C144.79,5.8 146.03,5 147.29,5.27 C147.29,5.27 198.39,16.17 198.39,16.17 C199.65,16.44 200.45,17.67 200.18,18.93 C200.18,18.93 187.07,80.39 187.07,80.39 C186.8,81.65 185.57,82.45 184.31,82.19z "/><path id="_R_G_L_0_G_L_2_G_L_0_G_D_24_P_0" stroke="#343434" stroke-linecap="round" stroke-linejoin="round" fill="none" stroke-width="2" stroke-opacity="1" d=" M199.63 16.82 C199.63,16.82 131.49,69.71 131.49,69.71 "/><path id="_R_G_L_0_G_L_2_G_L_0_G_D_25_P_0" stroke="#343434" stroke-linecap="round" stroke-linejoin="round" fill="none" stroke-width="2" stroke-opacity="1" d=" M145.88 5.36 C145.88,5.36 186.16,81.81 186.16,81.81 "/><path id="_R_G_L_0_G_L_2_G_L_0_G_D_26_P_0" stroke="#343434" stroke-linecap="round" stroke-linejoin="round" fill="none" stroke-width="2" stroke-opacity="1" d=" M206.27 31.94 C206.27,31.94 275.11,45.58 275.11,45.58 "/><path id="_R_G_L_0_G_L_2_G_L_0_G_D_27_P_0" stroke="#343434" stroke-linecap="round" stroke-linejoin="round" fill="none" stroke-width="2" stroke-opacity="1" d=" M203.7 43.98 C203.7,43.98 254.96,55.96 254.96,55.96 "/><path id="_R_G_L_0_G_L_2_G_L_0_G_D_28_P_0" stroke="#343434" stroke-linecap="round" stroke-linejoin="round" fill="none" stroke-width="2" stroke-opacity="1" d=" M200.44 59.28 C200.44,59.28 239.94,67.7 239.94,67.7 "/><path id="_R_G_L_0_G_L_2_G_L_0_G_D_29_P_0" stroke="#343434" stroke-linecap="round" stroke-linejoin="round" fill="none" stroke-width="2" stroke-opacity="1" d=" M198.95 73.12 C198.95,73.12 260.99,86.35 260.99,86.35 "/><path id="_R_G_L_0_G_L_2_G_L_0_G_D_30_P_0" stroke="#343434" stroke-linecap="round" stroke-linejoin="round" fill="none" stroke-width="2" stroke-opacity="1" d=" M166.03 167.89 C166.03,167.89 114.93,156.99 114.93,156.99 C113.67,156.72 112.87,155.48 113.13,154.22 C113.13,154.22 126.25,92.76 126.25,92.76 C126.51,91.51 127.75,90.7 129.01,90.97 C129.01,90.97 180.11,101.87 180.11,101.87 C181.37,102.14 182.17,103.38 181.9,104.64 C181.9,104.64 168.79,166.09 168.79,166.09 C168.52,167.35 167.28,168.16 166.03,167.89z "/><path id="_R_G_L_0_G_L_2_G_L_0_G_D_31_P_0" stroke="#343434" stroke-linecap="round" stroke-linejoin="round" fill="none" stroke-width="2" stroke-opacity="1" d=" M181.35 102.52 C181.35,102.52 113.21,155.41 113.21,155.41 "/><path id="_R_G_L_0_G_L_2_G_L_0_G_D_32_P_0" stroke="#343434" stroke-linecap="round" stroke-linejoin="round" fill="none" stroke-width="2" stroke-opacity="1" d=" M127.6 91.06 C127.6,91.06 167.88,167.51 167.88,167.51 "/><path id="_R_G_L_0_G_L_2_G_L_0_G_D_33_P_0" stroke="#343434" stroke-linecap="round" stroke-linejoin="round" fill="none" stroke-width="2" stroke-opacity="1" d=" M187.99 117.64 C187.99,117.64 256.83,131.28 256.83,131.28 "/><path id="_R_G_L_0_G_L_2_G_L_0_G_D_34_P_0" stroke="#343434" stroke-linecap="round" stroke-linejoin="round" fill="none" stroke-width="2" stroke-opacity="1" d=" M185.42 129.68 C185.42,129.68 236.67,141.66 236.67,141.66 "/><path id="_R_G_L_0_G_L_2_G_L_0_G_D_35_P_0" stroke="#343434" stroke-linecap="round" stroke-linejoin="round" fill="none" stroke-width="2" stroke-opacity="1" d=" M182.16 144.98 C182.16,144.98 221.66,153.41 221.66,153.41 "/><path id="_R_G_L_0_G_L_2_G_L_0_G_D_36_P_0" stroke="#343434" stroke-linecap="round" stroke-linejoin="round" fill="none" stroke-width="2" stroke-opacity="1" d=" M180.67 158.82 C180.67,158.82 242.71,172.05 242.71,172.05 "/><path id="_R_G_L_0_G_L_2_G_L_0_G_D_37_P_0" stroke="#343434" stroke-linecap="round" stroke-linejoin="round" fill="none" stroke-width="2" stroke-opacity="1" d=" M76.44 571.45 C76.44,571.45 25.34,560.55 25.34,560.55 C24.08,560.29 23.28,559.05 23.55,557.79 C23.55,557.79 36.66,496.33 36.66,496.33 C36.93,495.07 38.17,494.27 39.42,494.54 C39.42,494.54 90.52,505.44 90.52,505.44 C91.78,505.71 92.58,506.94 92.32,508.2 C92.32,508.2 79.21,569.66 79.21,569.66 C78.94,570.92 77.7,571.72 76.44,571.45z "/><path id="_R_G_L_0_G_L_2_G_L_0_G_D_38_P_0" stroke="#343434" stroke-linecap="round" stroke-linejoin="round" fill="none" stroke-width="2" stroke-opacity="1" d=" M91.76 506.09 C91.76,506.09 23.63,558.98 23.63,558.98 "/><path id="_R_G_L_0_G_L_2_G_L_0_G_D_39_P_0" stroke="#343434" stroke-linecap="round" stroke-linejoin="round" fill="none" stroke-width="2" stroke-opacity="1" d=" M38.02 494.63 C38.02,494.63 78.29,571.08 78.29,571.08 "/><path id="_R_G_L_0_G_L_2_G_L_0_G_D_40_P_0" stroke="#343434" stroke-linecap="round" stroke-linejoin="round" fill="none" stroke-width="1" stroke-opacity="1" d=" M98.41 521.21 C98.41,521.21 167.24,534.85 167.24,534.85 "/><path id="_R_G_L_0_G_L_2_G_L_0_G_D_41_P_0" stroke="#343434" stroke-linecap="round" stroke-linejoin="round" fill="none" stroke-width="2" stroke-opacity="1" d=" M95.84 533.25 C95.84,533.25 147.09,545.23 147.09,545.23 "/><path id="_R_G_L_0_G_L_2_G_L_0_G_D_42_P_0" stroke="#343434" stroke-linecap="round" stroke-linejoin="round" fill="none" stroke-width="2" stroke-opacity="1" d=" M92.57 548.55 C92.57,548.55 132.07,556.97 132.07,556.97 "/><path id="_R_G_L_0_G_L_2_G_L_0_G_D_43_P_0" stroke="#343434" stroke-linecap="round" stroke-linejoin="round" fill="none" stroke-width="2" stroke-opacity="1" d=" M91.08 562.39 C91.08,562.39 153.12,575.62 153.12,575.62 "/><path id="_R_G_L_0_G_L_2_G_L_0_G_D_44_P_0" stroke="#343434" stroke-linecap="round" stroke-linejoin="round" fill="none" stroke-width="2" stroke-opacity="1" d=" M58.16 657.16 C58.16,657.16 7.06,646.26 7.06,646.26 C5.8,645.99 5,644.75 5.27,643.49 C5.27,643.49 18.38,582.03 18.38,582.03 C18.65,580.77 19.89,579.97 21.14,580.24 C21.14,580.24 72.24,591.14 72.24,591.14 C73.5,591.41 74.3,592.65 74.03,593.9 C74.03,593.9 60.92,655.36 60.92,655.36 C60.66,656.62 59.42,657.42 58.16,657.16z "/><path id="_R_G_L_0_G_L_2_G_L_0_G_D_45_P_0" stroke="#343434" stroke-linecap="round" stroke-linejoin="round" fill="none" stroke-width="1" stroke-opacity="1" d=" M73.48 591.79 C73.48,591.79 5.34,644.68 5.34,644.68 "/><path id="_R_G_L_0_G_L_2_G_L_0_G_D_46_P_0" stroke="#343434" stroke-linecap="round" stroke-linejoin="round" fill="none" stroke-width="2" stroke-opacity="1" d=" M19.74 580.33 C19.74,580.33 60.01,656.78 60.01,656.78 "/><path id="_R_G_L_0_G_L_2_G_L_0_G_D_47_P_0" stroke="#343434" stroke-linecap="round" stroke-linejoin="round" fill="none" stroke-width="1" stroke-opacity="1" d=" M78.82 612.92 C78.82,612.92 149.15,626.85 149.15,626.85 "/><path id="_R_G_L_0_G_L_2_G_L_0_G_D_48_P_0" stroke="#343434" stroke-linecap="round" stroke-linejoin="round" fill="none" stroke-width="1" stroke-opacity="1" d=" M76.19 625.21 C76.19,625.21 128.56,637.46 128.56,637.46 "/></g></g><g id="_R_G_L_0_G_L_1_G" transform=" translate(1027.279, 579.848) scale(1.26, 1.26) translate(-120.246, -249.334)"><path id="_R_G_L_0_G_L_1_G_D_0_P_0" stroke="#000000" stroke-linecap="round" stroke-linejoin="round" fill="none" stroke-width="2" stroke-opacity="1" d=" M66.68 5.1 C66.68,5.1 233.81,32.3 233.81,32.3 C234.82,32.46 235.49,33.43 235.3,34.43 C235.3,34.43 179,325.13 179,325.13 C178.89,325.7 178.32,326.07 177.75,325.93 C177.75,325.93 5.9,285.24 5.9,285.24 C5.35,285.11 5,284.55 5.12,283.99 C5.12,283.99 65.3,6.04 65.3,6.04 C65.43,5.41 66.04,5 66.68,5.1z "/><path id="_R_G_L_0_G_L_1_G_D_1_P_0" stroke="#000000" stroke-linecap="round" stroke-linejoin="round" fill="none" stroke-width="2" stroke-opacity="1" d=" M91.53 419.88 C91.53,419.88 87.32,424.09 83.17,430.55 C79.01,437.01 73.2,442.72 68.54,448.93 C63.88,455.15 58.37,462.36 53.36,468.12 C48.34,473.88 45.09,475.08 39.78,478.84 C34.47,482.6 26.46,487.41 25.71,490.31 C24.96,493.22 31.42,492.27 37.48,492.67 C43.54,493.07 47.8,493.67 49.95,493.37 C52.11,493.07 54.81,492.17 61.27,488.81 C67.74,485.45 71.33,486.67 73.5,487.31 C75.67,487.94 81.51,487.11 83.01,485.7 C84.52,484.3 81.25,482.31 77.8,483.05 C74.36,483.79 70.96,486.86 75.4,488.16 C79.84,489.45 87.92,489.66 92.73,489.51 C97.54,489.36 98.89,489.78 103.05,488.21 C107.21,486.64 109.37,487.4 109.37,487.4 "/></g><g id="_R_G_L_0_G_L_0_G" transform=" translate(809.731, 556.68) scale(1.26, 1.26) translate(-316.458, -268.724)"><path id="_R_G_L_0_G_L_0_G_D_0_P_0" stroke="#000000" stroke-linecap="round" stroke-linejoin="round" fill="none" stroke-width="2" stroke-opacity="1" d=" M5 521.82 C5,521.82 9.3,526.98 23.92,526.12 C38.54,525.25 58.32,519.24 72.08,519.24 C85.84,519.24 93.58,520.96 103.9,516.66 C114.22,512.36 114.22,507.2 109.92,498.6 C105.62,490 95.3,489.14 99.6,498.6 C99.6,498.6 100.09,504.38 106.83,509.02 C113.58,513.65 118.3,514.06 122.16,517.87 C126.02,521.68 129.32,528.24 137.69,530.34 C146.05,532.45 159.38,527.47 163.89,524.13 C168.39,520.8 170.77,515.15 175.46,507.7 C180.15,500.25 186.38,493.32 191.94,487.31 C197.5,481.3 209.58,467.47 209.58,467.47 C209.58,467.47 225.46,448.89 230.26,443.33 C235.07,437.77 242.04,428.2 245.14,422.89 C248.25,417.58 255.56,399.95 257.52,395.54 C259.47,391.13 264.43,374 266.03,367.39 C267.64,360.77 268.91,352.98 272.67,338.26 C276.43,323.53 280.86,305.04 284.17,292.49 C287.47,279.95 292.21,265.74 296.79,253.8 C301.37,241.85 312.72,212.21 316.33,203.77 C319.93,195.33 322.26,189.16 324.67,185.12 C327.07,181.07 331.48,178.82 338.42,174.07 C345.36,169.32 355.19,166.21 361.04,160.47 C366.89,154.72 376.62,148.55 382.39,142.97 C388.15,137.4 390.69,135.79 392.87,138.65 C395.06,141.52 395.06,149.27 389.67,153.38 C384.27,157.49 372.13,163.9 369.23,164.05 C366.32,164.2 361.87,163.28 366.33,157.27 C370.8,151.26 378.98,145.02 384.99,140.34 C391,135.67 396.18,134.17 400.39,137.26 C404.59,140.36 402.64,151.88 399.89,162.6 C397.13,173.32 395.38,185.87 391.62,190.08 C387.86,194.28 374.81,207.26 370.88,211.19 C366.95,215.12 365.02,216.22 358.74,213.26 C352.47,210.29 351.91,207.92 357.69,210.55 C363.48,213.18 366.3,215.29 365.92,221.07 C365.55,226.86 359.19,252.17 357.55,258.43 C355.92,264.69 357.03,261.28 360.66,257.53 C364.29,253.77 368.7,250.99 373.79,248.26 C378.87,245.53 381.95,243 380.65,243.8 C379.35,244.6 357.57,255.63 356.75,262.79 C355.94,269.95 359.42,288.29 363.22,312.93 C367.01,337.57 376.54,361.42 378.44,382.26 C380.35,403.1 381.63,422.11 379.75,439.92 C377.87,457.73 370.35,463.67 369.53,461.41 C368.7,459.16 367.5,460.29 369.83,448.19 C372.16,436.09 372.76,422.71 373.13,407.39 C373.51,392.06 373.42,384.3 374.26,379.06 C375.1,373.81 376.14,371.97 381.74,372.29 C387.33,372.62 390.53,374.14 394.29,373.31 C398.04,372.48 403.68,371.66 405.52,378.27 C407.36,384.88 408.38,395.59 406.76,396.75 C405.14,397.92 404.77,392.73 402.82,388 C400.86,383.27 401,381.9 404.02,381.12 C407.03,380.34 416.15,380.3 421.71,381.67 C427.27,383.04 478.18,396.52 496.97,400.7 C515.76,404.88 524.92,404 528.83,410.02 C532.74,416.03 528.63,424.14 524.12,432.36 C519.61,440.57 511.29,449.19 493.86,452 C476.43,454.8 459.71,457.11 454.59,457.06 C449.48,457 447.79,452.1 445.27,448.11 C442.75,444.13 439.63,437.07 445.76,433.99 C451.88,430.91 455.57,430.15 459.32,427.37 C463.08,424.59 466.95,422.57 471.08,427 C475.22,431.43 479.94,440.58 479.04,444.68 C478.13,448.78 472.58,455.9 465.74,457.03 C458.9,458.16 447.72,458.76 442.72,453 C437.71,447.24 437.21,438.85 437.61,434.06 C438.01,429.27 439.01,427.65 445.27,424.09 C451.53,420.54 461.8,416.28 471.92,411.37 C482.04,406.46 485.81,405.71 489.35,402.45 C492.9,399.19 496.02,400.12 503.06,401.33 C510.09,402.55 520.11,406.51 526.97,405.16 C533.84,403.8 543.71,401.05 547.31,394.84 C550.92,388.63 553.33,370.87 555.88,359.97 C558.44,349.08 560.92,336.84 562.87,325.33 C564.82,313.82 566.1,307.3 568.13,308.5 C570.16,309.7 593.07,324.07 596.53,331.19 C599.99,338.32 599.63,347.08 599.09,351.03 C598.54,354.98 595.12,358.6 593.2,362.28 C591.28,365.96 591.96,372.11 590.02,373.08 C588.09,374.05 588.69,373.1 586.34,369.79 C583.98,366.48 581.58,364.03 576.27,361.63 C570.96,359.22 569.31,357.47 569.61,352.46 C569.91,347.45 570.56,343.39 574.62,341.49 C578.67,339.58 586.39,340.13 588.19,341.84 C589.99,343.54 593.05,346.95 593.1,351.76 C593.15,356.57 592.87,362.18 592.01,369.09 C591.15,376 589.29,383.92 585.29,385.67 C581.28,387.42 568.71,386.72 562.84,382.16 C556.98,377.6 553.79,371.21 551.72,366.03 C549.65,360.86 555.03,345.36 558.69,340.57 C562.34,335.78 565.26,331.83 567.26,330.22 C569.25,328.61 569.6,330.65 567.2,332.12 C564.8,333.58 562.69,334.12 562.49,330.57 C562.29,327.01 566.7,307.07 567.45,302.66 C568.2,298.25 576.72,254.44 578.8,245.53 C580.88,236.62 580.34,235.99 582.82,236.36 C585.3,236.74 590.07,237.98 591.68,240.27 C593.3,242.56 597.92,249.21 605.96,255.11 C614,261.01 623.78,268.39 625.51,272.56 C627.24,276.72 627.92,276.66 622.51,271.7 C617.1,266.75 609.53,261.23 605.22,258.43 C600.92,255.62 598.66,253.92 601.02,254.62 C603.37,255.32 609.27,258.27 615.68,263.66 C622.1,269.06 626.86,271.47 626.16,278.57 C625.47,285.67 619.63,296.64 610.83,295.9 C602.04,295.16 590.44,290.69 585.68,290.09 C580.93,289.49 578.97,288.94 577.27,285.13 C575.57,281.32 574,278.57 576.41,278.14 C578.82,277.71 579.09,279.59 577.53,281.57 C575.97,283.55 575,284.09 572.4,284.24 C569.81,284.38 571.96,281.17 572.91,276.46 C573.86,271.75 582.73,227.22 582.73,227.22 C582.73,227.22 609.68,92.32 609.68,92.32 C609.68,92.32 616.04,59.95 616.34,54.14 C616.64,48.33 616.29,32.9 596.56,27.19 C576.82,21.48 461.1,6.45 461.1,6.45 C461.1,6.45 453.41,5 444.12,7.95 C434.83,10.91 433.5,10.86 430.54,22.03 C427.59,33.2 390.47,205.87 390.47,205.87 C390.47,205.87 365.88,320.79 365.88,320.79 C365.88,320.79 361.49,346.37 361.34,351.41 C361.19,356.44 362.24,361.4 371.56,365.98 C380.88,370.56 417.1,380.57 417.1,380.57 "/></g></g></g><g id="time_group"/></svg>