<?xml version="1.0" encoding="UTF-8"?>
<svg xmlns="http://www.w3.org/2000/svg" version="1.1" xmlns:xlink="http://www.w3.org/1999/xlink" viewBox="0 0 1000 880.7">
  <defs>
    <style>
      .cls-1 {
        font-size: 12px;
        stroke-width: .6px;
      }

      .cls-1, .cls-2, .cls-3, .cls-4, .cls-5, .cls-6, .cls-7, .cls-8, .cls-9, .cls-10, .cls-11, .cls-12, .cls-13, .cls-14, .cls-15, .cls-16, .cls-17, .cls-18, .cls-19, .cls-20, .cls-21, .cls-22, .cls-23, .cls-24, .cls-25, .cls-26, .cls-27, .cls-28, .cls-29, .cls-30 {
        stroke-linecap: round;
        stroke-linejoin: round;
      }

      .cls-1, .cls-2, .cls-3, .cls-7, .cls-8, .cls-10, .cls-11, .cls-14 {
        stroke: #000;
      }

      .cls-1, .cls-2, .cls-3, .cls-10, .cls-11, .cls-14, .cls-31, .cls-30 {
        font-family: KozGoPr6N-Regular-90ms-RKSJ-H, 'Kozuka Gothic Pr6N';
      }

      .cls-2, .cls-30 {
        font-size: 13.3px;
        stroke-width: .7px;
      }

      .cls-32 {
        fill: #0bb980;
      }

      .cls-3 {
        font-size: 11.5px;
        stroke-width: .4px;
      }

      .cls-4 {
        stroke-width: .5px;
      }

      .cls-4, .cls-8, .cls-9, .cls-12, .cls-13, .cls-17, .cls-18, .cls-19, .cls-21, .cls-22, .cls-23, .cls-24, .cls-25, .cls-26, .cls-27, .cls-28, .cls-29 {
        fill: none;
      }

      .cls-4, .cls-9, .cls-12, .cls-24, .cls-25, .cls-27 {
        stroke: #6e6e73;
      }

      .cls-33, .cls-16, .cls-20 {
        fill: #fff4e6;
      }

      .cls-34 {
        fill: #fff5e5;
      }

      .cls-35 {
        fill: #fcfcfc;
      }

      .cls-5, .cls-6, .cls-28 {
        stroke-width: .9px;
      }

      .cls-5, .cls-36, .cls-37 {
        fill: #fff;
      }

      .cls-5, .cls-17, .cls-19, .cls-28 {
        stroke: #e5e7eb;
      }

      .cls-6 {
        fill: #f1fdf4;
      }

      .cls-6, .cls-26 {
        stroke: #0bb980;
      }

      .cls-7 {
        stroke-width: .1px;
      }

      .cls-38 {
        opacity: .1;
      }

      .cls-38, .cls-39 {
        fill: #6e6e73;
      }

      .cls-8, .cls-13 {
        stroke-width: .8px;
      }

      .cls-9 {
        stroke-width: .4px;
      }

      .cls-40 {
        fill: #c9c9c9;
      }

      .cls-10 {
        font-size: 17.4px;
        stroke-width: .6px;
      }

      .cls-37 {
        stroke-miterlimit: 10;
        stroke-width: 1px;
      }

      .cls-37, .cls-13, .cls-15, .cls-20, .cls-22, .cls-23, .cls-30 {
        stroke: #e19c49;
      }

      .cls-11 {
        font-size: 13.5px;
        stroke-width: .5px;
      }

      .cls-12, .cls-21, .cls-22, .cls-26 {
        stroke-width: .5px;
      }

      .cls-41, .cls-31 {
        fill: #6e6e72;
      }

      .cls-14 {
        font-size: 6.8px;
        stroke-width: .2px;
      }

      .cls-15 {
        font-family: HiraKakuProN-W3-90ms-RKSJ-H, 'Hiragino Kaku Gothic ProN';
        font-size: 8.1px;
        stroke-width: .1px;
      }

      .cls-15, .cls-42, .cls-30 {
        fill: #e19c49;
      }

      .cls-16 {
        stroke-width: .5px;
      }

      .cls-16, .cls-18 {
        stroke: #ffddb3;
      }

      .cls-17 {
        stroke-width: .6px;
      }

      .cls-43 {
        fill: #fef9e2;
      }

      .cls-44 {
        fill: #e19c4a;
      }

      .cls-18 {
        stroke-width: 1px;
      }

      .cls-19 {
        stroke-width: 1px;
      }

      .cls-45 {
        fill: #333;
      }

      .cls-20 {
        stroke-width: .7px;
      }

      .cls-21 {
        stroke: #e08e46;
      }

      .cls-31 {
        font-size: 7.6px;
      }

      .cls-23 {
        stroke-width: .5px;
      }

      .cls-24 {
        stroke-width: .6px;
      }

      .cls-25 {
        stroke-width: .5px;
      }

      .cls-27 {
        stroke-width: .6px;
      }

      .cls-46 {
        fill: #fafafa;
      }

      .cls-29 {
        stroke: #fff;
        stroke-width: .8px;
      }

      .cls-47 {
        fill: #e5e7eb;
      }

      .cls-48 {
        fill: #9da2ae;
      }
    </style>
  </defs>
  <!-- Generator: Adobe Illustrator 28.7.1, SVG Export Plug-In . SVG Version: 1.2.0 Build 142)  -->
  <g>
    <g id="Layer_1">
      <path class="cls-33" d="M151.9,233.7c106-78.5,117.5-147,333.1-184.9s188.2,160.9,328.7,219,181,113.7,173.4,264.9-174.4,281.6-334.3,281.6-199-109.1-342.4-68.2S19.7,754.7,6.4,547.6,82.4,285.1,151.9,233.7Z"/>
      <g>
        <g>
          <g>
            <path class="cls-38" d="M795.2,160.3v537.3c0,16.1-11.2,29.2-25,29.2H75.6c-13.8,0-25-13.1-25-29.2V160.3c0-16.1,11.2-29.2,25-29.2h694.6c13.8,0,25,13.1,25,29.2Z"/>
            <path class="cls-36" d="M771.8,136.5v552.6c0,7.6-5.3,13.7-11.9,13.7H48c-6.6,0-11.9-6.1-11.9-13.7V136.5c0-7.6,5.3-13.7,11.9-13.7h711.9c6.6,0,11.9,6.1,11.9,13.7Z"/>
            <path class="cls-45" d="M771.8,136.5v32.6H36.1v-32.6c0-7.6,5.3-13.7,11.9-13.7h711.9c6.6,0,11.9,6.1,11.9,13.7Z"/>
            <path class="cls-42" d="M73.7,146.1c0,5-4,9.1-8.9,9.1s-8.9-4.1-8.9-9.1,4-9.1,8.9-9.1,8.9,4.1,8.9,9.1Z"/>
            <ellipse class="cls-42" cx="97.7" cy="146.1" rx="8.9" ry="9.1"/>
            <ellipse class="cls-42" cx="129.7" cy="146.1" rx="8.9" ry="9.1"/>
          </g>
          <image width="3232" height="1011" transform="translate(55.9 181.6) scale(0)" xlink:href="C:\Users\Hariyana\Downloads\sainta-core.png"/>
          <g>
            <text class="cls-11" transform="translate(686.4 202.8)"><tspan x="0" y="0" xml:space="preserve"> 山田 太郎</tspan></text>
            <g>
              <path class="cls-42" d="M662,182c4.2,0,8.1,1.6,11,4.6,3,3,4.6,6.9,4.6,11s-1.6,8.1-4.6,11c-2.9,3-6.9,4.6-11,4.6s-8.1-1.6-11-4.6c-2.9-2.9-4.6-6.9-4.6-11s1.6-8.1,4.6-11c3-2.9,6.9-4.6,11-4.6M662,180.5c-4.6,0-8.9,1.8-12.1,5-3.2,3.2-5,7.5-5,12.1s1.8,8.9,5,12.1c3.2,3.2,7.5,5,12.1,5s8.9-1.8,12.1-5c3.2-3.2,5-7.5,5-12.1s-1.8-8.9-5-12.1c-3.2-3.2-7.5-5-12.1-5h0Z"/>
              <path class="cls-42" d="M669.9,195.3c0-2.2-.6-4.2-1.9-6-.9-1.3-2.1-2.3-3.7-2.8-.8-.2-1.7-.3-2.5-.3-1.1,0-2.1.4-3,1-1.3.8-2.1,2-2.6,3.4-.2.7-.4,1.3-.5,2,0,.3,0,.7,0,1,0,.2.3.4.5.6,0,0,.1,0,0,.1-.3,1-.6,1.9-1.3,2.8-.4.5-.9,1-1.3,1.6-.3.4-.6.8-.8,1.2,0,.1,0,.2,0,.4,0,.5.2.8.7.8.8,0,1.4-.2,2.1-.6.9-.4,1.7-1,2.4-1.7.5-.4.9-.9,1.4-1.3.4-.4.8-.7,1.4-.8,0,0,.1,0,0-.1-.2-.6-.2-1.1-.2-1.7,0-.8.2-1.5.7-2.1.2-.2.2-.5,0-.8-.3-.7.3-1.5,1-1.5.4,0,.7.4.8.8,0,.6-.2,1-.7,1.2-1,.6-1.3,1.4-1.3,2.5,0,.5,0,1,.2,1.5,0,.1,0,.2.2.2,1.4,0,2.6-.6,3.5-1.6.2-.2.3-.4.4-.7,0,0,0,0,0,0,0,0,0,0,0,0,0,.3,0,.6,0,.9,0,1.4-.5,2.7-1.1,3.9-.9,2.1-2,4.1-3.3,6.1-1.2,1.9-2.5,3.7-3.8,5.6-.5.8-1.1,1.6-1.6,2.5,0,0,0,0,0,0,2,.9,4.2,1.3,6.4,1.3s2.5-.1,3.7-.4c.7-2.5,1.6-4.9,2.3-7.4.3-1.2.6-2.5.9-3.7.1-.8.3-1.6.4-2.4,0-.6.1-1.1.2-1.7.1-1.2.2-2.4.1-3.6Z"/>
            </g>
          </g>
          <g>
            <g>
              <g>
                <path class="cls-8" d="M71.4,242.3h-3.8c-.9,0-1.7.7-1.7,1.7h0c0,.9.7,1.7,1.7,1.7h2.6c.9,0,1.7.7,1.7,1.7v.4c0,.9-.7,1.7-1.7,1.7h-4.6"/>
                <line class="cls-8" x1="68.8" y1="240.1" x2="68.8" y2="251.5"/>
              </g>
              <g>
                <circle class="cls-8" cx="68.7" cy="301.7" r="1.9"/>
                <path class="cls-8" d="M72.7,308.9v-1.3c0-1.1-.9-2-2-2h-3.8c-1.1,0-2,.9-2,2v1.3"/>
              </g>
              <g>
                <polyline class="cls-8" points="63.4 336.8 67 333.2 69.4 335.7 73.9 331.2"/>
                <polyline class="cls-8" points="71.3 330.9 74.1 330.9 74.1 334.2"/>
              </g>
              <g>
                <path class="cls-8" d="M72.8,390.5v6.2c0,.4-.3.8-.8.8h-6.6c-.4,0-.8-.3-.8-.8v-8.5c0-.4.3-.7.8-.7h4.3l3,3.1Z"/>
                <path class="cls-8" d="M72.8,390.5h-2.7c-.2,0-.3-.1-.3-.3v-2.8l3,3.1Z"/>
                <line class="cls-8" x1="66.6" y1="391" x2="68" y2="391"/>
                <line class="cls-8" x1="66.6" y1="393" x2="71" y2="393"/>
                <line class="cls-8" x1="66.6" y1="395" x2="71" y2="395"/>
              </g>
              <g>
                <circle cx="67.3" cy="426.4" r=".9"/>
                <g>
                  <path class="cls-8" d="M63.2,416.4h2.1l1.4,6.7c0,.4.5.8.9.8h4.7c.4,0,.8-.3.9-.7l1.1-4.4h-8.6"/>
                  <circle cx="72.7" cy="426.4" r=".9"/>
                </g>
              </g>
              <g>
                <circle class="cls-8" cx="68.9" cy="449.9" r="5"/>
                <polyline class="cls-8" points="68.9 446.8 68.9 449.9 70.7 450.9"/>
              </g>
              <g>
                <rect class="cls-34" x="53.6" y="261.9" width="109.7" height="27.1" rx="4" ry="4"/>
                <g>
                  <polygon class="cls-8" points="64.6 360.6 68.7 358.1 73.1 360.6 68.9 363.1 64.6 360.6"/>
                  <polygon class="cls-8" points="64.6 360.6 64.6 365.5 68.9 368.1 68.9 363.1 64.6 360.6"/>
                  <polygon class="cls-8" points="73.1 360.6 73.1 365.5 68.9 368.1 68.9 363.1 73.1 360.6"/>
                  <line class="cls-8" x1="66.7" y1="359.3" x2="70.9" y2="361.9"/>
                </g>
                <text class="cls-15" transform="translate(83.5 278.3)"><tspan x="0" y="0">顧客管理</tspan></text>
              </g>
            </g>
            <rect class="cls-40" x="84.9" y="244.1" width="32.5" height="8" rx="4" ry="4"/>
            <rect class="cls-40" x="84.9" y="331" width="32.5" height="8" rx="4" ry="4"/>
            <rect class="cls-40" x="84.9" y="388.9" width="40" height="8" rx="4" ry="4"/>
            <rect class="cls-40" x="84.9" y="416.1" width="40" height="8" rx="4" ry="4"/>
            <rect class="cls-40" x="84.9" y="445.9" width="31" height="8" rx="4" ry="4"/>
            <rect class="cls-40" x="84.9" y="301.8" width="40.6" height="8" rx="4" ry="4"/>
            <rect class="cls-40" x="84.9" y="357.9" width="40.6" height="8" rx="4" ry="4"/>
          </g>
          <line class="cls-19" x1="36.1" y1="226.1" x2="771.8" y2="226.1"/>
          <line class="cls-19" x1="172.3" y1="283.6" x2="771.8" y2="283.6"/>
          <line class="cls-19" x1="172.3" y1="327.4" x2="426.6" y2="327.4"/>
          <line class="cls-19" x1="172.3" y1="414.4" x2="426.6" y2="414.4"/>
          <line class="cls-19" x1="172.3" y1="500.4" x2="426.6" y2="500.4"/>
          <line class="cls-19" x1="172.3" y1="599.1" x2="426.6" y2="599.1"/>
          <line class="cls-19" x1="172.3" y1="226.1" x2="172.3" y2="702.9"/>
        </g>
        <text class="cls-10" transform="translate(190 263.3)"><tspan x="0" y="0">請求書を公開</tspan></text>
        <rect class="cls-16" x="310.5" y="247" width="91.5" height="20.8" rx="4.1" ry="4.1"/>
        <g>
          <circle class="cls-13" cx="67.2" cy="272.7" r="1.9"/>
          <path class="cls-13" d="M70.3,270.7c1.1,0,1.9.9,1.9,1.9s-.9,1.9-1.9,1.9"/>
          <path class="cls-13" d="M71.3,280v-1.3c0-1.1-.9-2-2-2h-3.8c-1.1,0-2,.9-2,2v1.3"/>
          <path class="cls-13" d="M74.4,280v-1.3c0-1.1-.9-2-2-2"/>
        </g>
        <g>
          <circle class="cls-25" cx="323.7" cy="255.1" r="1.3"/>
          <path class="cls-25" d="M326.5,260.2v-.9c0-.8-.6-1.4-1.4-1.4h-2.7c-.8,0-1.4.6-1.4,1.4v.9"/>
        </g>
        <rect class="cls-39" x="332.1" y="255.1" width="13.9" height="4.5" rx="2.2" ry="2.2"/>
        <rect class="cls-44" x="377.4" y="255.1" width="13.9" height="4.5" rx="2.2" ry="2.2"/>
        <g>
          <rect class="cls-23" x="364.2" y="255.8" width="7.6" height="4.6" rx=".5" ry=".5"/>
          <path class="cls-23" d="M369.5,260.4v-5.8c0-.4-.3-.8-.8-.8h-1.4c-.4,0-.8.3-.8.8v5.8"/>
        </g>
        <g>
          <rect class="cls-19" x="186.2" y="296" width="230" height="19.7" rx="2.9" ry="2.9"/>
          <rect class="cls-48" x="207.2" y="303.4" width="48.3" height="5.3" rx="2.1" ry="2.1"/>
          <circle class="cls-27" cx="196.1" cy="305.5" r="3"/>
          <line class="cls-27" x1="198.2" y1="307.6" x2="199.8" y2="309.2"/>
        </g>
        <g>
          <rect class="cls-33" x="172.7" y="414.9" width="253.8" height="85"/>
          <g>
            <g>
              <rect class="cls-46" x="183.7" y="336.3" width="22" height="20.9" rx="1.2" ry="1.2"/>
              <path class="cls-47" d="M205.6,354.2v.5c0,1.4-1.1,2.5-2.5,2.5h-16.9c-1.4,0-2.5-1.1-2.5-2.5v-5.8l4-5.1c.6-.8,1.8-.7,2.4,0l5.5,7.9,2.5-3.1c.6-.8,1.8-.8,2.5,0l5.1,5.6Z"/>
              <path class="cls-47" d="M195.7,345.5c1.1,0,2-.9,2-1.9,0-1.1-.9-1.9-2-1.9-1.1,0-2,.9-2,1.9,0,1.1.9,1.9,2,1.9Z"/>
              <rect class="cls-17" x="183.7" y="336.3" width="22" height="20.9" rx="1.2" ry="1.2"/>
            </g>
            <g>
              <text class="cls-14" transform="translate(212.7 344.1) scale(1.1 1)"><tspan x="0" y="0">合同会社ソラネクスト</tspan></text>
              <g>
                <path class="cls-7" d="M254.9,383v-1.2h2.5v1.2h-2.5ZM256.1,388.1v-6.3h1.4v6.3h-1.4Z"/>
                <path class="cls-7" d="M262.9,380.9c0,0,0,.1-.2.1v.3c0,1.3.6,5.4,4,6.9-.2.1-.4.3-.5.5-2.4-1.1-3.4-3.6-3.8-5.4h0c-.4,1.8-1.3,4.1-3.7,5.4-.1-.1-.3-.3-.5-.5,3.7-1.9,3.7-6.2,3.8-7.4h.8Z"/>
              </g>
              <g>
                <path class="cls-7" d="M375.4,385.8l-2.1-4h1.5l1.5,3.3h-.8l1.5-3.3h1.5l-2.1,4h-1ZM375,383.8l.2.9h-1.7v-.9h1.5ZM373.5,386.1v-.8h4.8v.8h-4.8ZM375.2,388.1v-2.9h1.4v2.9h-1.4ZM376.7,384.7l.3-.9h1.3v.9h-1.6Z"/>
                <path class="cls-7" d="M381.8,388.1c-.5,0-1-.1-1.4-.4-.4-.3-.7-.7-1-1.1s-.4-1.1-.4-1.7.1-1.2.4-1.7c.2-.5.6-.9,1-1.1s.9-.4,1.4-.4,1,.1,1.4.4.7.6,1,1.1.4,1.1.4,1.7-.1,1.2-.4,1.7-.6.9-1,1.1c-.4.3-.9.4-1.4.4ZM381.8,386.9c.3,0,.5,0,.7-.2.2-.2.3-.4.4-.7s.2-.7.2-1.1,0-.8-.2-1.1-.3-.5-.4-.7c-.2-.2-.4-.2-.7-.2s-.5,0-.7.2c-.2.2-.3.4-.4.7-.1.3-.2.7-.2,1.1s0,.8.2,1.1c.1.3.2.5.4.7.2.2.4.2.7.2Z"/>
              </g>
              <rect class="cls-42" x="212.7" y="349.4" width="33.7" height="10.5" rx="1.4" ry="1.4"/>
              <rect class="cls-36" x="218.2" y="353.3" width="22.6" height="2.8" rx=".5" ry=".5"/>
              <rect class="cls-39" x="192.9" y="368.8" width="15.9" height="4.8" rx="1.1" ry="1.1"/>
              <rect class="cls-39" x="312.3" y="368.8" width="15.9" height="4.8" rx="1.1" ry="1.1"/>
              <rect class="cls-39" x="192.9" y="397.9" width="23" height="4.8" rx="1.1" ry="1.1"/>
              <rect class="cls-39" x="218.8" y="397.9" width="14.1" height="4.8" rx="1.1" ry="1.1"/>
            </g>
            <g>
              <circle class="cls-4" cx="185.7" cy="369.8" r="1.2"/>
              <path class="cls-4" d="M187.6,368.6c.6,0,1.2.5,1.2,1.2s-.5,1.2-1.2,1.2"/>
              <path class="cls-4" d="M188.2,374.2v-.8c0-.7-.6-1.2-1.2-1.2h-2.3c-.7,0-1.2.6-1.2,1.2v.8"/>
              <path class="cls-4" d="M190.1,374.2v-.8c0-.7-.6-1.2-1.2-1.2"/>
            </g>
            <g>
              <circle class="cls-4" cx="186.6" cy="400.3" r="2.8"/>
              <polyline class="cls-4" points="186.6 398.5 186.6 400.3 187.7 400.8"/>
            </g>
            <g>
              <polyline class="cls-4" points="302.7 372.9 304.8 370.9 306.1 372.3 308.7 369.7"/>
              <polyline class="cls-4" points="307.2 369.6 308.8 369.6 308.8 371.4"/>
            </g>
          </g>
          <g>
            <g>
              <rect class="cls-46" x="183.7" y="424" width="22" height="20.9" rx="1.2" ry="1.2"/>
              <path class="cls-47" d="M205.6,441.9v.5c0,1.4-1.1,2.5-2.5,2.5h-16.9c-1.4,0-2.5-1.1-2.5-2.5v-5.8l4-5.1c.6-.8,1.8-.7,2.4,0l5.5,7.9,2.5-3.1c.6-.8,1.8-.8,2.5,0l5.1,5.6Z"/>
              <path class="cls-47" d="M195.7,433.2c1.1,0,2-.9,2-1.9,0-1.1-.9-1.9-2-1.9-1.1,0-2,.9-2,1.9,0,1.1.9,1.9,2,1.9Z"/>
              <rect class="cls-17" x="183.7" y="424" width="22" height="20.9" rx="1.2" ry="1.2"/>
            </g>
            <g>
              <text class="cls-14" transform="translate(212.7 431.7) scale(1.1 1)"><tspan x="0" y="0">株式会社ミライテック</tspan></text>
              <g>
                <path class="cls-7" d="M254.9,470.7v-1.2h2.5v1.2h-2.5ZM256.1,475.7v-6.3h1.4v6.3h-1.4Z"/>
                <path class="cls-7" d="M262.9,468.6c0,0,0,.1-.2.1v.3c0,1.3.6,5.4,4,6.9-.2.1-.4.3-.5.5-2.4-1.1-3.4-3.6-3.8-5.4h0c-.4,1.8-1.3,4.1-3.7,5.4-.1-.1-.3-.3-.5-.5,3.7-1.9,3.7-6.2,3.8-7.4h.8Z"/>
              </g>
              <g>
                <path class="cls-7" d="M375.4,473.5l-2.1-4h1.5l1.5,3.3h-.8l1.5-3.3h1.5l-2.1,4h-1ZM375,471.5l.2.9h-1.7v-.9h1.5ZM373.5,473.8v-.8h4.8v.8h-4.8ZM375.2,475.7v-2.9h1.4v2.9h-1.4ZM376.7,472.3l.3-.9h1.3v.9h-1.6Z"/>
                <path class="cls-7" d="M381.8,475.8c-.5,0-1-.1-1.4-.4-.4-.3-.7-.7-1-1.1s-.4-1.1-.4-1.7.1-1.2.4-1.7c.2-.5.6-.9,1-1.1s.9-.4,1.4-.4,1,.1,1.4.4.7.6,1,1.1.4,1.1.4,1.7-.1,1.2-.4,1.7-.6.9-1,1.1c-.4.3-.9.4-1.4.4ZM381.8,474.6c.3,0,.5,0,.7-.2.2-.2.3-.4.4-.7s.2-.7.2-1.1,0-.8-.2-1.1-.3-.5-.4-.7c-.2-.2-.4-.2-.7-.2s-.5,0-.7.2c-.2.2-.3.4-.4.7-.1.3-.2.7-.2,1.1s0,.8.2,1.1c.1.3.2.5.4.7.2.2.4.2.7.2Z"/>
              </g>
              <rect class="cls-42" x="212.7" y="437.1" width="33.7" height="10.5" rx="1.4" ry="1.4"/>
              <rect class="cls-36" x="218.2" y="440.9" width="22.6" height="2.8" rx=".5" ry=".5"/>
              <rect class="cls-39" x="192.9" y="456.5" width="15.9" height="4.8" rx="1.1" ry="1.1"/>
              <rect class="cls-39" x="312.3" y="456.5" width="15.9" height="4.8" rx="1.1" ry="1.1"/>
              <rect class="cls-39" x="192.9" y="485.6" width="23" height="4.8" rx="1.1" ry="1.1"/>
              <rect class="cls-39" x="218.8" y="485.6" width="14.1" height="4.8" rx="1.1" ry="1.1"/>
            </g>
            <g>
              <circle class="cls-4" cx="185.7" cy="457.5" r="1.2"/>
              <path class="cls-4" d="M187.6,456.3c.6,0,1.2.5,1.2,1.2s-.5,1.2-1.2,1.2"/>
              <path class="cls-4" d="M188.2,461.9v-.8c0-.7-.6-1.2-1.2-1.2h-2.3c-.7,0-1.2.6-1.2,1.2v.8"/>
              <path class="cls-4" d="M190.1,461.9v-.8c0-.7-.6-1.2-1.2-1.2"/>
            </g>
            <g>
              <circle class="cls-4" cx="186.6" cy="488" r="2.8"/>
              <polyline class="cls-4" points="186.6 486.2 186.6 488 187.7 488.5"/>
            </g>
            <g>
              <polyline class="cls-4" points="302.7 460.6 304.8 458.6 306.1 460 308.7 457.4"/>
              <polyline class="cls-4" points="307.2 457.3 308.8 457.3 308.8 459.1"/>
            </g>
          </g>
          <g>
            <g>
              <rect class="cls-46" x="183.7" y="511.7" width="22" height="20.9" rx="1.2" ry="1.2"/>
              <path class="cls-47" d="M205.6,529.6v.5c0,1.4-1.1,2.5-2.5,2.5h-16.9c-1.4,0-2.5-1.1-2.5-2.5v-5.8l4-5.1c.6-.8,1.8-.7,2.4,0l5.5,7.9,2.5-3.1c.6-.8,1.8-.8,2.5,0l5.1,5.6Z"/>
              <path class="cls-47" d="M195.7,520.9c1.1,0,2-.9,2-1.9,0-1.1-.9-1.9-2-1.9-1.1,0-2,.9-2,1.9,0,1.1.9,1.9,2,1.9Z"/>
              <rect class="cls-17" x="183.7" y="511.7" width="22" height="20.9" rx="1.2" ry="1.2"/>
            </g>
            <g>
              <text class="cls-14" transform="translate(212.7 519.4) scale(1.1 1)"><tspan x="0" y="0">株式会社ルミナスワークス</tspan></text>
              <g>
                <path class="cls-7" d="M254.9,558.3v-1.2h2.5v1.2h-2.5ZM256.1,563.4v-6.3h1.4v6.3h-1.4Z"/>
                <path class="cls-7" d="M262.9,556.3c0,0,0,.1-.2.1v.3c0,1.3.6,5.4,4,6.9-.2.1-.4.3-.5.5-2.4-1.1-3.4-3.6-3.8-5.4h0c-.4,1.8-1.3,4.1-3.7,5.4-.1-.1-.3-.3-.5-.5,3.7-1.9,3.7-6.2,3.8-7.4h.8Z"/>
              </g>
              <g>
                <path class="cls-7" d="M375.4,561.1l-2.1-4h1.5l1.5,3.3h-.8l1.5-3.3h1.5l-2.1,4h-1ZM375,559.2l.2.9h-1.7v-.9h1.5ZM373.5,561.4v-.8h4.8v.8h-4.8ZM375.2,563.4v-2.9h1.4v2.9h-1.4ZM376.7,560l.3-.9h1.3v.9h-1.6Z"/>
                <path class="cls-7" d="M381.8,563.5c-.5,0-1-.1-1.4-.4-.4-.3-.7-.7-1-1.1s-.4-1.1-.4-1.7.1-1.2.4-1.7c.2-.5.6-.9,1-1.1s.9-.4,1.4-.4,1,.1,1.4.4.7.6,1,1.1.4,1.1.4,1.7-.1,1.2-.4,1.7-.6.9-1,1.1c-.4.3-.9.4-1.4.4ZM381.8,562.3c.3,0,.5,0,.7-.2.2-.2.3-.4.4-.7s.2-.7.2-1.1,0-.8-.2-1.1-.3-.5-.4-.7c-.2-.2-.4-.2-.7-.2s-.5,0-.7.2c-.2.2-.3.4-.4.7-.1.3-.2.7-.2,1.1s0,.8.2,1.1c.1.3.2.5.4.7.2.2.4.2.7.2Z"/>
              </g>
              <rect class="cls-42" x="212.7" y="524.8" width="33.7" height="10.5" rx="1.4" ry="1.4"/>
              <rect class="cls-36" x="218.2" y="528.6" width="22.6" height="2.8" rx=".5" ry=".5"/>
              <rect class="cls-39" x="192.9" y="544.2" width="15.9" height="4.8" rx="1.1" ry="1.1"/>
              <rect class="cls-39" x="312.3" y="544.2" width="15.9" height="4.8" rx="1.1" ry="1.1"/>
              <rect class="cls-39" x="192.9" y="573.3" width="23" height="4.8" rx="1.1" ry="1.1"/>
              <rect class="cls-39" x="218.8" y="573.3" width="14.1" height="4.8" rx="1.1" ry="1.1"/>
            </g>
            <g>
              <circle class="cls-4" cx="185.7" cy="545.2" r="1.2"/>
              <path class="cls-4" d="M187.6,544c.6,0,1.2.5,1.2,1.2s-.5,1.2-1.2,1.2"/>
              <path class="cls-4" d="M188.2,549.6v-.8c0-.7-.6-1.2-1.2-1.2h-2.3c-.7,0-1.2.6-1.2,1.2v.8"/>
              <path class="cls-4" d="M190.1,549.6v-.8c0-.7-.6-1.2-1.2-1.2"/>
            </g>
            <g>
              <circle class="cls-4" cx="186.6" cy="575.6" r="2.8"/>
              <polyline class="cls-4" points="186.6 573.9 186.6 575.6 187.7 576.2"/>
            </g>
            <g>
              <polyline class="cls-4" points="302.7 548.3 304.8 546.3 306.1 547.7 308.7 545.1"/>
              <polyline class="cls-4" points="307.2 545 308.8 545 308.8 546.8"/>
            </g>
          </g>
          <rect class="cls-42" x="172.7" y="414.9" width="1.7" height="85"/>
        </g>
        <line class="cls-19" x1="426.6" y1="283.6" x2="426.6" y2="702.8"/>
        <g>
          <rect class="cls-38" x="461.7" y="317.5" width="502.2" height="440.3" rx="30.6" ry="30.6"/>
          <rect class="cls-36" x="437.5" y="302.2" width="501.3" height="429.7" rx="20.2" ry="20.2"/>
          <path class="cls-36" d="M449.7,661.9v-31.3s476.1,0,476.1,0v31.3c0,3.9-2.8,7.1-6.3,7.1h-463.5c-3.5,0-6.3-3.2-6.3-7.1Z"/>
          <g>
            <rect class="cls-35" x="437.5" y="366.2" width="501.3" height="80"/>
            <path class="cls-35" d="M437.5,486.8h501.3v224.8c0,11.2-9.1,20.2-20.2,20.2h-460.9c-11.2,0-20.2-9.1-20.2-20.2v-224.8h0Z"/>
            <line class="cls-28" x1="437.5" y1="366.2" x2="938.9" y2="366.2"/>
            <line class="cls-28" x1="437.5" y1="446.2" x2="938.9" y2="446.2"/>
          </g>
          <g>
            <rect class="cls-42" x="864.9" y="320.4" width="60.9" height="29.2" rx="3.9" ry="3.9"/>
            <rect class="cls-36" x="891.8" y="331.6" width="22.9" height="6.7" rx="3.3" ry="3.3"/>
            <g>
              <path class="cls-29" d="M882.5,330.6l-4.4,4.4v1.8h1.6l4.4-4.4c.5-.5.5-1.2,0-1.7h0c-.5-.5-1.2-.5-1.7,0Z"/>
              <path class="cls-29" d="M883.2,335.1v3.8c0,.5-.4.8-.8.8h-6.6c-.5,0-.8-.4-.8-.8v-6.6c0-.5.4-.8.8-.8h3.8"/>
            </g>
          </g>
          <g>
            <g>
              <rect class="cls-46" x="449.8" y="315.9" width="37.2" height="35.4" rx="4.7" ry="4.7"/>
              <path class="cls-47" d="M486.9,346.1v.9c0,2.4-1.9,4.3-4.3,4.3h-28.6c-2.4,0-4.3-1.9-4.3-4.3v-9.9l6.8-8.6c1-1.3,3.1-1.3,4,.1l9.3,13.3,4.2-5.3c1.1-1.3,3-1.4,4.2-.1l8.7,9.5Z"/>
              <path class="cls-47" d="M470.2,331.4c1.8,0,3.3-1.5,3.3-3.3,0-1.8-1.5-3.3-3.3-3.3-1.8,0-3.3,1.5-3.3,3.3,0,1.8,1.5,3.3,3.3,3.3Z"/>
              <rect class="cls-18" x="449.7" y="315.9" width="37.2" height="35.4" rx="5.4" ry="5.4"/>
            </g>
            <text class="cls-3" transform="translate(496.5 330) scale(1.1 1)"><tspan x="0" y="0">株式会社ミライテック</tspan></text>
            <g>
              <polyline class="cls-22" points="555.7 346.8 558.1 344.4 559.6 346 562.6 343.1"/>
              <polyline class="cls-22" points="560.9 342.9 562.8 342.9 562.8 345"/>
            </g>
            <g>
              <circle class="cls-22" cx="498.6" cy="343.6" r="1.3" transform="translate(-102.8 273.5) rotate(-27.9)"/>
              <path class="cls-22" d="M500.6,342.3c.7,0,1.3.6,1.3,1.3s-.6,1.3-1.3,1.3"/>
              <path class="cls-22" d="M501.3,348.4v-.8c0-.7-.6-1.4-1.4-1.4h-2.5c-.7,0-1.4.6-1.4,1.4v.8"/>
              <path class="cls-22" d="M503.4,348.4v-.8c0-.7-.6-1.4-1.4-1.4"/>
            </g>
            <rect class="cls-41" x="509.3" y="343.6" width="35.4" height="4.4" rx="2.2" ry="2.2"/>
            <rect class="cls-41" x="567.4" y="343.6" width="8.5" height="4.4" rx="2.2" ry="2.2"/>
          </g>
          <g>
            <rect class="cls-5" x="449.7" y="378.9" width="112.1" height="53.9" rx="5" ry="5"/>
            <rect class="cls-5" x="571.6" y="378.9" width="112.1" height="53.9" rx="5" ry="5"/>
            <rect class="cls-5" x="691" y="378.9" width="112.1" height="53.9" rx="5" ry="5"/>
            <rect class="cls-5" x="813.8" y="378.9" width="112.1" height="53.9" rx="5" ry="5"/>
            <g>
              <circle class="cls-12" cx="462.2" cy="391.8" r="1.3" transform="translate(-129.7 262.1) rotate(-27.9)"/>
              <path class="cls-12" d="M464.3,390.5c.7,0,1.3.6,1.3,1.3s-.6,1.3-1.3,1.3"/>
              <path class="cls-12" d="M464.9,396.6v-.8c0-.7-.6-1.4-1.4-1.4h-2.5c-.7,0-1.4.6-1.4,1.4v.8"/>
              <path class="cls-12" d="M467,396.6v-.8c0-.7-.6-1.4-1.4-1.4"/>
            </g>
            <rect class="cls-41" x="472.9" y="391.8" width="24.3" height="4.4" rx="2.2" ry="2.2"/>
            <g>
              <polyline class="cls-12" points="581.3 395 583.7 392.7 585.3 394.3 588.3 391.4"/>
              <polyline class="cls-12" points="586.6 391.2 588.4 391.2 588.4 393.3"/>
            </g>
            <rect class="cls-41" x="593.1" y="391.8" width="26.1" height="4.4" rx="2.2" ry="2.2"/>
            <g>
              <polyline class="cls-12" points="703.6 395 706 392.7 707.6 394.3 710.6 391.4"/>
              <polyline class="cls-12" points="708.9 391.2 710.7 391.2 710.7 393.3"/>
            </g>
            <rect class="cls-41" x="715.4" y="391.8" width="31.7" height="4.4" rx="2.2" ry="2.2"/>
            <rect class="cls-41" x="837.3" y="391.8" width="24.2" height="4.4" rx="2.2" ry="2.2"/>
            <g>
              <circle class="cls-12" cx="828.1" cy="393.2" r="3.3"/>
              <polyline class="cls-12" points="828.1 391.1 828.1 393.2 829.3 393.8"/>
            </g>
            <text class="cls-2" transform="translate(502 419.5)"><tspan x="0" y="0">1</tspan></text>
            <text class="cls-2" transform="translate(619.1 419.5)"><tspan x="0" y="0">¥0</tspan></text>
            <text class="cls-2" transform="translate(741.4 419.5)"><tspan x="0" y="0">¥0</tspan></text>
            <text class="cls-1" transform="translate(845.8 418.3)"><tspan x="0" y="0">10月29日</tspan></text>
          </g>
          <g>
            <rect class="cls-5" x="449.7" y="499.9" width="112.1" height="53.9" rx="5" ry="5"/>
            <rect class="cls-20" x="571.6" y="499.9" width="112.1" height="53.9" rx="5" ry="5"/>
            <rect class="cls-6" x="691" y="499.9" width="112.1" height="53.9" rx="5" ry="5"/>
            <rect class="cls-20" x="813.8" y="499.9" width="112.1" height="53.9" rx="5" ry="5"/>
            <g>
              <path class="cls-12" d="M468,513.3v4.1c0,.3-.2.5-.5.5h-4.4c-.3,0-.5-.2-.5-.5v-5.7c0-.3.2-.5.5-.5h2.9l2,2Z"/>
              <path class="cls-12" d="M468,513.3h-1.8c-.1,0-.2,0-.2-.2v-1.8l2,2Z"/>
              <line class="cls-12" x1="463.8" y1="513.6" x2="464.8" y2="513.6"/>
              <line class="cls-12" x1="463.8" y1="514.9" x2="466.8" y2="514.9"/>
              <line class="cls-12" x1="463.8" y1="516.2" x2="466.8" y2="516.2"/>
            </g>
            <rect class="cls-41" x="472.9" y="512.8" width="24.3" height="4.4" rx="2.2" ry="2.2"/>
            <rect class="cls-41" x="464" y="573.7" width="34" height="4.4" rx="2.2" ry="2.2"/>
            <rect class="cls-41" x="464" y="611.2" width="34" height="4.4" rx="2.2" ry="2.2"/>
            <rect class="cls-41" x="580.2" y="611.2" width="13.6" height="4.4" rx="2.2" ry="2.2"/>
            <rect class="cls-41" x="630.6" y="611.2" width="13.6" height="4.4" rx="2.2" ry="2.2"/>
            <rect class="cls-41" x="701.6" y="611.2" width="13.6" height="4.4" rx="2.2" ry="2.2"/>
            <rect class="cls-41" x="770.9" y="611.2" width="13.6" height="4.4" rx="2.2" ry="2.2"/>
            <rect class="cls-41" x="833.7" y="611.2" width="28.5" height="4.4" rx="2.2" ry="2.2"/>
            <rect class="cls-41" x="902" y="606.8" width="7.4" height="4.4" rx="2.2" ry="2.2"/>
            <rect class="cls-41" x="902" y="616.5" width="7.4" height="4.4" rx="2.2" ry="2.2"/>
            <rect class="cls-41" x="552.5" y="573.7" width="21.3" height="4.4" rx="2.1" ry="2.1"/>
            <rect class="cls-41" x="573.8" y="647.5" width="24.5" height="4.4" rx="1.9" ry="1.9"/>
            <rect class="cls-41" x="623.2" y="647.5" width="42.3" height="4.4" rx="2.2" ry="2.2"/>
            <rect class="cls-41" x="696.3" y="647.5" width="42.3" height="4.4" rx="2.2" ry="2.2"/>
            <rect class="cls-44" x="765.7" y="647.5" width="34.3" height="4.4" rx="2" ry="2"/>
            <rect class="cls-43" x="826.5" y="641.5" width="34.3" height="16.5" rx="8.3" ry="8.3"/>
            <rect class="cls-41" x="637.4" y="573.7" width="24.5" height="4.4" rx="2.2" ry="2.2"/>
            <rect class="cls-41" x="593" y="573.7" width="24.5" height="4.4" rx="2.2" ry="2.2"/>
            <g>
              <polyline class="cls-21" points="581.3 516 583.7 513.6 585.3 515.2 588.3 512.3"/>
              <polyline class="cls-21" points="586.6 512.1 588.4 512.1 588.4 514.3"/>
            </g>
            <rect class="cls-44" x="593.1" y="512.8" width="26.1" height="4.4" rx="2.2" ry="2.2"/>
            <g>
              <polyline class="cls-26" points="703.6 516 706 513.6 707.6 515.2 710.6 512.3"/>
              <polyline class="cls-26" points="708.9 512.1 710.7 512.1 710.7 514.3"/>
            </g>
            <rect class="cls-32" x="715.4" y="512.8" width="31.7" height="4.4" rx="2.2" ry="2.2"/>
            <rect class="cls-42" x="837.3" y="512.8" width="24.2" height="4.4" rx="2.2" ry="2.2"/>
            <g>
              <circle class="cls-22" cx="828.1" cy="514.1" r="3.3"/>
              <polyline class="cls-22" points="828.1 512 828.1 514.1 829.3 514.8"/>
            </g>
            <text class="cls-2" transform="translate(502 540.4)"><tspan x="0" y="0">1</tspan></text>
            <text class="cls-30" transform="translate(602.2 540.4)"><tspan x="0" y="0">¥97,900</tspan></text>
            <text class="cls-2" transform="translate(741.4 540.4)"><tspan x="0" y="0">¥0</tspan></text>
            <text class="cls-30" transform="translate(867.2 539.2)"><tspan x="0" y="0">1</tspan></text>
            <text class="cls-31" transform="translate(464 652.4) scale(1.2 1)"><tspan x="0" y="0">INV-2025-0002</tspan></text>
            <polygon class="cls-24" points="457.8 572.6 454.6 575.8 454.6 579.6 452.8 578.5 452.8 575.9 449.6 572.6 457.8 572.6"/>
            <g>
              <path class="cls-9" d="M533,649.4v2.1c0,.3-.2.5-.5.5h-3.7c-.3,0-.5-.2-.5-.5v-3.7c0-.3.2-.5.5-.5h2.1"/>
              <line class="cls-9" x1="530.8" y1="649.7" x2="533.7" y2="646.8"/>
              <line class="cls-9" x1="533.9" y1="646.6" x2="533.9" y2="648.7"/>
              <line class="cls-9" x1="532" y1="646.6" x2="533.9" y2="646.6"/>
            </g>
            <rect class="cls-44" x="834.7" y="647.5" width="17.9" height="4.4" rx="2.2" ry="2.2"/>
            <circle class="cls-41" cx="907.2" cy="646.6" r=".8"/>
            <circle class="cls-41" cx="907.2" cy="649.2" r=".8"/>
            <circle class="cls-41" cx="907.2" cy="651.8" r=".8"/>
          </g>
          <rect class="cls-41" x="459.4" y="464.4" width="14.5" height="5.6" rx="2.8" ry="2.8"/>
          <rect class="cls-41" x="500.6" y="464.4" width="31.3" height="5.6" rx="2.8" ry="2.8"/>
          <rect class="cls-41" x="559.1" y="464.4" width="31.3" height="5.6" rx="2.8" ry="2.8"/>
          <g>
            <rect class="cls-33" x="601.9" y="456.4" width="39.8" height="20.4" rx="4.2" ry="4.2"/>
            <path class="cls-42" d="M637.4,456.8c2.1,0,3.9,1.7,3.9,3.9v12c0,2.1-1.7,3.9-3.9,3.9h-31.3c-2.1,0-3.9-1.7-3.9-3.9v-12c0-2.1,1.7-3.9,3.9-3.9h31.3M637.4,456.1h-31.3c-2.5,0-4.6,2-4.6,4.6v12c0,2.5,2,4.6,4.6,4.6h31.3c2.5,0,4.6-2,4.6-4.6v-12c0-2.5-2-4.6-4.6-4.6h0Z"/>
          </g>
          <rect class="cls-44" x="617.9" y="464.6" width="13.2" height="4.2" rx="2.1" ry="2.1"/>
          <path class="cls-28" d="M925.8,630.4v32.3c0,3.5-2.8,6.3-6.3,6.3h-463.5c-3.5,0-6.3-2.8-6.3-6.3v-32.3h476.1Z"/>
          <g>
            <rect class="cls-42" x="504.6" y="566.3" width="35.5" height="19.3" rx="2.4" ry="2.4"/>
            <rect class="cls-36" x="512" y="573.7" width="22" height="4.4" rx="2.2" ry="2.2"/>
          </g>
          <g>
            <circle class="cls-38" cx="914.9" cy="708.9" r="17.5"/>
            <circle class="cls-37" cx="913.1" cy="706.1" r="15.9"/>
            <circle class="cls-37" cx="913.1" cy="706.1" r="9.5" transform="translate(-172.1 1099.5) rotate(-57.6)"/>
            <path class="cls-42" d="M912.3,708.4v-2.7s.4,0,.4,0c.3,0,.6,0,.9-.2.2-.1.4-.3.6-.6.1-.2.2-.5.2-.8s0-.6-.2-.8c-.1-.2-.3-.4-.6-.5-.2-.1-.5-.2-.9-.2s-.8.1-1.2.3-.6.5-.8.9l-.9-.8c.3-.6.7-1,1.2-1.3.5-.3,1.1-.5,1.8-.5s1.1.1,1.5.3c.4.2.8.5,1,1s.4.9.4,1.4-.1.9-.3,1.3c-.2.4-.5.7-.9,1-.4.3-.9.4-1.4.5l.5-.6v2.1h-1.2ZM912.8,711.7c-.3,0-.5,0-.7-.3-.2-.2-.3-.4-.3-.7s0-.5.3-.7.4-.3.7-.3.5,0,.7.3c.2.2.3.4.3.7s0,.5-.3.7c-.2.2-.4.3-.7.3Z"/>
          </g>
        </g>
      </g>
    </g>
  </g>
</svg>