<?xml version="1.0" encoding="UTF-8"?>
<svg xmlns="http://www.w3.org/2000/svg" version="1.1" xmlns:xlink="http://www.w3.org/1999/xlink" viewBox="0 0 1000 880.7">
  <defs>
    <style>
      .cls-1, .cls-2, .cls-3, .cls-4, .cls-5, .cls-6, .cls-7, .cls-8, .cls-9, .cls-10, .cls-11, .cls-12, .cls-13, .cls-14, .cls-15, .cls-16, .cls-17, .cls-18, .cls-19, .cls-20, .cls-21 {
        stroke-linejoin: round;
      }

      .cls-1, .cls-2, .cls-3, .cls-4, .cls-6, .cls-8, .cls-9, .cls-10, .cls-11, .cls-12, .cls-13, .cls-14, .cls-15, .cls-16, .cls-17, .cls-18, .cls-19, .cls-20, .cls-21 {
        stroke-linecap: round;
      }

      .cls-1, .cls-2, .cls-22, .cls-23 {
        stroke: #111;
      }

      .cls-1, .cls-2, .cls-24, .cls-5, .cls-25, .cls-7, .cls-8, .cls-9, .cls-11, .cls-12, .cls-26, .cls-16, .cls-17, .cls-19, .cls-27 {
        fill: none;
      }

      .cls-1, .cls-9 {
        stroke-width: .7px;
      }

      .cls-28 {
        font-family: MyriadPro-Regular, 'Myriad Pro';
        font-size: 6.2px;
      }

      .cls-28, .cls-29, .cls-30 {
        fill: #858585;
      }

      .cls-2 {
        stroke-width: 1.1px;
      }

      .cls-31 {
        fill: #fff4e6;
      }

      .cls-3 {
        font-size: 7.9px;
        stroke-width: .3px;
      }

      .cls-3, .cls-4, .cls-22, .cls-32, .cls-10, .cls-33, .cls-34, .cls-29, .cls-35, .cls-13, .cls-14, .cls-15, .cls-18, .cls-20, .cls-23, .cls-21 {
        font-family: KozGoPr6N-Regular-90ms-RKSJ-H, 'Kozuka Gothic Pr6N';
      }

      .cls-3, .cls-6, .cls-8, .cls-10, .cls-34, .cls-26, .cls-13, .cls-18, .cls-19, .cls-20 {
        stroke: #e19c49;
      }

      .cls-3, .cls-6, .cls-10, .cls-34, .cls-36, .cls-13, .cls-18, .cls-20 {
        fill: #e19c49;
      }

      .cls-37 {
        fill: #fff5e5;
      }

      .cls-38 {
        fill: #15b8a5;
      }

      .cls-39 {
        opacity: .1;
      }

      .cls-39, .cls-32, .cls-35, .cls-40 {
        fill: #6e6e73;
      }

      .cls-41 {
        fill: #e5e6ea;
      }

      .cls-42 {
        fill: #c9c9c9;
      }

      .cls-43, .cls-14, .cls-21 {
        fill: #fff;
      }

      .cls-4 {
        font-size: 17.4px;
        stroke-width: .6px;
      }

      .cls-4, .cls-12, .cls-15 {
        stroke: #000;
      }

      .cls-44 {
        fill: #f3f4f6;
      }

      .cls-22 {
        font-size: 8.3px;
      }

      .cls-22, .cls-25, .cls-34, .cls-35, .cls-26, .cls-23, .cls-27 {
        stroke-miterlimit: 10;
      }

      .cls-22, .cls-35, .cls-23 {
        stroke-width: .3px;
      }

      .cls-5 {
        stroke-width: 1.1px;
      }

      .cls-5, .cls-7, .cls-9, .cls-11 {
        stroke: #e5e7eb;
      }

      .cls-6 {
        stroke-width: .3px;
      }

      .cls-45 {
        opacity: .7;
      }

      .cls-45, .cls-46 {
        fill: #333;
      }

      .cls-47 {
        clip-path: url(#clippath-1);
      }

      .cls-25 {
        stroke: #ffddb3;
      }

      .cls-25, .cls-27 {
        stroke-width: .6px;
      }

      .cls-7 {
        stroke-width: 1.1px;
      }

      .cls-32, .cls-35 {
        font-size: 11.7px;
      }

      .cls-8, .cls-11 {
        stroke-width: .8px;
      }

      .cls-10 {
        font-size: 17.4px;
        stroke-width: .6px;
      }

      .cls-33 {
        fill: #111;
      }

      .cls-33, .cls-34 {
        font-size: 5.1px;
      }

      .cls-34 {
        stroke-width: .2px;
      }

      .cls-29 {
        font-size: 4.9px;
      }

      .cls-48 {
        fill: #14756e;
      }

      .cls-12, .cls-19 {
        stroke-width: .7px;
      }

      .cls-35 {
        stroke: #6e6e73;
      }

      .cls-26 {
        stroke-width: 1.2px;
      }

      .cls-13 {
        font-size: 13.9px;
        stroke-width: .5px;
      }

      .cls-14 {
        font-size: 6.6px;
        stroke-width: .2px;
      }

      .cls-14, .cls-16, .cls-17, .cls-21 {
        stroke: #fff;
      }

      .cls-49 {
        fill: #079669;
      }

      .cls-15, .cls-21 {
        font-size: 8.2px;
        stroke-width: .3px;
      }

      .cls-16 {
        stroke-width: 1.2px;
      }

      .cls-50 {
        fill: #e08e46;
      }

      .cls-18 {
        font-size: 7.3px;
        stroke-width: .3px;
      }

      .cls-20 {
        font-size: 10.7px;
        stroke-width: .4px;
      }

      .cls-23 {
        font-size: 7.1px;
      }

      .cls-27 {
        stroke: #f59e0b;
      }

      .cls-51 {
        clip-path: url(#clippath);
      }
    </style>
    <clipPath id="clippath">
      <rect class="cls-24" x="395.5" y="327" width="458.3" height="377.7"/>
    </clipPath>
    <clipPath id="clippath-1">
      <rect class="cls-24" x="395.5" y="327" width="455.8" height="736.2"/>
    </clipPath>
  </defs>
  <!-- Generator: Adobe Illustrator 28.7.1, SVG Export Plug-In . SVG Version: 1.2.0 Build 142)  -->
  <g>
    <g id="Layer_1">
      <path class="cls-31" d="M139.9,116c142.5-146.6,344.1,18.8,474,0,129.9-18.8,187.6-79.3,278.5-26.3s125.3,230.3,2,412.2-67.2,322.9-321.9,341.1-265.8-154.4-381.5-157.5c-115.7-3.1-167.2-137.3-167.2-227.9S86.3,171.1,139.9,116Z"/>
      <g>
        <path class="cls-43" d="M812.7,144v550.7c0,6.6-4.7,12-10.4,12H68.6c-5.7,0-10.4-5.4-10.4-12V144h754.5Z"/>
        <path class="cls-40" d="M812.7,115.5v28.4H58.1v-28.4c0-6.6,4.7-12,10.4-12h733.7c5.7,0,10.4,5.4,10.4,12Z"/>
        <path class="cls-46" d="M812.7,115.5v28.4H58.1v-28.4c0-6.6,4.7-12,10.4-12h733.7c5.7,0,10.4,5.4,10.4,12Z"/>
        <path class="cls-36" d="M91,123.9c0,4.4-3.5,7.9-7.8,7.9s-7.8-3.5-7.8-7.9,3.5-7.9,7.8-7.9,7.8,3.5,7.8,7.9Z"/>
        <ellipse class="cls-36" cx="112" cy="123.9" rx="7.8" ry="7.9"/>
        <ellipse class="cls-36" cx="139.9" cy="123.9" rx="7.8" ry="7.9"/>
        <image width="3232" height="1011" transform="translate(74.7 157.9) scale(0)" xlink:href="C:\Users\Hariyana\Downloads\sainta-core.png"/>
        <g>
          <g>
            <rect class="cls-37" x="72.3" y="371.6" width="118.8" height="29.4" rx="3.5" ry="3.5"/>
            <g>
              <path class="cls-12" d="M91.6,223.7h-4.1c-1,0-1.8.8-1.8,1.8h0c0,1,.8,1.8,1.8,1.8h2.8c1,0,1.8.8,1.8,1.8v.5c0,1-.8,1.8-1.8,1.8h-4.9"/>
              <line class="cls-12" x1="88.7" y1="221.3" x2="88.7" y2="233.6"/>
            </g>
            <g>
              <circle class="cls-12" cx="88.6" cy="287.9" r="2.1"/>
              <path class="cls-12" d="M93,295.8v-1.4c0-1.2-1-2.2-2.2-2.2h-4.2c-1.2,0-2.2,1-2.2,2.2v1.4"/>
            </g>
            <g>
              <circle class="cls-12" cx="87.1" cy="256.6" r="2.1"/>
              <path class="cls-12" d="M90.4,254.4c1.2,0,2.1.9,2.1,2.1s-.9,2.1-2.1,2.1"/>
              <path class="cls-12" d="M91.4,264.4v-1.4c0-1.2-1-2.2-2.2-2.2h-4.2c-1.2,0-2.2,1-2.2,2.2v1.4"/>
              <path class="cls-12" d="M94.9,264.4v-1.4c0-1.2-1-2.2-2.2-2.2"/>
            </g>
            <g>
              <polyline class="cls-12" points="82.9 326 86.8 322.1 89.4 324.8 94.3 319.9"/>
              <polyline class="cls-12" points="91.5 319.7 94.5 319.7 94.5 323.1"/>
            </g>
            <g>
              <path class="cls-19" d="M93.1,384.2v6.7c0,.5-.4.8-.8.8h-7.1c-.5,0-.8-.4-.8-.8v-9.2c0-.5.4-.8.8-.8h4.7l3.3,3.3Z"/>
              <path class="cls-19" d="M93.1,384.2h-2.9c-.2,0-.3-.2-.3-.3v-3l3.3,3.3Z"/>
              <line class="cls-19" x1="86.3" y1="384.7" x2="87.9" y2="384.7"/>
              <line class="cls-19" x1="86.3" y1="386.9" x2="91.2" y2="386.9"/>
              <line class="cls-19" x1="86.3" y1="389" x2="91.2" y2="389"/>
            </g>
            <g>
              <circle cx="87.1" cy="423" r="1"/>
              <g>
                <path class="cls-12" d="M82.7,412.2h2.3l1.5,7.2c0,.5.5.8,1,.8h5.1c.5,0,.9-.3,1-.8l1.2-4.8h-9.3"/>
                <circle cx="93" cy="423" r="1"/>
              </g>
            </g>
            <g>
              <circle class="cls-12" cx="88.8" cy="448.5" r="5.5"/>
              <polyline class="cls-12" points="88.8 445.1 88.8 448.5 90.9 449.6"/>
            </g>
            <g>
              <polygon class="cls-12" points="84.2 351.7 88.6 349.1 93.4 351.7 88.8 354.5 84.2 351.7"/>
              <polygon class="cls-12" points="84.2 351.7 84.2 357.1 88.8 359.9 88.8 354.5 84.2 351.7"/>
              <polygon class="cls-12" points="93.4 351.7 93.4 357.1 88.8 359.9 88.8 354.5 93.4 351.7"/>
              <line class="cls-12" x1="86.4" y1="350.4" x2="91" y2="353.2"/>
            </g>
          </g>
          <rect class="cls-42" x="106.2" y="225.6" width="35.2" height="8.7" rx="3.5" ry="3.5"/>
          <rect class="cls-42" x="106.2" y="256.4" width="35.2" height="8.7" rx="3.5" ry="3.5"/>
          <rect class="cls-42" x="106.2" y="319.8" width="35.2" height="8.7" rx="3.5" ry="3.5"/>
          <rect class="cls-36" x="106.2" y="382.5" width="43.3" height="8.7" rx="3.5" ry="3.5"/>
          <rect class="cls-42" x="106.2" y="411.9" width="43.3" height="8.7" rx="3.5" ry="3.5"/>
          <rect class="cls-42" x="106.2" y="444.2" width="33.6" height="8.7" rx="3.5" ry="3.5"/>
          <rect class="cls-42" x="106.2" y="288.1" width="44" height="8.7" rx="3.5" ry="3.5"/>
          <rect class="cls-42" x="106.2" y="350.2" width="44" height="8.7" rx="3.5" ry="3.5"/>
        </g>
        <path class="cls-45" d="M812.7,144v550.7c0,6.6-4.7,12-10.4,12H68.6c-5.7,0-10.4-5.4-10.4-12V144h754.5Z"/>
      </g>
      <g>
        <g>
          <rect class="cls-39" x="121.6" y="209.8" width="820.3" height="561.4" rx="13.7" ry="13.7"/>
          <rect class="cls-43" x="103.1" y="190.8" width="820.3" height="561.4" rx="13.7" ry="13.7"/>
          <rect class="cls-44" x="315.2" y="264.3" width="597.4" height="440.3"/>
          <rect class="cls-36" x="790.9" y="392.6" width="255.3" height="5" rx="2.5" ry="2.5" transform="translate(1313.6 -523.4) rotate(90)"/>
          <g>
            <g>
              <circle class="cls-1" cx="837.1" cy="285.5" r="2.8"/>
              <line class="cls-1" x1="835.8" y1="285.5" x2="838.3" y2="285.5"/>
              <rect class="cls-9" x="828.1" y="276.6" width="17.8" height="17.8" rx="1.7" ry="1.7"/>
            </g>
            <g>
              <circle class="cls-1" cx="895.7" cy="285.5" r="2.8"/>
              <line class="cls-1" x1="894.4" y1="285.5" x2="896.8" y2="285.5"/>
              <rect class="cls-9" x="886.7" y="276.6" width="17.8" height="17.8" rx="1.7" ry="1.7"/>
              <line class="cls-1" x1="895.6" y1="284.3" x2="895.6" y2="286.8"/>
            </g>
            <line class="cls-1" x1="839" y1="287.5" x2="840.5" y2="289"/>
            <g>
              <path class="cls-40" d="M859,284.1v-.7h3.8v.5l-.3.2h-3.4ZM859.9,289.1l2.1-5.2h.8s-2.1,5.2-2.1,5.2h-.8Z"/>
              <path class="cls-40" d="M865.6,289.2c-.4,0-.8-.1-1.2-.4-.3-.2-.6-.6-.8-1s-.3-1-.3-1.5.1-1.1.3-1.5c.2-.4.5-.8.8-1,.3-.2.7-.4,1.1-.4s.8.1,1.2.4c.3.2.6.6.8,1,.2.4.3.9.3,1.5s-.1,1.1-.3,1.5c-.2.4-.5.8-.8,1s-.7.4-1.1.4ZM865.6,288.4c.3,0,.6,0,.8-.2.2-.2.4-.4.5-.7.1-.3.2-.7.2-1.2s0-.9-.2-1.2c-.1-.3-.3-.6-.5-.7-.2-.2-.5-.2-.8-.2s-.6,0-.8.2c-.2.2-.4.4-.5.7-.1.3-.2.7-.2,1.2s0,.9.2,1.2c.1.3.3.6.5.7s.5.2.8.2Z"/>
              <path class="cls-40" d="M869.8,285.6c-.2,0-.4,0-.6-.2-.2-.1-.3-.2-.4-.4-.1-.2-.2-.4-.2-.6s0-.4.2-.6c.1-.2.2-.3.4-.4s.4-.2.6-.2.4,0,.6.2c.2.1.3.2.4.4.1.2.2.4.2.6s0,.4-.2.6c-.1.2-.2.3-.4.4-.2.1-.4.2-.6.2ZM868.7,289.1l3.6-5.6h.7l-3.6,5.6h-.7ZM869.8,285.1c.2,0,.3,0,.4-.2.1-.1.2-.2.2-.4s0-.3-.2-.4c-.1-.1-.2-.2-.4-.2s-.3,0-.4.2-.2.2-.2.4,0,.3.2.4c.1.1.2.2.4.2ZM872,289.2c-.2,0-.4,0-.6-.2s-.3-.2-.4-.4c-.1-.2-.2-.4-.2-.6s0-.4.2-.6c.1-.2.2-.3.4-.4s.4-.2.6-.2.4,0,.6.2.3.2.4.4c.1.2.2.4.2.6s0,.4-.2.6c-.1.2-.2.3-.4.4s-.4.2-.6.2ZM872,288.6c.2,0,.3,0,.4-.2.1-.1.2-.2.2-.4s0-.3-.2-.4c-.1-.1-.2-.2-.4-.2s-.3,0-.4.2c-.1.1-.2.2-.2.4s0,.3.2.4c.1.1.2.2.4.2Z"/>
            </g>
          </g>
          <g>
            <line class="cls-2" x1="892.4" y1="206.4" x2="904.5" y2="218.5"/>
            <line class="cls-2" x1="904.5" y1="206.4" x2="892.4" y2="218.5"/>
          </g>
          <line class="cls-7" x1="103.1" y1="704.7" x2="923.4" y2="704.7"/>
          <line class="cls-7" x1="103.1" y1="264.9" x2="923.4" y2="264.9"/>
        </g>
        <text class="cls-4" transform="translate(120.7 217.6)"><tspan x="0" y="0">請求書を公開</tspan></text>
        <g>
          <text class="cls-32" transform="translate(151.9 246.4)"><tspan x="0" y="0">プレビュー確認</tspan><tspan x="0" y="14"></tspan></text>
          <text class="cls-35" transform="translate(400.4 246.4)"><tspan x="0" y="0">カラースキーム</tspan></text>
          <text class="cls-32" transform="translate(276.3 246.4)"><tspan x="0" y="0">ロゴ・印影設定</tspan></text>
          <g>
            <circle class="cls-36" cx="131.6" cy="240.9" r="10.9"/>
            <polyline class="cls-16" points="127.3 241.9 129.7 244.3 135.9 238.1"/>
          </g>
          <g>
            <circle class="cls-36" cx="256.2" cy="240.9" r="10.9"/>
            <polyline class="cls-16" points="251.9 241.9 254.3 244.3 260.5 238.1"/>
          </g>
          <circle class="cls-36" cx="380.8" cy="240.9" r="10.9"/>
          <path class="cls-43" d="M380.9,245.6c-.5,0-1,0-1.5-.3s-.8-.5-1.1-.9l.9-.9c.2.2.4.4.7.6s.6.2,1,.2.6,0,.9-.2c.2-.1.4-.3.6-.5.1-.2.2-.5.2-.8s0-.6-.2-.8c-.1-.2-.3-.4-.6-.5-.3-.1-.6-.2-.9-.2s-.3,0-.4,0c-.1,0-.3,0-.4,0l.6-.8c.2,0,.3-.1.5-.2.2,0,.4,0,.5,0,.4,0,.8.1,1.1.3s.6.5.8.8c.2.4.3.8.3,1.3s-.1,1-.4,1.4c-.2.4-.6.7-1,.9-.4.2-1,.3-1.5.3ZM378.7,238.5v-1.2h5v.8l-1.1.4h-3.9ZM379.9,241.5v-.8l2.2-2.5h1.6s-2.3,2.6-2.3,2.6l-1.5.8Z"/>
        </g>
        <g class="cls-51">
          <g class="cls-47">
            <rect class="cls-43" x="395.5" y="326.8" width="494.4" height="776.9"/>
            <g>
              <rect class="cls-31" x="433.1" y="643.9" width="378" height="20.6"/>
              <line class="cls-25" x1="811.1" y1="643.9" x2="433.1" y2="643.9"/>
              <line class="cls-25" x1="811.1" y1="664.5" x2="433.1" y2="664.5"/>
              <line class="cls-25" x1="811.1" y1="681.6" x2="433.1" y2="681.6"/>
              <line class="cls-25" x1="811.1" y1="700.3" x2="433.1" y2="700.3"/>
              <line class="cls-25" x1="811.1" y1="718.9" x2="433.1" y2="718.9"/>
              <line class="cls-25" x1="811.1" y1="736.1" x2="433.1" y2="736.1"/>
              <line class="cls-25" x1="811.1" y1="754.9" x2="433.1" y2="754.9"/>
              <rect class="cls-36" x="432.8" y="589.5" width="378.4" height="35.2"/>
              <text class="cls-10" transform="translate(595.4 392.2)"><tspan x="0" y="0">請求書</tspan></text>
              <text class="cls-3" transform="translate(447.9 572.7)"><tspan x="0" y="0">請求金額</tspan></text>
              <text class="cls-14" transform="translate(623.3 609.2)"><tspan x="0" y="0" xml:space="preserve">数量                 単位                              単価                                    金額</tspan></text>
              <text class="cls-13" transform="translate(756.9 577)"><tspan x="0" y="0">¥97900</tspan></text>
              <text class="cls-33" transform="translate(719.7 639)"><tspan x="0" y="0">¥32000</tspan></text>
              <text class="cls-33" transform="translate(719.7 659.3)"><tspan x="0" y="0">¥25000</tspan></text>
              <text class="cls-34" transform="translate(787.9 639)"><tspan x="0" y="0">¥32000</tspan></text>
              <text class="cls-34" transform="translate(787.9 659.3)"><tspan x="0" y="0">¥25000</tspan></text>
              <text class="cls-18" transform="translate(763.4 427.2)"><tspan x="0" y="0">INV-2025-0002</tspan></text>
              <text class="cls-20" transform="translate(432 445.9)"><tspan x="0" y="0">株式会社ミライテック 御中</tspan></text>
              <text class="cls-28" transform="translate(611.5 402.9)"><tspan x="0" y="0">INVOICE</tspan></text>
              <line class="cls-26" x1="432.8" y1="406.5" x2="811.7" y2="406.5"/>
              <rect class="cls-30" x="432.8" y="422.3" width="20.6" height="3.3" rx="1.7" ry="1.7"/>
              <rect class="cls-30" x="432.8" y="471.5" width="20.6" height="3.3" rx="1.7" ry="1.7"/>
              <rect class="cls-30" x="432.8" y="483.2" width="64.5" height="3.3" rx="1.7" ry="1.7"/>
              <rect class="cls-30" x="455.9" y="471.5" width="18" height="3.3" rx="1.7" ry="1.7"/>
              <rect class="cls-30" x="652.3" y="422.3" width="10.3" height="3.3" rx="1.7" ry="1.7"/>
              <rect class="cls-30" x="652.3" y="437" width="19.6" height="3.3" rx="1.7" ry="1.7"/>
              <rect class="cls-30" x="652.3" y="471.5" width="20.6" height="3.3" rx="1.7" ry="1.7"/>
              <rect class="cls-30" x="790.5" y="471.5" width="20.6" height="3.3" rx="1.7" ry="1.7"/>
              <rect x="652.3" y="483.2" width="64.5" height="3.3" rx="1.7" ry="1.7"/>
              <rect x="652.3" y="496.3" width="32.2" height="3.3" rx="1.7" ry="1.7"/>
              <rect x="778.9" y="437" width="32.2" height="3.3" rx="1.7" ry="1.7"/>
              <rect class="cls-6" x="771.7" y="483.2" width="39.4" height="3.3" rx="1.7" ry="1.7"/>
              <rect x="652.3" y="507.5" width="42.4" height="3.3" rx="1.7" ry="1.7"/>
              <rect class="cls-30" x="778.9" y="496.3" width="32.2" height="3.3" rx="1.7" ry="1.7"/>
              <rect x="765.9" y="507.5" width="45.2" height="3.3" rx="1.7" ry="1.7"/>
              <rect x="737.2" y="507.5" width="25.5" height="3.3" rx="1.7" ry="1.7"/>
              <rect x="737.2" y="515.4" width="35" height="3.3" rx="1.7" ry="1.7"/>
              <rect x="775.1" y="515.4" width="14.1" height="3.3" rx="1.7" ry="1.7"/>
              <rect x="770.9" y="526.3" width="14.1" height="3.3" rx="1.7" ry="1.7"/>
              <rect x="788" y="526.3" width="23.2" height="3.3" rx="1.7" ry="1.7"/>
              <rect x="776" y="537.3" width="35.1" height="3.3" rx="1.7" ry="1.7"/>
              <rect x="754" y="537.3" width="20.3" height="3.3" rx="1.7" ry="1.7"/>
              <rect x="432.8" y="460.5" width="54.7" height="3.3" rx="1.7" ry="1.7"/>
              <rect x="491.6" y="460.5" width="20.8" height="3.3" rx="1.7" ry="1.7"/>
              <rect x="518.2" y="460.5" width="23.8" height="3.3" rx="1.7" ry="1.7"/>
              <rect x="547.5" y="460.5" width="9.4" height="3.3" rx="1.7" ry="1.7"/>
              <line class="cls-27" x1="811.7" y1="456.3" x2="654" y2="456.3"/>
              <path class="cls-50" d="M809.6,547.9v34h-375.3v-34h375.3M811.1,546.4h-378.4v37.1h378.4v-37.1h0Z"/>
              <rect class="cls-50" x="433.8" y="546.9" width="4" height="35.7"/>
              <text class="cls-14" transform="translate(463 609.2)"><tspan x="0" y="0">品目</tspan></text>
              <text class="cls-14" transform="translate(440.7 609.2)"><tspan x="0" y="0">NO</tspan></text>
              <text class="cls-29" transform="translate(443.3 638.9)"><tspan x="0" y="0">1</tspan></text>
              <text class="cls-29" transform="translate(443.3 659.1)"><tspan x="0" y="0">2</tspan></text>
              <text class="cls-29" transform="translate(628.2 638.9)"><tspan x="0" y="0">2</tspan></text>
              <text class="cls-29" transform="translate(628.2 659.1)"><tspan x="0" y="0">1</tspan></text>
              <line class="cls-25" x1="456.3" y1="589.5" x2="456.3" y2="773.7"/>
              <line class="cls-25" x1="607.5" y1="589.5" x2="607.5" y2="773.7"/>
              <line class="cls-25" x1="652.3" y1="589.5" x2="652.3" y2="773.7"/>
              <line class="cls-25" x1="686.7" y1="589.5" x2="686.7" y2="773.7"/>
              <line class="cls-25" x1="741.8" y1="589.5" x2="741.8" y2="773.7"/>
              <path class="cls-36" d="M809.6,591v181.1h-375.3v-181.1h375.3M811.1,589.5h-378.4v184.2h378.4v-184.2h0Z"/>
              <rect x="462.1" y="636.2" width="37.1" height="3.3" rx="1.7" ry="1.7"/>
              <rect x="503.6" y="636.2" width="21.2" height="3.3" rx="1.7" ry="1.7"/>
              <rect x="666.5" y="636.2" width="5.6" height="3.3" rx="1.7" ry="1.7"/>
              <rect x="666.5" y="655.6" width="5.6" height="3.3" rx="1.7" ry="1.7"/>
              <rect x="462.1" y="655.8" width="41.5" height="3.3" rx="1.7" ry="1.7"/>
              <rect x="506.5" y="655.8" width="25.7" height="3.3" rx="1.7" ry="1.7"/>
            </g>
          </g>
        </g>
        <rect class="cls-40" x="127.6" y="722.8" width="70.1" height="10.9" rx="5.4" ry="5.4"/>
        <rect class="cls-36" x="764.3" y="712.1" width="148.3" height="32.7" rx="4.4" ry="4.4"/>
        <g>
          <path class="cls-17" d="M787,729.6v2.5c0,.6-.5,1.1-1.1,1.1h-7.1c-.6,0-1.1-.5-1.1-1.1v-2.5"/>
          <polyline class="cls-17" points="779.6 727.1 782.3 729.8 784.9 727.1"/>
          <line class="cls-17" x1="782.3" y1="729.7" x2="782.3" y2="723.6"/>
          <g>
            <path class="cls-43" d="M790.9,732.3v-7.5h.8v7.5h-.8ZM791.4,729.3v-.7h2.2c.3,0,.6,0,.8-.2.2-.1.4-.3.6-.5s.2-.5.2-.8,0-.6-.2-.8-.3-.4-.6-.5c-.2-.1-.5-.2-.8-.2h-2.2v-.7h2.3c.4,0,.9,0,1.2.3.4.2.6.4.8.8.2.3.3.7.3,1.2s-.1.9-.3,1.2c-.2.3-.5.6-.8.8-.4.2-.8.3-1.2.3h-2.3Z"/>
            <path class="cls-43" d="M797.4,732.3v-7.5h.8v7.5h-.8ZM797.9,732.3v-.7h2.2c.6,0,1.1-.1,1.6-.4.4-.3.8-.6,1-1.1s.4-1,.4-1.6-.1-1.1-.4-1.5c-.3-.5-.6-.8-1.1-1.1-.5-.3-1-.4-1.5-.4h-2.2v-.7h2.2c.5,0,1,0,1.5.3s.9.4,1.2.8c.3.3.6.7.8,1.2s.3,1,.3,1.5,0,1-.3,1.5c-.2.5-.5.9-.8,1.2s-.7.6-1.2.8-1,.3-1.5.3h-2.2Z"/>
            <path class="cls-43" d="M805.5,732.3v-7.5h.8v7.5h-.8ZM806,725.5v-.7h4.2v.7h-4.2ZM806,728.9v-.7h4v.7h-4Z"/>
          </g>
        </g>
        <rect class="cls-43" x="819" y="724.6" width="76" height="7.7" rx="3.9" ry="3.9"/>
      </g>
      <rect class="cls-7" x="120.7" y="278.7" width="181.1" height="43.9" rx="4.9" ry="4.9"/>
      <rect class="cls-7" x="120.7" y="376.2" width="181.1" height="34.2" rx="4.9" ry="4.9"/>
      <line class="cls-11" x1="306.1" y1="342.4" x2="112" y2="342.4"/>
      <line class="cls-11" x1="306.1" y1="430.9" x2="112" y2="430.9"/>
      <rect class="cls-48" x="134.3" y="295.1" width="11.1" height="11.1"/>
      <rect class="cls-38" x="152.7" y="295.1" width="11.1" height="11.1"/>
      <rect class="cls-42" x="175" y="303.4" width="110.8" height="5.5" rx="2.8" ry="2.8"/>
      <text class="cls-23" transform="translate(176.1 298.6)"><tspan x="0" y="0">ティールブルー</tspan></text>
      <g>
        <g>
          <path class="cls-8" d="M130.1,359.3v2.1c0,.5-.4,1-1,1h-5.9c-.5,0-1-.4-1-1v-2.1"/>
          <polyline class="cls-8" points="128.4 357.6 126.2 355.3 124 357.6"/>
          <line class="cls-8" x1="126.2" y1="355.4" x2="126.2" y2="360.5"/>
        </g>
        <text class="cls-22" transform="translate(136.1 362)"><tspan x="0" y="0">カスタムカラー (上級者向け)</tspan></text>
        <text class="cls-22" transform="translate(120.7 448)"><tspan x="0" y="0">フォントサイズ調整</tspan></text>
      </g>
      <g>
        <g>
          <rect class="cls-42" x="118.7" y="462" width="45" height="5.8" rx="2.9" ry="2.9"/>
          <rect class="cls-36" x="281.1" y="462" width="16.3" height="5.8" rx="2.9" ry="2.9"/>
          <g>
            <rect class="cls-41" x="117.4" y="478.2" width="180" height="2.7" rx="1.4" ry="1.4"/>
            <circle class="cls-36" cx="133.4" cy="479.6" r="4.3"/>
            <rect class="cls-36" x="117.4" y="478.2" width="16" height="2.7" rx="1.4" ry="1.4"/>
          </g>
        </g>
        <g>
          <rect class="cls-42" x="118.7" y="495.3" width="77.3" height="5.8" rx="2.9" ry="2.9"/>
          <rect class="cls-36" x="281.1" y="495.3" width="16.3" height="5.8" rx="2.9" ry="2.9"/>
          <g>
            <rect class="cls-41" x="117.4" y="511.6" width="180" height="2.7" rx="1.4" ry="1.4"/>
            <circle class="cls-36" cx="162.6" cy="512.9" r="4.3"/>
            <rect class="cls-36" x="117.4" y="511.6" width="46.3" height="2.7" rx="1.4" ry="1.4"/>
          </g>
        </g>
        <g>
          <rect class="cls-42" x="118.7" y="528.6" width="72.4" height="5.8" rx="2.9" ry="2.9"/>
          <rect class="cls-36" x="281.1" y="528.6" width="16.3" height="5.8" rx="2.9" ry="2.9"/>
          <g>
            <rect class="cls-41" x="117.4" y="544.9" width="180" height="2.7" rx="1.4" ry="1.4"/>
            <circle class="cls-36" cx="226" cy="546.2" r="4.3"/>
            <rect class="cls-36" x="117.4" y="544.9" width="109.7" height="2.7" rx="1.4" ry="1.4"/>
          </g>
        </g>
        <g>
          <rect class="cls-42" x="118.7" y="562" width="24.6" height="5.8" rx="2.9" ry="2.9"/>
          <rect class="cls-36" x="281.1" y="562" width="16.3" height="5.8" rx="2.9" ry="2.9"/>
          <g>
            <rect class="cls-41" x="117.4" y="578.2" width="180" height="2.7" rx="1.4" ry="1.4"/>
            <circle class="cls-36" cx="138.9" cy="579.6" r="4.3"/>
            <rect class="cls-36" x="117.4" y="578.2" width="21.1" height="2.7" rx="1.4" ry="1.4"/>
          </g>
        </g>
        <g>
          <rect class="cls-5" x="117.4" y="603.7" width="88.1" height="21.4" rx="3.7" ry="3.7"/>
          <text class="cls-15" transform="translate(154.1 618.3)"><tspan x="0" y="0">戻る</tspan><tspan x="0" y="19.6"></tspan></text>
        </g>
        <g>
          <rect class="cls-49" x="210.2" y="603.7" width="88.1" height="21.4" rx="3.7" ry="3.7"/>
          <text class="cls-21" transform="translate(246.4 618.3)"><tspan x="0" y="0">完了</tspan></text>
        </g>
      </g>
    </g>
  </g>
</svg>