<?xml version="1.0" encoding="UTF-8"?>
<svg xmlns="http://www.w3.org/2000/svg" version="1.1" xmlns:xlink="http://www.w3.org/1999/xlink" viewBox="0 0 1000 880.7">
  <defs>
    <style>
      .cls-1 {
        font-size: 13.5px;
      }

      .cls-1, .cls-2, .cls-3, .cls-4, .cls-5, .cls-6, .cls-7, .cls-8, .cls-9, .cls-10, .cls-11, .cls-12, .cls-13, .cls-14, .cls-15, .cls-16, .cls-17, .cls-18, .cls-19, .cls-20, .cls-21, .cls-22, .cls-23, .cls-24, .cls-25, .cls-26, .cls-27, .cls-28, .cls-29, .cls-30, .cls-31, .cls-32, .cls-33 {
        stroke-linecap: round;
        stroke-linejoin: round;
      }

      .cls-1, .cls-3, .cls-5, .cls-6, .cls-8, .cls-9, .cls-13, .cls-19, .cls-30 {
        stroke: #000;
      }

      .cls-1, .cls-3, .cls-7, .cls-9, .cls-12, .cls-13, .cls-28, .cls-30 {
        font-family: KozGoPr6N-Regular-90ms-RKSJ-H, 'Kozuka Gothic Pr6N';
      }

      .cls-1, .cls-7, .cls-12, .cls-19 {
        stroke-width: .5px;
      }

      .cls-2 {
        stroke-width: 1.6px;
      }

      .cls-2, .cls-5, .cls-6, .cls-10, .cls-11, .cls-14, .cls-17, .cls-20, .cls-22, .cls-25, .cls-26, .cls-27, .cls-31, .cls-32, .cls-33 {
        fill: none;
      }

      .cls-2, .cls-18 {
        stroke: #ffddb3;
      }

      .cls-3 {
        font-size: 8.3px;
        stroke-width: .3px;
      }

      .cls-34, .cls-18, .cls-24 {
        fill: #fff4e6;
      }

      .cls-35 {
        fill: #fff5e5;
      }

      .cls-4 {
        stroke-width: 1px;
      }

      .cls-4, .cls-10, .cls-15, .cls-20, .cls-21 {
        stroke: #e5e7eb;
      }

      .cls-4, .cls-15, .cls-36 {
        fill: #fafafa;
      }

      .cls-5, .cls-17, .cls-26, .cls-27, .cls-32 {
        stroke-width: .6px;
      }

      .cls-37 {
        opacity: .1;
      }

      .cls-37, .cls-38 {
        fill: #6e6e73;
      }

      .cls-6, .cls-11 {
        stroke-width: .8px;
      }

      .cls-39 {
        fill: #c9c9c9;
      }

      .cls-40, .cls-7, .cls-12, .cls-21, .cls-41 {
        fill: #fff;
      }

      .cls-7 {
        font-size: 16px;
      }

      .cls-7, .cls-12, .cls-25, .cls-31, .cls-32 {
        stroke: #fff;
      }

      .cls-8 {
        stroke-width: .5px;
      }

      .cls-42 {
        fill: #858588;
      }

      .cls-9 {
        font-size: 13.5px;
        stroke-width: .5px;
      }

      .cls-10, .cls-22 {
        stroke-width: .9px;
      }

      .cls-11, .cls-16, .cls-28, .cls-41 {
        stroke: #e19c49;
      }

      .cls-12 {
        font-size: 9.9px;
      }

      .cls-13 {
        font-size: 7.2px;
      }

      .cls-13, .cls-28, .cls-30 {
        stroke-width: .3px;
      }

      .cls-14, .cls-17, .cls-23, .cls-24, .cls-29 {
        stroke: #f59e0b;
      }

      .cls-14, .cls-20, .cls-21, .cls-24 {
        stroke-width: 1px;
      }

      .cls-15 {
        stroke-width: 1px;
      }

      .cls-16 {
        font-family: HiraKakuProN-W3-90ms-RKSJ-H, 'Hiragino Kaku Gothic ProN';
        font-size: 8.1px;
        stroke-width: .1px;
      }

      .cls-16, .cls-43, .cls-28 {
        fill: #e19c49;
      }

      .cls-18 {
        stroke-width: .5px;
      }

      .cls-44 {
        fill: #10b981;
      }

      .cls-45 {
        fill: #333;
      }

      .cls-22 {
        stroke: #d1d1d1;
      }

      .cls-23 {
        stroke-width: .8px;
      }

      .cls-23, .cls-29 {
        fill: #ffddb3;
      }

      .cls-46 {
        fill: #f59e0b;
      }

      .cls-26 {
        stroke: #6e6e73;
      }

      .cls-27 {
        stroke: #10b981;
      }

      .cls-47 {
        fill: #e08e46;
      }

      .cls-28, .cls-30 {
        font-size: 14px;
      }

      .cls-48 {
        fill: #d1fae3;
      }

      .cls-29 {
        stroke-width: .6px;
      }

      .cls-49 {
        fill: #d1d1d1;
      }

      .cls-31 {
        stroke-width: .8px;
      }

      .cls-50 {
        fill: #e5e7eb;
      }

      .cls-33 {
        stroke: #c62f30;
        stroke-width: .8px;
      }

      .cls-41 {
        stroke-miterlimit: 10;
      }
    </style>
  </defs>
  <!-- Generator: Adobe Illustrator 28.7.1, SVG Export Plug-In . SVG Version: 1.2.0 Build 142)  -->
  <g>
    <g id="Layer_1">
      <g>
        <path class="cls-34" d="M63.6,672.9c139.5-106.4,236.4,52.2,242.4,126s-344.4-48.2-242.4-126Z"/>
        <path class="cls-34" d="M235.8,65.7c135.7,62.8,250.9,27.3,376.7-12.5s249.7-13.8,240.6,131.5-133.5,309-73.6,407.6,11.2,260-204.3,260-238.7-202.8-344.2-215.6S19.8,588.8,19.8,438.6,107.1,219,90.3,173.4c-16.8-45.7,11.4-169.8,145.5-107.7Z"/>
      </g>
      <g>
        <g>
          <g>
            <path class="cls-37" d="M822.3,118.9v537.3c0,16.1-11.2,29.2-25,29.2H102.7c-13.8,0-25-13.1-25-29.2V118.9c0-16.1,11.2-29.2,25-29.2h694.6c13.8,0,25,13.1,25,29.2Z"/>
            <path class="cls-40" d="M798.8,95.2v552.6c0,7.6-5.3,13.7-11.9,13.7H75c-6.6,0-11.9-6.1-11.9-13.7V95.2c0-7.6,5.3-13.7,11.9-13.7h711.9c6.6,0,11.9,6.1,11.9,13.7Z"/>
            <path class="cls-45" d="M798.8,95.2v32.6H63.1v-32.6c0-7.6,5.3-13.7,11.9-13.7h711.9c6.6,0,11.9,6.1,11.9,13.7Z"/>
            <path class="cls-43" d="M100.8,104.7c0,5-4,9.1-8.9,9.1s-8.9-4.1-8.9-9.1,4-9.1,8.9-9.1,8.9,4.1,8.9,9.1Z"/>
            <ellipse class="cls-43" cx="124.8" cy="104.7" rx="8.9" ry="9.1"/>
            <ellipse class="cls-43" cx="156.8" cy="104.7" rx="8.9" ry="9.1"/>
          </g>
          <image width="3232" height="1011" transform="translate(82.9 140.2) scale(0)" xlink:href="C:\Users\Hariyana\Downloads\sainta-core.png"/>
          <g>
            <text class="cls-9" transform="translate(713.5 161.4)"><tspan x="0" y="0" xml:space="preserve"> 山田 太郎</tspan></text>
            <g>
              <path class="cls-43" d="M689.1,140.6c4.2,0,8.1,1.6,11,4.6,3,3,4.6,6.9,4.6,11s-1.6,8.1-4.6,11c-2.9,3-6.9,4.6-11,4.6s-8.1-1.6-11-4.6c-2.9-2.9-4.6-6.9-4.6-11s1.6-8.1,4.6-11c3-2.9,6.9-4.6,11-4.6M689.1,139.1c-4.6,0-8.9,1.8-12.1,5-3.2,3.2-5,7.5-5,12.1s1.8,8.9,5,12.1c3.2,3.2,7.5,5,12.1,5s8.9-1.8,12.1-5c3.2-3.2,5-7.5,5-12.1s-1.8-8.9-5-12.1c-3.2-3.2-7.5-5-12.1-5h0Z"/>
              <path class="cls-43" d="M697,153.9c0-2.2-.6-4.2-1.9-6-.9-1.3-2.1-2.3-3.7-2.8-.8-.2-1.7-.3-2.5-.3-1.1,0-2.1.4-3,1-1.3.8-2.1,2-2.6,3.4-.2.7-.4,1.3-.5,2,0,.3,0,.7,0,1,0,.2.3.4.5.6,0,0,.1,0,0,.1-.3,1-.6,1.9-1.3,2.8-.4.5-.9,1-1.3,1.6-.3.4-.6.8-.8,1.2,0,.1,0,.2,0,.4,0,.5.2.8.7.8.8,0,1.4-.2,2.1-.6.9-.4,1.7-1,2.4-1.7.5-.4.9-.9,1.4-1.3.4-.4.8-.7,1.4-.8,0,0,.1,0,0-.1-.2-.6-.2-1.1-.2-1.7,0-.8.2-1.5.7-2.1.2-.2.2-.5,0-.8-.3-.7.3-1.5,1-1.5.4,0,.7.4.8.8,0,.6-.2,1-.7,1.2-1,.6-1.3,1.4-1.3,2.5,0,.5,0,1,.2,1.5,0,.1,0,.2.2.2,1.4,0,2.6-.6,3.5-1.6.2-.2.3-.4.4-.7,0,0,0,0,0,0,0,0,0,0,0,0,0,.3,0,.6,0,.9,0,1.4-.5,2.7-1.1,3.9-.9,2.1-2,4.1-3.3,6.1-1.2,1.9-2.5,3.7-3.8,5.6-.5.8-1.1,1.6-1.6,2.5,0,0,0,0,0,0,2,.9,4.2,1.3,6.4,1.3s2.5-.1,3.7-.4c.7-2.5,1.6-4.9,2.3-7.4.3-1.2.6-2.5.9-3.7.1-.8.3-1.6.4-2.4,0-.6.1-1.1.2-1.7.1-1.2.2-2.4.1-3.6Z"/>
            </g>
          </g>
          <g>
            <g>
              <g>
                <path class="cls-6" d="M98.5,201h-3.8c-.9,0-1.7.7-1.7,1.7h0c0,.9.7,1.7,1.7,1.7h2.6c.9,0,1.7.7,1.7,1.7v.4c0,.9-.7,1.7-1.7,1.7h-4.6"/>
                <line class="cls-6" x1="95.8" y1="198.8" x2="95.8" y2="210.1"/>
              </g>
              <g>
                <circle class="cls-6" cx="95.7" cy="260.3" r="1.9"/>
                <path class="cls-6" d="M99.8,267.6v-1.3c0-1.1-.9-2-2-2h-3.8c-1.1,0-2,.9-2,2v1.3"/>
              </g>
              <g>
                <circle class="cls-6" cx="94.3" cy="231.3" r="1.9"/>
                <path class="cls-6" d="M97.4,229.4c1.1,0,1.9.9,1.9,1.9s-.9,1.9-1.9,1.9"/>
                <path class="cls-6" d="M98.4,238.6v-1.3c0-1.1-.9-2-2-2h-3.8c-1.1,0-2,.9-2,2v1.3"/>
                <path class="cls-6" d="M101.5,238.6v-1.3c0-1.1-.9-2-2-2"/>
              </g>
              <g>
                <polyline class="cls-6" points="90.5 295.4 94.1 291.9 96.5 294.3 101 289.8"/>
                <polyline class="cls-6" points="98.4 289.6 101.2 289.6 101.2 292.8"/>
              </g>
              <g>
                <path class="cls-6" d="M99.9,349.2v6.2c0,.4-.3.8-.8.8h-6.6c-.4,0-.8-.3-.8-.8v-8.5c0-.4.3-.7.8-.7h4.3l3,3.1Z"/>
                <path class="cls-6" d="M99.9,349.2h-2.7c-.2,0-.3-.1-.3-.3v-2.8l3,3.1Z"/>
                <line class="cls-6" x1="93.6" y1="349.6" x2="95.1" y2="349.6"/>
                <line class="cls-6" x1="93.6" y1="351.6" x2="98.1" y2="351.6"/>
                <line class="cls-6" x1="93.6" y1="353.6" x2="98.1" y2="353.6"/>
              </g>
              <g>
                <circle cx="94.3" cy="385" r=".9"/>
                <g>
                  <path class="cls-6" d="M90.3,375h2.1l1.4,6.7c0,.4.5.8.9.8h4.7c.4,0,.8-.3.9-.7l1.1-4.4h-8.6"/>
                  <circle cx="99.8" cy="385" r=".9"/>
                </g>
              </g>
              <g>
                <circle class="cls-6" cx="95.9" cy="408.6" r="5"/>
                <polyline class="cls-6" points="95.9 405.4 95.9 408.6 97.8 409.5"/>
              </g>
              <g>
                <rect class="cls-35" x="80.7" y="308.1" width="109.7" height="27.1" rx="4" ry="4"/>
                <g>
                  <polygon class="cls-11" points="91.7 319.2 95.8 316.7 100.2 319.2 95.9 321.7 91.7 319.2"/>
                  <polygon class="cls-11" points="91.7 319.2 91.7 324.2 95.9 326.8 95.9 321.7 91.7 319.2"/>
                  <polygon class="cls-11" points="100.2 319.2 100.2 324.2 95.9 326.8 95.9 321.7 100.2 319.2"/>
                  <line class="cls-11" x1="93.7" y1="317.9" x2="98" y2="320.5"/>
                </g>
                <text class="cls-16" transform="translate(110.6 324.9)"><tspan x="0" y="0">在庫・製品管理</tspan></text>
              </g>
            </g>
            <rect class="cls-39" x="112" y="202.8" width="32.5" height="8" rx="4" ry="4"/>
            <rect class="cls-39" x="112" y="231.2" width="32.5" height="8" rx="4" ry="4"/>
            <rect class="cls-39" x="112" y="289.7" width="32.5" height="8" rx="4" ry="4"/>
            <rect class="cls-39" x="112" y="347.6" width="40" height="8" rx="4" ry="4"/>
            <rect class="cls-39" x="112" y="374.8" width="40" height="8" rx="4" ry="4"/>
            <rect class="cls-39" x="112" y="404.6" width="31" height="8" rx="4" ry="4"/>
            <rect class="cls-39" x="112" y="260.4" width="40.6" height="8" rx="4" ry="4"/>
          </g>
          <line class="cls-20" x1="63.1" y1="184.7" x2="798.8" y2="184.7"/>
          <line class="cls-20" x1="199.3" y1="184.7" x2="199.3" y2="661.5"/>
          <line class="cls-20" x1="199.5" y1="277" x2="799" y2="277"/>
        </g>
        <g>
          <g>
            <g>
              <path class="cls-8" d="M228.7,206.5c1.1,0,1.8,0,2.3-.1v1.5c-.6,0-1.3-.1-2.3-.1h-9.1c-.8,1.6-1.8,3.2-2.9,4.5v8c0,.9,0,1.6.1,2.2h-1.6c0-.5.1-1.2.1-2.2v-6.4c-.9,1.1-1.3,1.4-2.4,2.3-.3-.4-.5-.7-1-1.1,1.5-1.1,2.3-1.9,3.4-3.2,0-.7,0-.9-.1-1.3h1.2c.7-1,1.2-1.9,1.7-2.9h-3.3c-1.1,0-1.7,0-2.3.1v-1.5c.5,0,1.2.1,2.3.1h3.9c.6-1.3.9-2.3,1.1-3.2l1.6.3c-.1.2-.2.4-.4.9-.2.5-.7,1.6-.8,1.9h8.5ZM228,213.1c1,0,1.5,0,2-.1v1.4c-.6,0-1.1,0-2,0h-3.3v6h4.2c1,0,1.6,0,2.1-.1v1.5c-.8,0-1.4-.1-2.1-.1h-9.1c-.8,0-1.5,0-2.1.1v-1.5c.6,0,1.3.1,2.1.1h3.6v-6h-2.8c-.9,0-1.5,0-2,0v-1.4c.5,0,1,.1,2,.1h2.8v-1.8c0-1.1,0-1.7-.1-2.2h1.6c0,.5-.1,1.1-.1,2.3v1.8h3.3Z"/>
              <path class="cls-8" d="M242.5,204.7c0-.6,0-1-.1-1.4h1.6c0,.3-.1.7-.1,1.4v.5h6c.9,0,1.6,0,2.2-.1v1.3c-.5,0-1.1-.1-2.1-.1h-13.8c0,6.4-.1,9-.5,11.3-.3,1.8-.8,3.1-1.7,4.6-.4-.5-.6-.7-1.1-1,.9-1.5,1.3-2.7,1.6-4.5.3-1.9.4-5.1.4-9.7s0-.3,0-.3c0-.4,0-1.1,0-1.6.7,0,1.3.1,2.3.1h5.5v-.5ZM238.8,209.1c-.9,0-1.3,0-1.8.1v-1.3c.5,0,1,.1,1.8.1h4.6c0-.5,0-.8-.1-1.2h1.4c0,.4,0,.6,0,1.2h5.2c.8,0,1.2,0,1.8-.1v1.3c-.5,0-1.1-.1-1.8-.1h-5.2v1.6h4c.9,0,1.4,0,2,0,0,.5,0,.8,0,1.7v3.1c0,1,0,1.3,0,1.7-.6,0-1.1,0-2,0h-4v1.7h5.5c1,0,1.6,0,2.1-.1v1.4c-.7,0-1.3-.1-2.2-.1h-5.4v.7c0,1,0,1.6.1,2.1h-1.5c0-.5.1-1.1.1-2.1v-.6h-5.2c-.8,0-1.5,0-2,.1v-1.3c.5,0,1.1.1,1.9.1h5.2v-1.7h-3.7c-.9,0-1.4,0-2,0,0-.5,0-.9,0-1.8v-3.1c0-.9,0-1.2,0-1.7.5,0,1.1,0,2,0h3.7v-1.6h-4.6ZM239,211.8v1.6h4.4v-1.6h-4.4ZM239,214.3v1.7h4.4v-1.7h-4.4ZM244.6,213.3h4.6v-1.6h-4.6v1.6ZM244.6,216.1h4.6v-1.7h-4.6v1.7Z"/>
              <path class="cls-8" d="M260.3,213c0,.9-.8,1.7-1.7,1.7s-1.7-.8-1.7-1.7.8-1.7,1.7-1.7,1.7.8,1.7,1.7Z"/>
              <path class="cls-8" d="M274,216.2c-.6.6-1.5,1.3-2.4,1.7v2.8c2-.4,2.8-.5,4.6-1v1.1c-2.7.7-3.9.9-7.5,1.6-.4,0-.6.1-1.1.2l-.3-1.3c.7,0,1.3,0,3-.3v-2.3c-1.3.7-2.8,1.2-4.9,1.7-.2-.5-.3-.7-.7-1.1,3.2-.6,5.7-1.6,7.7-3.1h-5.2c-1.2,0-1.7,0-2.3.1v-1.3c.7,0,1.3.1,2.3.1h6.7v-.4c0-.3,0-.7,0-1h1.4c0,.3,0,.7,0,1v.4h6.3c1,0,1.7,0,2.3-.1v1.3c-.6,0-1.1-.1-2.3-.1h-6c.5,1,1.1,1.6,2.2,2.4,1.3-.7,2.1-1.3,2.8-2.1l1.1.7c-1.2,1-1.7,1.3-2.9,2,1.6.9,3.2,1.5,5.3,2-.3.4-.5.6-.8,1.2-2.9-.9-4.8-1.9-6.4-3.1-1.3-1-1.9-1.8-2.5-3.1h-.2ZM267.1,206.1c-.4.5-.5.7-1,1.2-.4-.3-.5-.4-1-.6,1-1,1.5-1.7,1.9-3.1l1.2.4c-.3.6-.3.8-.5,1.1h2.1c0-.8,0-1.1-.1-1.6h1.4c0,.5-.1.8-.1,1.6h2.4c.9,0,1.3,0,1.8-.1v1.2c-.5,0-1,0-1.8,0h-2.4v1.4h2.6c1,0,1.3,0,1.9-.1v1.2c-.5,0-1.1,0-1.8,0h-2.7v1.3h2c1,0,1.4,0,1.8,0,0,.4,0,.6,0,1.1v1.7c0,.9-.4,1.2-1.5,1.2s-.8,0-1.2,0c0-.3,0-.6-.2-1,.5.1,1.1.2,1.4.2s.5-.1.5-.4v-1.6h-2.7v1.9c0,.7,0,1.2,0,1.6h-1.3c0-.5,0-.9,0-1.6v-1.9h-2.5v1.8c0,.7,0,1,0,1.3h-1.3c0-.5,0-.8,0-1.4v-1.5c0-.5,0-.9,0-1.3.4,0,1,0,1.6,0h2.1v-1.3h-2.7c-.7,0-1.2,0-1.7.1v-1.2c.5,0,.9,0,1.6,0h2.9v-1.4h-2.7ZM276.6,211.3c0-.5.1-.9.1-1.5v-3.7c0-.6,0-1-.1-1.5h1.5c0,.4-.1.8-.1,1.5v3.7c0,.6,0,.9.1,1.5h-1.5ZM282.3,212.2c0,1.2-.5,1.6-2,1.6s-1.4,0-2.1-.1c0-.5-.2-.9-.3-1.3.9.2,1.7.3,2.3.3.8,0,.9,0,.9-.6v-6.5c0-.8,0-1.3-.1-1.8h1.5c-.1.6-.1,1-.1,1.9v6.6Z"/>
              <path class="cls-8" d="M286.6,215.3c0-.8,0-1.4,0-2,.6,0,1.1,0,1.9,0h4c.7,0,1.2,0,1.7,0,0,.4,0,.8,0,2v4.9c0,1,0,1.6,0,2.1h-1.4v-.9h-4.9v1.3h-1.4c0-.5.1-1.1.1-2.2v-5.1ZM287.9,220.1h4.9v-5.6h-4.9v5.6ZM289.6,205.9c0-.7,0-1.2,0-1.8.7,0,1.2.1,2.4.1h6.9c1.2,0,1.8,0,2.4-.1,0,.5,0,1,0,1.7v3.6c0,.8,0,1.3,0,1.9-.6,0-1.2,0-2.2,0h-7.2c-1,0-1.7,0-2.2,0,0-.6,0-1.1,0-1.8v-3.6ZM291,210h8.8v-4.6h-8.8v4.6ZM296.2,215.1c0-1,0-1.3,0-1.8.5,0,1,0,1.7,0h4.6c.8,0,1.3,0,1.8,0,0,.5,0,1.2,0,2.1v5.1c0,1.1,0,1.7.1,2.2h-1.4v-1.3h-5.4v1.3h-1.4c0-.5,0-1.1,0-2.1v-5.4ZM297.4,220.1h5.4v-5.6h-5.4v5.6Z"/>
              <path class="cls-8" d="M310.1,206.2c-.7.8-1.2,1.4-2,2.1-.4-.4-.4-.5-1.1-.8,1.6-1.2,2.7-2.5,3.4-4.2l1.3.4c-.4.7-.5.9-.9,1.5h3.5c.9,0,1.3,0,1.8-.1v1.3c-.6,0-.7,0-1.6,0h-1.6c.4.7.6,1.1.9,1.8l-1.2.5c-.3-.9-.6-1.5-1-2.3h-1.6ZM316.9,207.4c-.4-.3-.5-.4-.8-.5,1.3-1.1,1.8-2,2.3-3.6l1.3.3c-.3.6-.4.9-.7,1.5h5c.9,0,1.3,0,1.8-.1v1.3c-.5,0-1-.1-1.8-.1h-2.8c.4.6.7,1.1,1,1.7l-1.2.5c-.4-1-.6-1.4-1.1-2.3h-1.7c-.3.5-.4.6-1.2,1.4,0,0,0,0-.2-.1,0,.4,0,.5,0,1.1v.4h6.3c1,0,1.5,0,2.1,0,0,.4,0,.7,0,1.3v1.1c0,.6,0,1,0,1.4h-1.3v-2.6h-14.8v2.6h-1.3c0-.4,0-.8,0-1.4v-1.1c0-.6,0-.9,0-1.3.6,0,1.1,0,2.1,0h5.7v-.4c0-.5,0-.7,0-1.2h1.4ZM310.5,222.5c0-.7.1-1.3.1-2.1v-7.6c0-.7,0-1,0-1.5.7,0,1.2.1,2.1.1h7.5c.9,0,1.5,0,2.1-.1,0,.4,0,.8,0,1.5v1.2c0,.7,0,1.2,0,1.6-.6,0-1.2,0-2.1,0h-8.3v1.5h9.2c.9,0,1.4,0,1.9,0,0,.5-.1,1.1-.1,1.9v1.7c0,.8,0,1.3.1,2h-1.4v-1.1h-9.7v1.1h-1.4ZM311.9,214.5h9v-2h-9v2ZM311.9,220.4h9.7v-2.2h-9.7v2.2Z"/>
              <path class="cls-8" d="M329.6,205.8c-.8,0-1.1,0-1.7.1v-1.4c.5.1.9.1,1.8.1h3.2c.8,0,1.2,0,1.7-.1v1.4c-.5,0-.9,0-1.6,0h-1v4.9h.8c.6,0,.9,0,1.4-.1v1.3c-.5,0-.9,0-1.4,0h-.8v5.3c1-.4,1.4-.6,2.5-1.2v1.3c-2,1-2.4,1.2-5.4,2.4-.5.2-.6.2-.8.4l-.4-1.5c.8-.2,1.5-.4,2.9-.9v-5.9h-1.1c-.6,0-.9,0-1.4.1v-1.3c.5,0,.8.1,1.4.1h1.1v-4.9h-1.1ZM337.9,213.9c-1.3,0-2,0-2.6,0,0-.4,0-.6,0-.8q0-.5,0-1.7v-4.5c0-1.3,0-2-.1-2.7.6,0,1.3.1,2.7.1h5.5c1.5,0,2.1,0,2.7-.1,0,.6,0,1.4,0,2.7v4.2c0,1.4,0,2.1,0,2.7-.8,0-1.3,0-2.5,0h-2.4v2.4h3.1c1,0,1.5,0,2.1-.1v1.4c-.6,0-1.1-.1-2.1-.1h-3.1v3.1h3.9c1,0,1.5,0,2.1-.1v1.4c-.6,0-1.1-.1-2.1-.1h-9.4c-1,0-1.5,0-2.1.1v-1.4c.5,0,1,.1,2,.1h4.4v-3.1h-2.8c-1,0-1.5,0-2,.1v-1.4c.5,0,1,.1,2,.1h2.8v-2.4h-2.1ZM336.6,205.6v3h3.4v-3h-3.4ZM336.6,209.7v3h3.4v-3h-3.4ZM341.3,208.6h3.6v-3h-3.6v3ZM341.3,212.7h3.6v-3h-3.6v3Z"/>
            </g>
            <g>
              <rect class="cls-18" x="382.5" y="203" width="91.5" height="20.8" rx="4.1" ry="4.1"/>
              <rect class="cls-43" x="384.1" y="204.8" width="56.3" height="17.3" rx="2.9" ry="2.9"/>
              <rect class="cls-43" x="482.6" y="204.8" width="24.7" height="17.3" rx="8.7" ry="8.7"/>
              <rect class="cls-40" x="393.3" y="211.4" width="38" height="4" rx="2" ry="2"/>
              <rect class="cls-40" x="488.3" y="211.4" width="11.4" height="4" rx="2" ry="2"/>
              <rect class="cls-43" x="445.8" y="211.4" width="23" height="4" rx="1.5" ry="1.5"/>
            </g>
          </g>
          <g>
            <g>
              <rect class="cls-20" x="591.9" y="205.7" width="93.1" height="19.7" rx="2.9" ry="2.9"/>
              <g>
                <path class="cls-26" d="M601.9,212.4h2.5c0,0,.2,0,.2,0l3,3c.1.1.1.3,0,.5l-2.5,2.5c-.1.1-.3.1-.5,0l-3-3c0,0,0-.2,0-.2v-2.5c0-.2.2-.3.3-.3Z"/>
                <circle class="cls-26" cx="603.1" cy="213.9" r=".3"/>
              </g>
              <rect class="cls-38" x="612.5" y="213.3" width="27" height="4.5" rx="1.7" ry="1.7"/>
              <rect class="cls-38" x="648" y="213.3" width="28.8" height="4.5" rx="1.7" ry="1.7"/>
              <circle class="cls-38" cx="643.9" cy="215.7" r="1.1"/>
            </g>
            <g>
              <rect class="cls-20" x="691.5" y="205.7" width="20.4" height="19.7" rx="2.9" ry="2.9"/>
              <path class="cls-26" d="M705.1,216.2v1.7c0,.4-.3.8-.8.8h-4.7c-.4,0-.8-.3-.8-.8v-1.7"/>
              <polyline class="cls-26" points="700.2 214.6 702 216.3 703.7 214.6"/>
              <line class="cls-26" x1="702" y1="216.3" x2="702" y2="212.3"/>
            </g>
            <g>
              <rect class="cls-43" x="718.3" y="205.7" width="59.2" height="19.7" rx="2.9" ry="2.9"/>
              <g>
                <line class="cls-32" x1="730.7" y1="213.1" x2="730.7" y2="217.8"/>
                <line class="cls-32" x1="733" y1="215.5" x2="728.3" y2="215.5"/>
              </g>
              <rect class="cls-40" x="739.9" y="213.1" width="27.8" height="4.8" rx="1.8" ry="1.8"/>
            </g>
            <g>
              <rect class="cls-20" x="701.7" y="233.7" width="75.9" height="19.7" rx="2.9" ry="2.9"/>
              <rect x="711.9" y="241.2" width="19.9" height="5.3" rx="2.1" ry="2.1"/>
              <polyline class="cls-5" points="764.7 242.5 766.8 244.6 769.2 242.3"/>
            </g>
            <g>
              <rect class="cls-20" x="625.9" y="233.7" width="70.5" height="19.7" rx="2.9" ry="2.9"/>
              <rect x="635.1" y="241.2" width="33.5" height="5.3" rx="2.1" ry="2.1"/>
              <polygon class="cls-5" points="689.8 239.9 686.4 243.3 686.4 247.4 684.5 246.2 684.5 243.4 681.1 240 689.8 239.9"/>
            </g>
            <g>
              <rect class="cls-20" x="548.9" y="233.7" width="70.5" height="19.7" rx="2.9" ry="2.9"/>
              <rect class="cls-38" x="569.9" y="241.2" width="21.7" height="5.3" rx="2.1" ry="2.1"/>
              <circle class="cls-26" cx="558.8" cy="243.2" r="3"/>
              <line class="cls-26" x1="560.9" y1="245.4" x2="562.5" y2="246.9"/>
            </g>
          </g>
        </g>
        <g>
          <g>
            <g>
              <rect class="cls-37" x="418.5" y="296.9" width="518.4" height="502.3" rx="25.8" ry="25.8"/>
              <rect class="cls-15" x="400" y="277" width="518.4" height="502.3" rx="14.3" ry="14.3"/>
            </g>
            <g>
              <g>
                <rect class="cls-36" x="417.5" y="299.3" width="61.2" height="58.3" rx="7.1" ry="7.1"/>
                <path class="cls-50" d="M478.7,349.2v1.5c0,3.9-3.2,7.1-7.1,7.1h-47.1c-3.9,0-7-3.2-7-7.1v-16.3l11.2-14.1c1.7-2.2,5.1-2.1,6.6.2l15.3,22,6.9-8.7c1.7-2.2,5-2.3,6.9-.2l14.3,15.6Z"/>
                <path class="cls-50" d="M451.2,324.9c3,0,5.5-2.4,5.5-5.4,0-3-2.5-5.4-5.5-5.4-3,0-5.5,2.4-5.5,5.4,0,3,2.5,5.4,5.5,5.4Z"/>
                <rect class="cls-2" x="417.5" y="299.3" width="61.2" height="58.3" rx="7.1" ry="7.1"/>
              </g>
              <text class="cls-1" transform="translate(487.3 324)"><tspan x="0" y="0">アルミ脚フレーム</tspan></text>
              <g>
                <g>
                  <rect class="cls-48" x="619.7" y="333.4" width="53.8" height="19.2" rx="9.6" ry="9.6"/>
                  <rect class="cls-44" x="638.2" y="340.8" width="27.5" height="4.3" rx="2" ry="2"/>
                </g>
                <g>
                  <path class="cls-27" d="M633.4,343c0,1.9-1.6,3.5-3.5,3.5s-3.5-1.6-3.5-3.5,1.6-3.5,3.5-3.5"/>
                  <polyline class="cls-27" points="628.7 342.1 629.9 343.4 633.1 340.2"/>
                </g>
              </g>
              <g>
                <g>
                  <rect class="cls-23" x="573.9" y="333.4" width="39.3" height="19.2" rx="9.6" ry="9.6"/>
                  <rect class="cls-46" x="591" y="340.8" width="14.9" height="4.3" rx="2.2" ry="2.2"/>
                </g>
                <g>
                  <path class="cls-17" d="M581.6,339.6h2.4c0,0,.2,0,.2,0l2.9,2.9c.1.1.1.3,0,.5l-2.4,2.4c-.1.1-.3.1-.5,0l-2.9-2.9c0,0,0-.1,0-.2v-2.4c0-.2.1-.3.3-.3Z"/>
                  <circle class="cls-17" cx="582.8" cy="341.1" r=".3"/>
                </g>
              </g>
              <rect class="cls-42" x="489.5" y="339.5" width="76.7" height="7" rx="3.5" ry="3.5"/>
            </g>
            <rect class="cls-4" x="400.1" y="367.1" width="518.4" height="41.1"/>
            <g>
              <g>
                <rect class="cls-43" x="807.2" y="299.3" width="64.1" height="30.7" rx="4.1" ry="4.1"/>
                <rect class="cls-40" x="835.5" y="311.2" width="24.1" height="7" rx="3.5" ry="3.5"/>
                <g>
                  <path class="cls-31" d="M827,309.4l-4.6,4.6v1.8h1.7l4.7-4.7c.5-.5.5-1.3,0-1.8h0c-.5-.5-1.3-.5-1.8,0Z"/>
                  <path class="cls-31" d="M827.7,314.2v4c0,.5-.4.9-.9.9h-6.9c-.5,0-.9-.4-.9-.9v-6.9c0-.5.4-.9.9-.9h4"/>
                </g>
              </g>
              <g>
                <line class="cls-33" x1="887" y1="310.6" x2="896.4" y2="310.6"/>
                <path class="cls-33" d="M892.8,308.8h-1.9c-.6,0-1,.2-1,.5v1.3h4v-1.3c0-.3-.5-.5-1-.5Z"/>
                <path class="cls-33" d="M888.3,310.6h7v7c0,.6-.5,1.1-1.1,1.1h-4.7c-.6,0-1.1-.5-1.1-1.1v-7h0Z"/>
                <line class="cls-33" x1="890.8" y1="312.8" x2="890.8" y2="316.1"/>
                <line class="cls-33" x1="892.7" y1="312.8" x2="892.7" y2="316.1"/>
              </g>
            </g>
          </g>
          <g>
            <rect class="cls-43" x="429.4" y="382.2" width="26.1" height="12.1" rx="3.2" ry="3.2"/>
            <rect class="cls-45" x="489.4" y="382.2" width="51.7" height="12.1" rx="3.2" ry="3.2"/>
            <rect class="cls-45" x="575.2" y="382.2" width="25.9" height="12.1" rx="3.2" ry="3.2"/>
            <rect class="cls-45" x="633.5" y="382.2" width="25.9" height="12.1" rx="3.2" ry="3.2"/>
            <path class="cls-14" d="M414.7,403.5c0,2.3,1.9,4.3,4.3,4.3h46.2c2.3,0,4.3-1.9,4.3-4.3"/>
          </g>
          <g>
            <g>
              <rect class="cls-47" x="657" y="420.8" width="245.1" height="35.6" rx="3.7" ry="3.7"/>
              <g>
                <g>
                  <line class="cls-25" x1="746.6" y1="434.7" x2="757.8" y2="434.7"/>
                  <path class="cls-25" d="M753.5,432.5h-2.3c-.7,0-1.2.3-1.2.6v1.6h4.7v-1.6c0-.3-.5-.6-1.2-.6Z"/>
                  <path class="cls-25" d="M748.2,434.7h8.3v8.6c0,.6-.5,1.1-1.1,1.1h-6c-.6,0-1.1-.5-1.1-1.1v-8.6h0Z"/>
                  <line class="cls-25" x1="751.2" y1="437.4" x2="751.2" y2="441.3"/>
                  <line class="cls-25" x1="753.4" y1="437.4" x2="753.4" y2="441.3"/>
                </g>
                <text class="cls-7" transform="translate(763.1 444.4)"><tspan x="0" y="0">出庫</tspan></text>
                <text class="cls-7" transform="translate(801.2 443.4)"><tspan x="0" y="0">-</tspan></text>
              </g>
            </g>
            <g>
              <rect class="cls-44" x="406.9" y="420.8" width="245.1" height="35.6" rx="3.7" ry="3.7"/>
              <g>
                <text class="cls-7" transform="translate(518 444.4)"><tspan x="0" y="0">入庫</tspan></text>
                <text class="cls-12" transform="translate(557 441.8)"><tspan x="0" y="0">+</tspan></text>
                <text class="cls-7" transform="translate(498.8 443.4)"><tspan x="0" y="0">+</tspan></text>
              </g>
            </g>
          </g>
          <g>
            <g>
              <rect class="cls-21" x="406.9" y="474.3" width="495.2" height="173.5" rx="6.9" ry="6.9"/>
              <rect class="cls-38" x="640.6" y="498.5" width="28.6" height="6.7" rx="3.4" ry="3.4"/>
              <rect class="cls-38" x="421.4" y="600.1" width="28.6" height="6.7" rx="3.4" ry="3.4"/>
              <rect class="cls-38" x="877.4" y="600.1" width="10.7" height="6.7" rx="3.4" ry="3.4"/>
              <rect class="cls-43" x="877.4" y="618.4" width="10.7" height="6.7" rx="3.4" ry="3.4"/>
              <rect class="cls-38" x="421.4" y="618.9" width="38.6" height="6.7" rx="3.4" ry="3.4"/>
              <rect class="cls-38" x="648.6" y="563.2" width="12.6" height="6.7" rx="3.4" ry="3.4"/>
              <g>
                <path class="cls-19" d="M634.9,547.5l10.1-10.4c.6-.6,1.1-1.2,1.5-1.7.4-.5.7-1,.8-1.4.2-.5.2-.9.2-1.4,0-1-.3-1.8-1-2.4-.7-.6-1.5-.9-2.5-.9s-2,.3-2.8.8c-.8.6-1.6,1.5-2.4,2.7l-3.9-3.4c1.1-1.8,2.4-3.1,4-4,1.6-.9,3.4-1.3,5.5-1.3s3.4.3,4.7,1c1.3.7,2.4,1.6,3.1,2.9.7,1.2,1.1,2.7,1.1,4.3s-.1,2-.4,2.9c-.3.9-.7,1.7-1.3,2.6-.6.8-1.4,1.8-2.4,2.8l-7,6.9h-7.2ZM634.9,550.8v-3.3l4.9-1.7h13.9v5h-18.9Z"/>
                <path class="cls-19" d="M664.4,551.2c-1.8,0-3.5-.3-5.1-.9-1.6-.6-2.9-1.5-3.9-2.7l3.8-3.8c.5.7,1.2,1.2,2.1,1.7.9.4,1.9.6,2.9.6s1.7-.2,2.4-.5c.7-.3,1.2-.8,1.6-1.4.4-.6.6-1.3.6-2.2s-.2-1.6-.6-2.2c-.4-.6-.9-1.1-1.7-1.4s-1.5-.5-2.4-.5-1.7.1-2.4.4c-.7.2-1.4.6-2,1.1l.4-3.7c.6-.4,1.1-.8,1.6-1.1.5-.3,1.1-.5,1.7-.6.6-.1,1.3-.2,2.2-.2,1.9,0,3.6.4,4.9,1.2,1.3.8,2.3,1.8,3,3.2.7,1.3,1,2.8,1,4.3s-.4,3.3-1.3,4.6c-.9,1.3-2,2.4-3.6,3.2-1.5.8-3.3,1.2-5.4,1.2ZM659.8,539.3l-2.6-2.4,1.3-12.2h5.3l-1.3,12.2-2.6,2.5ZM659.3,529.6l-.8-5h14.8v5h-13.9Z"/>
              </g>
              <line class="cls-20" x1="418.5" y1="586.5" x2="889.3" y2="586.5"/>
            </g>
            <g>
              <g>
                <rect class="cls-21" x="406.9" y="665.9" width="159.8" height="64.7" rx="6.9" ry="6.9"/>
                <rect class="cls-21" x="573.9" y="665.9" width="159.8" height="64.7" rx="6.9" ry="6.9"/>
                <rect class="cls-21" x="744.1" y="665.9" width="159.8" height="64.7" rx="6.9" ry="6.9"/>
              </g>
              <g>
                <g>
                  <path class="cls-14" d="M426.2,678.2c0,2.8-5.1,8.5-5.1,8.5,0,0-5.1-5.7-5.1-8.5s2.3-5.1,5.1-5.1,5.1,2.3,5.1,5.1Z"/>
                  <circle class="cls-14" cx="421" cy="678.2" r="1.5"/>
                </g>
                <rect class="cls-38" x="429.8" y="676.3" width="21.5" height="6.6" rx="3.3" ry="3.3"/>
              </g>
              <g>
                <rect class="cls-38" x="597.6" y="676.3" width="21.5" height="6.6" rx="3.3" ry="3.3"/>
                <g>
                  <path class="cls-14" d="M591.9,675.2h-4.4c-1.1,0-2,.9-2,2h0c0,1.1.9,2,2,2h3c1.1,0,2,.9,2,2v.5c0,1.1-.9,2-2,2h-5.4"/>
                  <line class="cls-14" x1="588.8" y1="672.6" x2="588.8" y2="686"/>
                </g>
              </g>
              <g>
                <rect class="cls-38" x="765.9" y="676.3" width="26.3" height="6.6" rx="3.3" ry="3.3"/>
                <g>
                  <polyline class="cls-14" points="751.6 682.5 755.2 679 757.6 681.4 762.1 676.9"/>
                  <polyline class="cls-14" points="759.5 676.7 762.3 676.7 762.3 679.9"/>
                </g>
              </g>
              <text class="cls-30" transform="translate(457.4 705.5)"><tspan x="0" y="0">倉庫B-11</tspan></text>
              <text class="cls-28" transform="translate(627.5 705.5)"><tspan x="0" y="0">¥72,000</tspan></text>
              <text class="cls-28" transform="translate(800.7 705.5)"><tspan x="0" y="0">200%</tspan></text>
            </g>
            <rect class="cls-38" x="636.1" y="750.6" width="39.6" height="9.6" rx="4.8" ry="4.8"/>
            <g>
              <circle class="cls-37" cx="903.9" cy="738.7" r="18.4"/>
              <circle class="cls-41" cx="902.1" cy="735.7" r="16.7"/>
              <circle class="cls-41" cx="902.1" cy="735.7" r="9.9" transform="translate(-202.9 1101.8) rotate(-57.5)"/>
              <path class="cls-43" d="M901.2,738.2v-2.8s.4,0,.4,0c.4,0,.7,0,.9-.2.3-.1.5-.3.6-.6s.2-.5.2-.9,0-.6-.2-.9c-.1-.2-.3-.4-.6-.6-.3-.1-.6-.2-.9-.2s-.9.1-1.2.4c-.3.2-.6.6-.8,1l-1-.8c.3-.6.7-1,1.2-1.4.5-.3,1.2-.5,1.9-.5s1.1.1,1.6.4.8.6,1.1,1c.3.4.4.9.4,1.5s-.1,1-.3,1.4c-.2.4-.6.8-1,1-.4.3-.9.5-1.5.5l.6-.6v2.2h-1.3ZM901.8,741.6c-.3,0-.5,0-.7-.3-.2-.2-.3-.4-.3-.7s0-.5.3-.7c.2-.2.4-.3.7-.3s.5,0,.7.3.3.4.3.7,0,.5-.3.7c-.2.2-.4.3-.7.3Z"/>
            </g>
          </g>
        </g>
        <g>
          <g>
            <g>
              <g>
                <rect class="cls-36" x="214.4" y="388.6" width="28.6" height="27.2" rx="3.9" ry="3.9"/>
                <path class="cls-50" d="M243,411.8v.7c0,1.8-1.5,3.3-3.3,3.3h-22c-1.8,0-3.3-1.5-3.3-3.3v-7.6l5.2-6.6c.8-1,2.4-1,3.1.1l7.1,10.2,3.2-4c.8-1,2.3-1.1,3.2-.1l6.7,7.3Z"/>
                <path class="cls-50" d="M230.1,400.5c1.4,0,2.5-1.1,2.5-2.5,0-1.4-1.1-2.5-2.6-2.5-1.4,0-2.5,1.1-2.5,2.5,0,1.4,1.1,2.5,2.6,2.5Z"/>
                <rect class="cls-10" x="214.4" y="388.6" width="28.6" height="27.2" rx="3.9" ry="3.9"/>
              </g>
              <g>
                <text class="cls-13" transform="translate(249.2 396.4)"><tspan x="0" y="0">スチール</tspan></text>
                <rect class="cls-42" x="249.2" y="402.9" width="52.1" height="4.6" rx="2.3" ry="2.3"/>
                <g>
                  <rect class="cls-29" x="250.1" y="410.8" width="28.6" height="12.8" rx="6.4" ry="6.4"/>
                  <rect class="cls-46" x="256" y="415.8" width="16.7" height="2.9" rx="1.4" ry="1.4"/>
                </g>
              </g>
              <g>
                <rect class="cls-44" x="336.6" y="388.3" width="35.4" height="12.8" rx="6.4" ry="6.4"/>
                <rect class="cls-44" x="214.4" y="445.1" width="157.5" height="2.9" rx="1.5" ry="1.5"/>
                <circle class="cls-40" cx="341.8" cy="394.7" r="1.7"/>
                <rect class="cls-40" x="347.3" y="393.3" width="19.7" height="2.9" rx="1.4" ry="1.4"/>
              </g>
              <rect class="cls-38" x="214.4" y="433.2" width="21.7" height="4" rx="2" ry="2"/>
              <rect class="cls-38" x="214.4" y="453.6" width="33.3" height="4" rx="2" ry="2"/>
              <rect class="cls-38" x="357.3" y="453.6" width="14.7" height="4" rx="2" ry="2"/>
              <text class="cls-3" transform="translate(340.6 439)"><tspan x="0" y="0">9 セット</tspan></text>
            </g>
            <path class="cls-20" d="M199.3,465.3v-82.9c0-3.4,2.8-6.1,6.3-6.1h174.2c3.5,0,6.3,2.7,6.3,6.1v82.9c0,3.4-2.8,6.1-6.3,6.1h-174.2c-3.5,0-6.3-2.7-6.3-6.1Z"/>
          </g>
          <g>
            <g>
              <g>
                <rect class="cls-36" x="214.4" y="483.7" width="28.6" height="27.2" rx="3.9" ry="3.9"/>
                <path class="cls-50" d="M243,506.9v.7c0,1.8-1.5,3.3-3.3,3.3h-22c-1.8,0-3.3-1.5-3.3-3.3v-7.6l5.2-6.6c.8-1,2.4-1,3.1.1l7.1,10.2,3.2-4c.8-1,2.3-1.1,3.2-.1l6.7,7.3Z"/>
                <path class="cls-50" d="M230.1,495.6c1.4,0,2.5-1.1,2.5-2.5,0-1.4-1.1-2.5-2.6-2.5-1.4,0-2.5,1.1-2.5,2.5,0,1.4,1.1,2.5,2.6,2.5Z"/>
                <rect class="cls-10" x="214.4" y="483.7" width="28.6" height="27.2" rx="3.9" ry="3.9"/>
              </g>
              <g>
                <text class="cls-13" transform="translate(249.2 491.5)"><tspan x="0" y="0">ネジ M8x20</tspan></text>
                <rect class="cls-42" x="249.2" y="498" width="52.1" height="4.6" rx="2.3" ry="2.3"/>
                <g>
                  <rect class="cls-29" x="250.1" y="505.9" width="28.6" height="12.8" rx="6.4" ry="6.4"/>
                  <rect class="cls-46" x="256" y="510.9" width="16.7" height="2.9" rx="1.4" ry="1.4"/>
                </g>
              </g>
              <g>
                <rect class="cls-44" x="336.6" y="483.4" width="35.4" height="12.8" rx="6.4" ry="6.4"/>
                <rect class="cls-44" x="214.4" y="540.2" width="157.5" height="2.9" rx="1.5" ry="1.5"/>
                <circle class="cls-40" cx="341.8" cy="489.8" r="1.7"/>
                <rect class="cls-40" x="347.3" y="488.3" width="19.7" height="2.9" rx="1.4" ry="1.4"/>
              </g>
              <rect class="cls-38" x="214.4" y="528.3" width="21.7" height="4" rx="2" ry="2"/>
              <rect class="cls-38" x="214.4" y="548.6" width="33.3" height="4" rx="2" ry="2"/>
              <rect class="cls-38" x="357.3" y="548.6" width="14.7" height="4" rx="2" ry="2"/>
              <text class="cls-3" transform="translate(348 534.1)"><tspan x="0" y="0">800 個</tspan></text>
            </g>
            <path class="cls-20" d="M199.3,560.4v-82.9c0-3.4,2.8-6.1,6.3-6.1h174.2c3.5,0,6.3,2.7,6.3,6.1v82.9c0,3.4-2.8,6.1-6.3,6.1h-174.2c-3.5,0-6.3-2.7-6.3-6.1Z"/>
          </g>
          <g>
            <g>
              <g>
                <rect class="cls-36" x="214.4" y="578.7" width="28.6" height="27.2" rx="3.9" ry="3.9"/>
                <path class="cls-50" d="M243,602v.7c0,1.8-1.5,3.3-3.3,3.3h-22c-1.8,0-3.3-1.5-3.3-3.3v-7.6l5.2-6.6c.8-1,2.4-1,3.1.1l7.1,10.2,3.2-4c.8-1,2.3-1.1,3.2-.1l6.7,7.3Z"/>
                <path class="cls-50" d="M230.1,590.7c1.4,0,2.5-1.1,2.5-2.5,0-1.4-1.1-2.5-2.6-2.5-1.4,0-2.5,1.1-2.5,2.5,0,1.4,1.1,2.5,2.6,2.5Z"/>
                <rect class="cls-10" x="214.4" y="578.7" width="28.6" height="27.2" rx="3.9" ry="3.9"/>
              </g>
              <g>
                <text class="cls-13" transform="translate(249.2 586.6)"><tspan x="0" y="0">高トルクモーター</tspan></text>
                <rect class="cls-42" x="249.2" y="593.1" width="52.1" height="4.6" rx="2.3" ry="2.3"/>
                <g>
                  <rect class="cls-29" x="250.1" y="601" width="28.6" height="12.8" rx="6.4" ry="6.4"/>
                  <rect class="cls-46" x="256" y="605.9" width="16.7" height="2.9" rx="1.4" ry="1.4"/>
                </g>
              </g>
              <g>
                <rect class="cls-44" x="336.6" y="578.4" width="35.4" height="12.8" rx="6.4" ry="6.4"/>
                <rect class="cls-44" x="214.4" y="635.3" width="157.5" height="2.9" rx="1.5" ry="1.5"/>
                <circle class="cls-40" cx="341.8" cy="584.8" r="1.7"/>
                <rect class="cls-40" x="347.3" y="583.4" width="19.7" height="2.9" rx="1.4" ry="1.4"/>
              </g>
              <rect class="cls-38" x="214.4" y="623.4" width="21.7" height="4" rx="2" ry="2"/>
              <rect class="cls-38" x="214.4" y="643.7" width="33.3" height="4" rx="2" ry="2"/>
              <rect class="cls-38" x="357.3" y="643.7" width="14.7" height="4" rx="2" ry="2"/>
              <text class="cls-3" transform="translate(352.6 629.2)"><tspan x="0" y="0">15 台</tspan></text>
            </g>
            <path class="cls-20" d="M199.3,655.4v-82.9c0-3.4,2.8-6.1,6.3-6.1h174.2c3.5,0,6.3,2.7,6.3,6.1v82.9c0,3.4-2.8,6.1-6.3,6.1h-174.2c-3.5,0-6.3-2.7-6.3-6.1Z"/>
          </g>
          <g>
            <path class="cls-24" d="M199.8,370.2v-82.9c0-3.4,2.8-6.1,6.3-6.1h174.2c3.5,0,6.3,2.7,6.3,6.1v82.9c0,3.4-2.8,6.1-6.3,6.1h-174.2c-3.5,0-6.3-2.7-6.3-6.1Z"/>
            <g>
              <g>
                <rect class="cls-36" x="214.4" y="293.5" width="28.6" height="27.2" rx="3.9" ry="3.9"/>
                <path class="cls-49" d="M243,316.8v.7c0,1.8-1.5,3.3-3.3,3.3h-22c-1.8,0-3.3-1.5-3.3-3.3v-7.6l5.2-6.6c.8-1,2.4-1,3.1.1l7.1,10.2,3.2-4c.8-1,2.3-1.1,3.2-.1l6.7,7.3Z"/>
                <path class="cls-49" d="M230.1,305.4c1.4,0,2.5-1.1,2.5-2.5,0-1.4-1.1-2.5-2.6-2.5-1.4,0-2.5,1.1-2.5,2.5,0,1.4,1.1,2.5,2.6,2.5Z"/>
                <rect class="cls-22" x="214.4" y="293.5" width="28.6" height="27.2" rx="3.9" ry="3.9"/>
              </g>
              <g>
                <text class="cls-13" transform="translate(249.2 301.4)"><tspan x="0" y="0">アルミ脚フレーム</tspan></text>
                <rect class="cls-42" x="249.2" y="307.8" width="52.1" height="4.6" rx="2.3" ry="2.3"/>
                <g>
                  <rect class="cls-29" x="250.1" y="315.7" width="28.6" height="12.8" rx="6.4" ry="6.4"/>
                  <rect class="cls-46" x="256" y="320.7" width="16.7" height="2.9" rx="1.4" ry="1.4"/>
                </g>
              </g>
              <g>
                <rect class="cls-44" x="336.6" y="293.2" width="35.4" height="12.8" rx="6.4" ry="6.4"/>
                <rect class="cls-44" x="214.4" y="350" width="157.5" height="2.9" rx="1.5" ry="1.5"/>
                <circle class="cls-40" cx="341.8" cy="299.6" r="1.7"/>
                <rect class="cls-40" x="347.3" y="298.2" width="19.7" height="2.9" rx="1.4" ry="1.4"/>
              </g>
              <rect class="cls-38" x="214.4" y="338.2" width="21.7" height="4" rx="2" ry="2"/>
              <rect class="cls-38" x="214.4" y="358.5" width="33.3" height="4" rx="2" ry="2"/>
              <rect class="cls-38" x="357.3" y="358.5" width="14.7" height="4" rx="2" ry="2"/>
              <text class="cls-3" transform="translate(336 344)"><tspan x="0" y="0">15 セット</tspan></text>
            </g>
          </g>
        </g>
        <rect class="cls-43" x="274.2" y="399.1" width="236.9" height="4.6" rx="2.3" ry="2.3" transform="translate(794 8.8) rotate(90)"/>
      </g>
    </g>
  </g>
</svg>