<?xml version="1.0" encoding="UTF-8"?>
<svg xmlns="http://www.w3.org/2000/svg" version="1.1" xmlns:xlink="http://www.w3.org/1999/xlink" viewBox="0 0 1000 880.7">
  <defs>
    <style>
      .cls-1 {
        stroke-width: .8px;
      }

      .cls-1, .cls-2, .cls-3, .cls-4, .cls-5, .cls-6, .cls-7, .cls-8, .cls-9, .cls-10, .cls-11, .cls-12, .cls-13, .cls-14, .cls-15, .cls-16, .cls-17, .cls-18, .cls-19, .cls-20, .cls-21, .cls-22, .cls-23, .cls-24, .cls-25, .cls-26, .cls-27, .cls-28, .cls-29, .cls-30, .cls-31, .cls-32, .cls-33, .cls-34, .cls-35, .cls-36, .cls-37, .cls-38 {
        stroke-linecap: round;
        stroke-linejoin: round;
      }

      .cls-1, .cls-2, .cls-3, .cls-9, .cls-14, .cls-18, .cls-20, .cls-21, .cls-33, .cls-35, .cls-38 {
        stroke: #e5e7eb;
      }

      .cls-1, .cls-3, .cls-4, .cls-6, .cls-7, .cls-8, .cls-10, .cls-11, .cls-39, .cls-12, .cls-14, .cls-15, .cls-40, .cls-20, .cls-22, .cls-23, .cls-24, .cls-25, .cls-26, .cls-27, .cls-28, .cls-31, .cls-32, .cls-33, .cls-34, .cls-37 {
        fill: none;
      }

      .cls-41 {
        fill: #fff4e6;
      }

      .cls-42 {
        fill: #fff5e5;
      }

      .cls-2 {
        fill: #f2f2f4;
      }

      .cls-2, .cls-14, .cls-40 {
        stroke-width: 2.1px;
      }

      .cls-43 {
        fill: #fcfcfc;
      }

      .cls-3, .cls-9 {
        stroke-width: .9px;
      }

      .cls-4 {
        stroke-width: .4px;
      }

      .cls-4, .cls-8, .cls-10, .cls-12, .cls-15, .cls-23, .cls-24 {
        stroke: #afb5be;
      }

      .cls-5, .cls-13, .cls-26, .cls-28, .cls-32 {
        stroke: #e19c49;
      }

      .cls-5, .cls-16, .cls-17, .cls-19, .cls-29, .cls-30, .cls-36 {
        font-family: KozGoPr6N-Regular-90ms-RKSJ-H, 'Kozuka Gothic Pr6N';
      }

      .cls-5, .cls-19, .cls-36 {
        font-size: 12.8px;
        stroke-width: .7px;
      }

      .cls-5, .cls-44 {
        fill: #e19c49;
      }

      .cls-6 {
        stroke-width: .9px;
      }

      .cls-6, .cls-27, .cls-34 {
        stroke: #fff;
      }

      .cls-45 {
        opacity: .1;
      }

      .cls-45, .cls-46 {
        fill: #6e6e73;
      }

      .cls-47 {
        fill: #e5e6ea;
      }

      .cls-48 {
        fill: #c9c9c9;
      }

      .cls-49 {
        fill: #6c7180;
      }

      .cls-50, .cls-21 {
        fill: #fff;
      }

      .cls-7 {
        stroke: #111;
        stroke-width: 1.1px;
      }

      .cls-51 {
        fill: #f3f4f6;
      }

      .cls-8 {
        stroke-width: .4px;
      }

      .cls-9, .cls-13, .cls-18, .cls-52, .cls-35 {
        fill: #fafafa;
      }

      .cls-10 {
        stroke-width: 1.3px;
      }

      .cls-11 {
        stroke: #6e6e73;
        stroke-width: .4px;
      }

      .cls-12, .cls-25 {
        stroke-width: .4px;
      }

      .cls-53 {
        fill: #afb5be;
      }

      .cls-13, .cls-18, .cls-33 {
        stroke-width: .9px;
      }

      .cls-15 {
        stroke-width: 1.3px;
      }

      .cls-40 {
        stroke: #0060cb;
        stroke-miterlimit: 10;
      }

      .cls-16 {
        font-size: 18.3px;
        stroke-width: .6px;
      }

      .cls-16, .cls-17, .cls-19, .cls-22, .cls-29, .cls-30 {
        stroke: #000;
      }

      .cls-54 {
        opacity: .7;
      }

      .cls-54, .cls-55 {
        fill: #333;
      }

      .cls-56 {
        clip-path: url(#clippath-1);
      }

      .cls-57 {
        fill: #f9fafb;
      }

      .cls-58 {
        fill: #656565;
      }

      .cls-59 {
        fill: #a9d2c0;
      }

      .cls-17 {
        font-size: 14.9px;
        stroke-width: .5px;
      }

      .cls-20 {
        stroke-width: .6px;
      }

      .cls-21, .cls-38 {
        stroke-width: 1px;
      }

      .cls-22, .cls-32 {
        stroke-width: .7px;
      }

      .cls-23 {
        stroke-width: 1.5px;
      }

      .cls-24 {
        stroke-width: 1.4px;
      }

      .cls-25 {
        stroke: #9f9faa;
      }

      .cls-26 {
        stroke-width: .9px;
      }

      .cls-27 {
        stroke-width: 1px;
      }

      .cls-60 {
        fill: #2d3748;
      }

      .cls-28 {
        stroke-width: .8px;
      }

      .cls-29 {
        font-size: 9.5px;
        stroke-width: .3px;
      }

      .cls-61 {
        fill: #afb5be;
      }

      .cls-30 {
        font-size: 8.1px;
        stroke-width: .3px;
      }

      .cls-31 {
        stroke: #c62f30;
        stroke-width: .7px;
      }

      .cls-62 {
        fill: #d9dde2;
      }

      .cls-63 {
        fill: url(#linear-gradient);
      }

      .cls-64 {
        clip-path: url(#clippath);
      }

      .cls-34 {
        stroke-width: 1px;
      }

      .cls-35 {
        stroke-width: 1px;
      }

      .cls-36 {
        fill: #059669;
        stroke: #059669;
      }

      .cls-37 {
        stroke: #d9dde2;
        stroke-width: 2px;
      }

      .cls-65, .cls-38 {
        fill: #e5e7eb;
      }

      .cls-66 {
        fill: #9da2ae;
      }
    </style>
    <clipPath id="clippath">
      <rect class="cls-39" x="-164.8" y="-628" width="458.3" height="377.7"/>
    </clipPath>
    <clipPath id="clippath-1">
      <rect class="cls-39" x="-164.8" y="-628" width="455.8" height="736.2"/>
    </clipPath>
    <linearGradient id="linear-gradient" x1="598.7" y1="317.3" x2="640.6" y2="317.3" gradientUnits="userSpaceOnUse">
      <stop offset="0" stop-color="#0bb97f"/>
      <stop offset=".5" stop-color="#7aa965"/>
      <stop offset="1" stop-color="#dc9c4a"/>
    </linearGradient>
  </defs>
  <!-- Generator: Adobe Illustrator 28.7.1, SVG Export Plug-In . SVG Version: 1.2.0 Build 142)  -->
  <g>
    <g id="Layer_1">
      <path class="cls-41" d="M677.3,115.5c-75.6,20.8-147.3-80.8-361.9-54.9S28,362.1,28,538.1s151.8,276.1,331.3,258.6,210.7-156.3,371-78.2,254.2-38.2,254.2-301.8S897.7,55,677.3,115.5Z"/>
      <g class="cls-64">
        <g class="cls-56">
          <rect class="cls-50" x="-164.8" y="-628.2" width="494.4" height="776.9"/>
        </g>
      </g>
      <g>
        <path class="cls-45" d="M859.6,146.4H125.9c-5.7,0-10.4,5.4-10.4,12v579.2c0,6.6,4.7,12,10.4,12h733s0,0,0,0h.7c3.1,0,5.8-1.5,7.7-3.9,0,0,0,0,0,0,.1-.2.3-.3.4-.5.6-.8,1.1-1.8,1.4-2.8,0,0,0,0,0,0,0-.2.1-.4.2-.5.4-1.3.6-2.6.6-4.1V158.4c0-6.6-4.7-12-10.4-12Z"/>
        <g>
          <path class="cls-50" d="M841.1,160.5v550.7c0,6.6-4.7,12-10.4,12H97c-5.7,0-10.4-5.4-10.4-12V160.5h754.5Z"/>
          <path class="cls-46" d="M841.1,132.1v28.4H86.6v-28.4c0-6.6,4.7-12,10.4-12h733.7c5.7,0,10.4,5.4,10.4,12Z"/>
          <path class="cls-55" d="M841.1,132.1v28.4H86.6v-28.4c0-6.6,4.7-12,10.4-12h733.7c5.7,0,10.4,5.4,10.4,12Z"/>
          <path class="cls-44" d="M119.5,140.5c0,4.4-3.5,7.9-7.8,7.9s-7.8-3.5-7.8-7.9,3.5-7.9,7.8-7.9,7.8,3.5,7.8,7.9Z"/>
          <ellipse class="cls-44" cx="140.4" cy="140.5" rx="7.8" ry="7.9"/>
          <ellipse class="cls-44" cx="168.4" cy="140.5" rx="7.8" ry="7.9"/>
          <image width="3232" height="1011" transform="translate(103.2 174.5) scale(0)" xlink:href="C:\Users\Hariyana\Downloads\sainta-core.png"/>
          <g>
            <g>
              <rect class="cls-42" x="100.7" y="418.1" width="118.8" height="29.4" rx="3.5" ry="3.5"/>
              <g>
                <path class="cls-22" d="M120,240.3h-4.1c-1,0-1.8.8-1.8,1.8h0c0,1,.8,1.8,1.8,1.8h2.8c1,0,1.8.8,1.8,1.8v.5c0,1-.8,1.8-1.8,1.8h-4.9"/>
                <line class="cls-22" x1="117.1" y1="237.8" x2="117.1" y2="250.2"/>
              </g>
              <g>
                <circle class="cls-22" cx="117" cy="304.5" r="2.1"/>
                <path class="cls-22" d="M121.4,312.4v-1.4c0-1.2-1-2.2-2.2-2.2h-4.2c-1.2,0-2.2,1-2.2,2.2v1.4"/>
              </g>
              <g>
                <circle class="cls-22" cx="115.5" cy="273.1" r="2.1"/>
                <path class="cls-22" d="M118.8,271c1.2,0,2.1.9,2.1,2.1s-.9,2.1-2.1,2.1"/>
                <path class="cls-22" d="M119.9,281v-1.4c0-1.2-1-2.2-2.2-2.2h-4.2c-1.2,0-2.2,1-2.2,2.2v1.4"/>
                <path class="cls-22" d="M123.3,281v-1.4c0-1.2-1-2.2-2.2-2.2"/>
              </g>
              <g>
                <polyline class="cls-22" points="111.3 342.5 115.2 338.7 117.8 341.3 122.7 336.5"/>
                <polyline class="cls-22" points="119.9 336.2 122.9 336.2 122.9 339.7"/>
              </g>
              <g>
                <path class="cls-22" d="M121.5,400.8v6.7c0,.5-.4.8-.8.8h-7.1c-.5,0-.8-.4-.8-.8v-9.2c0-.5.4-.8.8-.8h4.7l3.3,3.3Z"/>
                <path class="cls-22" d="M121.5,400.8h-2.9c-.2,0-.3-.2-.3-.3v-3l3.3,3.3Z"/>
                <line class="cls-22" x1="114.8" y1="401.3" x2="116.3" y2="401.3"/>
                <line class="cls-22" x1="114.8" y1="403.4" x2="119.6" y2="403.4"/>
                <line class="cls-22" x1="114.8" y1="405.6" x2="119.6" y2="405.6"/>
              </g>
              <g>
                <circle class="cls-44" cx="115.5" cy="439.6" r="1"/>
                <g>
                  <path class="cls-32" d="M111.1,428.7h2.3l1.5,7.2c0,.5.5.8,1,.8h5.1c.5,0,.9-.3,1-.8l1.2-4.8h-9.3"/>
                  <circle class="cls-44" cx="121.4" cy="439.6" r="1"/>
                </g>
              </g>
              <g>
                <circle class="cls-22" cx="117.2" cy="465.1" r="5.5"/>
                <polyline class="cls-22" points="117.2 461.7 117.2 465.1 119.3 466.1"/>
              </g>
              <g>
                <polygon class="cls-22" points="112.6 368.3 117.1 365.6 121.9 368.3 117.3 371.1 112.6 368.3"/>
                <polygon class="cls-22" points="112.6 368.3 112.6 373.7 117.3 376.5 117.3 371.1 112.6 368.3"/>
                <polygon class="cls-22" points="121.9 368.3 121.9 373.7 117.3 376.5 117.3 371.1 121.9 368.3"/>
                <line class="cls-22" x1="114.9" y1="366.9" x2="119.5" y2="369.7"/>
              </g>
            </g>
            <rect class="cls-48" x="134.6" y="242.2" width="35.2" height="8.7" rx="3.5" ry="3.5"/>
            <rect class="cls-48" x="134.6" y="273" width="35.2" height="8.7" rx="3.5" ry="3.5"/>
            <rect class="cls-48" x="134.6" y="336.3" width="35.2" height="8.7" rx="3.5" ry="3.5"/>
            <rect class="cls-48" x="134.6" y="399" width="43.3" height="8.7" rx="3.5" ry="3.5"/>
            <rect class="cls-44" x="134.6" y="428.5" width="43.3" height="8.7" rx="3.5" ry="3.5"/>
            <rect class="cls-48" x="134.6" y="460.8" width="33.6" height="8.7" rx="3.5" ry="3.5"/>
            <rect class="cls-48" x="134.6" y="304.7" width="44" height="8.7" rx="3.5" ry="3.5"/>
            <rect class="cls-48" x="134.6" y="366.7" width="44" height="8.7" rx="3.5" ry="3.5"/>
            <g>
              <path class="cls-52" d="M246.6,722.8c-5.6,0-10.1-4.5-10.1-10.1V233.1c0-5.6,4.5-10.1,10.1-10.1h583.8c5.6,0,10.1,4.5,10.1,10.1v479.3c0,5.7-4.7,10.4-10.4,10.4H246.6Z"/>
              <path class="cls-65" d="M246.6,223.4h583.8c5.3,0,9.6,4.3,9.6,9.6v479.3c0,2.7-1,5.2-2.9,7.1-1.9,1.9-4.4,2.9-7.1,2.9H246.6c-5.3,0-9.6-4.3-9.6-9.6V233.1c0-2.6,1-5,2.8-6.8s4.2-2.8,6.8-2.8M246.6,222.6c-5.8,0-10.5,4.7-10.5,10.5v479.6c0,5.8,4.7,10.5,10.5,10.5h583.4c6,0,10.9-4.9,10.9-10.9V233.1c0-5.8-4.7-10.5-10.5-10.5H246.6Z"/>
            </g>
            <line class="cls-3" x1="258.3" y1="223.1" x2="86.6" y2="223.1"/>
            <g>
              <rect class="cls-21" x="247.3" y="280" width="136.2" height="55.2" rx="5.9" ry="5.9"/>
              <rect class="cls-21" x="395.8" y="280" width="136.2" height="55.2" rx="5.9" ry="5.9"/>
              <rect class="cls-21" x="544.3" y="280" width="136.2" height="55.2" rx="5.9" ry="5.9"/>
              <rect class="cls-21" x="693.1" y="280" width="136.2" height="55.2" rx="5.9" ry="5.9"/>
              <text class="cls-16" transform="translate(256.3 256.9)"><tspan x="0" y="0">受注管理</tspan></text>
              <g>
                <rect x="299.8" y="288.8" width="31.2" height="5.6" rx="2.8" ry="2.8"/>
                <rect class="cls-53" x="303.3" y="320.6" width="24.2" height="4.3" rx="2.2" ry="2.2"/>
                <text class="cls-19" transform="translate(312.3 313.8)"><tspan x="0" y="0">1 </tspan></text>
                <g>
                  <polygon class="cls-12" points="295.7 321.4 297.9 320.1 300.2 321.4 298 322.8 295.7 321.4"/>
                  <polygon class="cls-12" points="295.7 321.4 295.7 324.1 298 325.5 298 322.8 295.7 321.4"/>
                  <polygon class="cls-12" points="300.2 321.4 300.2 324.1 298 325.5 298 322.8 300.2 321.4"/>
                  <line class="cls-12" x1="296.8" y1="320.8" x2="299" y2="322.1"/>
                </g>
              </g>
              <g>
                <rect x="450.3" y="288.8" width="31.2" height="5.6" rx="2.8" ry="2.8"/>
                <rect class="cls-53" x="453.8" y="320.6" width="24.2" height="4.3" rx="2.2" ry="2.2"/>
                <text class="cls-5" transform="translate(462.8 313.8)"><tspan x="0" y="0">0</tspan></text>
                <polyline class="cls-12" points="446.9 323.1 448 324.3 450.9 321.3"/>
              </g>
              <g>
                <rect x="598.9" y="288.8" width="31.2" height="5.6" rx="2.8" ry="2.8"/>
                <rect class="cls-53" x="602.3" y="320.6" width="24.2" height="4.3" rx="2.2" ry="2.2"/>
                <text class="cls-36" transform="translate(611.4 313.8)"><tspan x="0" y="0">0 </tspan></text>
                <g>
                  <rect class="cls-12" x="594.2" y="320.5" width="3.9" height="3.3"/>
                  <polyline class="cls-12" points="598.1 321.8 599 321.8 599.8 322.6 599.8 323.8 598.1 323.8"/>
                  <circle class="cls-12" cx="598.7" cy="324.4" r=".6"/>
                  <circle class="cls-12" cx="595.4" cy="324.4" r=".6"/>
                </g>
              </g>
              <g>
                <rect x="745.5" y="288.8" width="31.2" height="5.6" rx="2.8" ry="2.8"/>
                <rect class="cls-53" x="749" y="320.6" width="24.2" height="4.3" rx="2.2" ry="2.2"/>
                <text class="cls-19" transform="translate(758 313.8)"><tspan x="0" y="0">0 </tspan></text>
                <g>
                  <polygon class="cls-25" points="741.4 321.4 743.6 320.1 745.9 321.4 743.7 322.8 741.4 321.4"/>
                  <polygon class="cls-25" points="741.4 321.4 741.4 324.1 743.7 325.5 743.7 322.8 741.4 321.4"/>
                  <polygon class="cls-25" points="745.9 321.4 745.9 324.1 743.7 325.5 743.7 322.8 745.9 321.4"/>
                  <line class="cls-25" x1="742.5" y1="320.8" x2="744.7" y2="322.1"/>
                </g>
              </g>
              <g>
                <rect class="cls-20" x="247.3" y="348.9" width="136.2" height="11.7" rx="1.7" ry="1.7"/>
                <rect class="cls-66" x="259.8" y="353.4" width="28.6" height="3.2" rx="1.2" ry="1.2"/>
                <circle class="cls-11" cx="253.2" cy="354.6" r="1.8"/>
                <line class="cls-11" x1="254.4" y1="355.8" x2="255.4" y2="356.8"/>
              </g>
              <g>
                <rect class="cls-41" x="394.7" y="348.9" width="36.1" height="11.7" rx="1.7" ry="1.7"/>
                <rect class="cls-66" x="400.7" y="353.4" width="24.7" height="3.2" rx="1.6" ry="1.6"/>
              </g>
              <rect class="cls-20" x="394.7" y="348.9" width="36.1" height="11.7" rx="1.7" ry="1.7"/>
              <g>
                <rect class="cls-50" x="439.7" y="348.9" width="36.1" height="11.7" rx="1.7" ry="1.7"/>
                <rect class="cls-66" x="450.9" y="353.4" width="19.5" height="3.2" rx="1.4" ry="1.4"/>
              </g>
              <rect class="cls-20" x="439.7" y="348.9" width="36.1" height="11.7" rx="1.7" ry="1.7"/>
              <g>
                <rect class="cls-50" x="481.5" y="348.9" width="36.1" height="11.7" rx="1.7" ry="1.7"/>
                <rect class="cls-66" x="492.8" y="353.4" width="19.5" height="3.2" rx="1.4" ry="1.4"/>
              </g>
              <rect class="cls-20" x="481.5" y="348.9" width="36.1" height="11.7" rx="1.7" ry="1.7"/>
              <g>
                <rect class="cls-50" x="523" y="348.9" width="36.1" height="11.7" rx="1.7" ry="1.7"/>
                <rect class="cls-66" x="534.3" y="353.4" width="19.5" height="3.2" rx="1.4" ry="1.4"/>
              </g>
              <rect class="cls-20" x="523" y="348.9" width="36.1" height="11.7" rx="1.7" ry="1.7"/>
              <g>
                <rect class="cls-50" x="563.7" y="348.9" width="36.1" height="11.7" rx="1.7" ry="1.7"/>
                <rect class="cls-66" x="575" y="353.4" width="19.5" height="3.2" rx="1.4" ry="1.4"/>
              </g>
              <rect class="cls-20" x="563.7" y="348.9" width="36.1" height="11.7" rx="1.7" ry="1.7"/>
              <g>
                <rect class="cls-50" x="605.4" y="348.9" width="36.1" height="11.7" rx="1.7" ry="1.7"/>
                <rect class="cls-66" x="616.7" y="353.4" width="19.5" height="3.2" rx="1.4" ry="1.4"/>
              </g>
              <rect class="cls-20" x="605.4" y="348.9" width="36.1" height="11.7" rx="1.7" ry="1.7"/>
              <g>
                <rect class="cls-50" x="646.6" y="348.9" width="36.1" height="11.7" rx="1.7" ry="1.7"/>
                <rect class="cls-66" x="657.9" y="353.4" width="19.5" height="3.2" rx="1.4" ry="1.4"/>
              </g>
              <rect class="cls-20" x="646.6" y="348.9" width="36.1" height="11.7" rx="1.7" ry="1.7"/>
              <g>
                <path class="cls-8" d="M447.3,353.6v2.9c0,.2-.2.4-.4.4h-3.1c-.2,0-.4-.2-.4-.4v-4c0-.2.2-.3.4-.3h2l1.4,1.4Z"/>
                <path class="cls-8" d="M447.3,353.6h-1.3c0,0-.1,0-.1-.1v-1.3l1.4,1.4Z"/>
                <line class="cls-8" x1="444.4" y1="353.9" x2="445" y2="353.9"/>
                <line class="cls-8" x1="444.4" y1="354.8" x2="446.5" y2="354.8"/>
                <line class="cls-8" x1="444.4" y1="355.7" x2="446.5" y2="355.7"/>
              </g>
              <polyline class="cls-12" points="485.3 355.6 486.5 356.8 489.4 353.8"/>
              <g>
                <polygon class="cls-4" points="567.2 353.7 569.2 352.6 571.2 353.7 569.2 354.9 567.2 353.7"/>
                <polygon class="cls-4" points="567.2 353.7 567.2 356.1 569.2 357.3 569.2 354.9 567.2 353.7"/>
                <polygon class="cls-4" points="571.2 353.7 571.2 356.1 569.2 357.3 569.2 354.9 571.2 353.7"/>
                <line class="cls-4" x1="568.2" y1="353.1" x2="570.2" y2="354.4"/>
              </g>
              <g>
                <polygon class="cls-4" points="650.5 353.7 652.5 352.6 654.6 353.7 652.6 354.9 650.5 353.7"/>
                <polygon class="cls-4" points="650.5 353.7 650.5 356.1 652.6 357.3 652.6 354.9 650.5 353.7"/>
                <polygon class="cls-4" points="654.6 353.7 654.6 356.1 652.6 357.3 652.6 354.9 654.6 353.7"/>
                <line class="cls-4" x1="651.5" y1="353.1" x2="653.5" y2="354.4"/>
              </g>
              <g>
                <polygon class="cls-4" points="526.7 353.7 528.6 352.6 530.7 353.7 528.7 354.9 526.7 353.7"/>
                <polygon class="cls-4" points="526.7 353.7 526.7 356.1 528.7 357.3 528.7 354.9 526.7 353.7"/>
                <polygon class="cls-4" points="530.7 353.7 530.7 356.1 528.7 357.3 528.7 354.9 530.7 353.7"/>
              </g>
              <g>
                <rect class="cls-4" x="609.3" y="353.6" width="2.9" height="2.4"/>
                <polyline class="cls-4" points="612.1 354.6 612.8 354.6 613.4 355.2 613.4 356.1 612.1 356.1"/>
                <circle class="cls-4" cx="612.6" cy="356.5" r=".5" transform="translate(-74.9 184) rotate(-16.1)"/>
                <circle class="cls-4" cx="610.1" cy="356.5" r=".5" transform="translate(-75 183.3) rotate(-16.1)"/>
              </g>
            </g>
            <g>
              <path class="cls-38" d="M829.3,384.4v12.4H247.3v-12.4c0-3.2,2.6-5.9,5.9-5.9h570.2c3.2,0,5.9,2.6,5.9,5.9Z"/>
              <path class="cls-21" d="M829.3,396.8v222.3c0,3.2-2.6,5.9-5.9,5.9H253.2c-3.2,0-5.8-2.6-5.8-5.9v-222.3s581.9,0,581.9,0Z"/>
              <rect class="cls-66" x="272.4" y="386.8" width="24.7" height="3.2" rx="1.6" ry="1.6"/>
              <rect class="cls-66" x="342" y="386.8" width="19.5" height="3.2" rx="1.6" ry="1.6"/>
              <rect class="cls-66" x="408.4" y="386.8" width="19.5" height="3.2" rx="1.6" ry="1.6"/>
              <rect class="cls-66" x="456.5" y="386.8" width="19.5" height="3.2" rx="1.6" ry="1.6"/>
              <rect class="cls-66" x="527.6" y="386.8" width="12" height="3.2" rx="1.6" ry="1.6"/>
              <line class="cls-21" x1="247.3" y1="429.8" x2="829.3" y2="429.8"/>
              <line class="cls-21" x1="247.3" y1="396.8" x2="829.3" y2="396.8"/>
              <line class="cls-21" x1="247.3" y1="462.9" x2="829.3" y2="462.9"/>
              <line class="cls-21" x1="247.3" y1="496" x2="829.3" y2="496"/>
              <line class="cls-21" x1="247.3" y1="529" x2="829.3" y2="529"/>
              <line class="cls-21" x1="247.3" y1="562.1" x2="829.3" y2="562.1"/>
              <line class="cls-21" x1="247.3" y1="595.2" x2="829.3" y2="595.2"/>
              <g>
                <rect class="cls-66" x="335.2" y="412.8" width="22.1" height="3.2" rx="1.6" ry="1.6"/>
                <rect class="cls-66" x="359.3" y="412.8" width="22.1" height="3.2" rx="1.6" ry="1.6"/>
                <rect class="cls-51" x="401.8" y="409.8" width="35.3" height="9.2" rx="4.6" ry="4.6"/>
                <rect class="cls-66" x="413.4" y="412.8" width="19.8" height="3.2" rx="1.6" ry="1.6"/>
                <rect class="cls-66" x="456.5" y="412.8" width="19.5" height="3.2" rx="1.6" ry="1.6"/>
                <text class="cls-30" transform="translate(258.7 417.8)"><tspan x="0" y="0">SO-2025-0001</tspan></text>
                <text class="cls-30" transform="translate(508 417.8)"><tspan x="0" y="0">¥149050</tspan></text>
                <circle class="cls-44" cx="325.3" cy="414.4" r="6"/>
                <g>
                  <path class="cls-8" d="M410.7,413.5v2.9c0,.2-.2.4-.4.4h-3.1c-.2,0-.4-.2-.4-.4v-4c0-.2.2-.3.4-.3h2l1.4,1.4Z"/>
                  <path class="cls-8" d="M410.7,413.5h-1.3c0,0-.1,0-.1-.1v-1.3l1.4,1.4Z"/>
                  <line class="cls-8" x1="407.8" y1="413.7" x2="408.4" y2="413.7"/>
                  <line class="cls-8" x1="407.8" y1="414.6" x2="409.9" y2="414.6"/>
                  <line class="cls-8" x1="407.8" y1="415.6" x2="409.9" y2="415.6"/>
                </g>
              </g>
              <g>
                <rect class="cls-66" x="335.2" y="444.8" width="22.1" height="3.2" rx="1.6" ry="1.6"/>
                <rect class="cls-66" x="359.3" y="444.8" width="22.1" height="3.2" rx="1.6" ry="1.6"/>
                <rect class="cls-51" x="401.8" y="441.8" width="35.3" height="9.2" rx="4.6" ry="4.6"/>
                <rect class="cls-66" x="413.4" y="444.8" width="19.8" height="3.2" rx="1.6" ry="1.6"/>
                <rect class="cls-66" x="456.5" y="444.8" width="19.5" height="3.2" rx="1.6" ry="1.6"/>
                <text class="cls-30" transform="translate(258.7 449.8)"><tspan x="0" y="0">SO-2025-0002</tspan></text>
                <text class="cls-30" transform="translate(508 449.8)"><tspan x="0" y="0">¥23500</tspan></text>
                <circle class="cls-44" cx="325.3" cy="446.4" r="6"/>
                <g>
                  <path class="cls-8" d="M410.7,445.5v2.9c0,.2-.2.4-.4.4h-3.1c-.2,0-.4-.2-.4-.4v-4c0-.2.2-.3.4-.3h2l1.4,1.4Z"/>
                  <path class="cls-8" d="M410.7,445.5h-1.3c0,0-.1,0-.1-.1v-1.3l1.4,1.4Z"/>
                  <line class="cls-8" x1="407.8" y1="445.7" x2="408.4" y2="445.7"/>
                  <line class="cls-8" x1="407.8" y1="446.6" x2="409.9" y2="446.6"/>
                  <line class="cls-8" x1="407.8" y1="447.6" x2="409.9" y2="447.6"/>
                </g>
              </g>
              <g>
                <rect class="cls-66" x="335.2" y="478.4" width="22.1" height="3.2" rx="1.6" ry="1.6"/>
                <rect class="cls-66" x="359.3" y="478.4" width="22.1" height="3.2" rx="1.6" ry="1.6"/>
                <rect class="cls-51" x="401.8" y="475.4" width="35.3" height="9.2" rx="4.6" ry="4.6"/>
                <rect class="cls-66" x="413.4" y="478.4" width="19.8" height="3.2" rx="1.6" ry="1.6"/>
                <rect class="cls-66" x="456.5" y="478.4" width="19.5" height="3.2" rx="1.6" ry="1.6"/>
                <text class="cls-30" transform="translate(258.7 483.4)"><tspan x="0" y="0">SO-2025-0003</tspan></text>
                <text class="cls-30" transform="translate(508 483.4)"><tspan x="0" y="0">¥17500</tspan></text>
                <circle class="cls-44" cx="325.3" cy="480" r="6"/>
                <g>
                  <path class="cls-8" d="M410.7,479.1v2.9c0,.2-.2.4-.4.4h-3.1c-.2,0-.4-.2-.4-.4v-4c0-.2.2-.3.4-.3h2l1.4,1.4Z"/>
                  <path class="cls-8" d="M410.7,479.1h-1.3c0,0-.1,0-.1-.1v-1.3l1.4,1.4Z"/>
                  <line class="cls-8" x1="407.8" y1="479.3" x2="408.4" y2="479.3"/>
                  <line class="cls-8" x1="407.8" y1="480.2" x2="409.9" y2="480.2"/>
                  <line class="cls-8" x1="407.8" y1="481.2" x2="409.9" y2="481.2"/>
                </g>
              </g>
              <g>
                <rect class="cls-66" x="335.2" y="510.4" width="22.1" height="3.2" rx="1.6" ry="1.6"/>
                <rect class="cls-66" x="359.3" y="510.4" width="22.1" height="3.2" rx="1.6" ry="1.6"/>
                <rect class="cls-51" x="401.8" y="507.4" width="35.3" height="9.2" rx="4.6" ry="4.6"/>
                <rect class="cls-66" x="413.4" y="510.4" width="19.8" height="3.2" rx="1.6" ry="1.6"/>
                <rect class="cls-66" x="456.5" y="510.4" width="19.5" height="3.2" rx="1.6" ry="1.6"/>
                <text class="cls-30" transform="translate(258.7 515.3)"><tspan x="0" y="0">SO-2025-0004</tspan></text>
                <text class="cls-30" transform="translate(508 515.3)"><tspan x="0" y="0">¥77800</tspan></text>
                <circle class="cls-44" cx="325.3" cy="512" r="6"/>
                <g>
                  <path class="cls-8" d="M410.7,511.1v2.9c0,.2-.2.4-.4.4h-3.1c-.2,0-.4-.2-.4-.4v-4c0-.2.2-.3.4-.3h2l1.4,1.4Z"/>
                  <path class="cls-8" d="M410.7,511.1h-1.3c0,0-.1,0-.1-.1v-1.3l1.4,1.4Z"/>
                  <line class="cls-8" x1="407.8" y1="511.3" x2="408.4" y2="511.3"/>
                  <line class="cls-8" x1="407.8" y1="512.2" x2="409.9" y2="512.2"/>
                  <line class="cls-8" x1="407.8" y1="513.2" x2="409.9" y2="513.2"/>
                </g>
              </g>
              <g>
                <rect class="cls-66" x="335.2" y="544.5" width="22.1" height="3.2" rx="1.6" ry="1.6"/>
                <rect class="cls-66" x="359.3" y="544.5" width="22.1" height="3.2" rx="1.6" ry="1.6"/>
                <rect class="cls-51" x="401.8" y="541.5" width="35.3" height="9.2" rx="4.6" ry="4.6"/>
                <rect class="cls-66" x="413.4" y="544.5" width="19.8" height="3.2" rx="1.6" ry="1.6"/>
                <rect class="cls-66" x="456.5" y="544.5" width="19.5" height="3.2" rx="1.6" ry="1.6"/>
                <text class="cls-30" transform="translate(258.7 549.5)"><tspan x="0" y="0">SO-2025-0005</tspan></text>
                <text class="cls-30" transform="translate(508 549.5)"><tspan x="0" y="0">¥32500</tspan></text>
                <circle class="cls-44" cx="325.3" cy="546.1" r="6"/>
                <g>
                  <path class="cls-8" d="M410.7,545.2v2.9c0,.2-.2.4-.4.4h-3.1c-.2,0-.4-.2-.4-.4v-4c0-.2.2-.3.4-.3h2l1.4,1.4Z"/>
                  <path class="cls-8" d="M410.7,545.2h-1.3c0,0-.1,0-.1-.1v-1.3l1.4,1.4Z"/>
                  <line class="cls-8" x1="407.8" y1="545.4" x2="408.4" y2="545.4"/>
                  <line class="cls-8" x1="407.8" y1="546.4" x2="409.9" y2="546.4"/>
                  <line class="cls-8" x1="407.8" y1="547.3" x2="409.9" y2="547.3"/>
                </g>
              </g>
              <g>
                <rect class="cls-66" x="335.2" y="576.5" width="22.1" height="3.2" rx="1.6" ry="1.6"/>
                <rect class="cls-66" x="359.3" y="576.5" width="22.1" height="3.2" rx="1.6" ry="1.6"/>
                <rect class="cls-51" x="401.8" y="573.5" width="35.3" height="9.2" rx="4.6" ry="4.6"/>
                <rect class="cls-66" x="413.4" y="576.5" width="19.8" height="3.2" rx="1.6" ry="1.6"/>
                <rect class="cls-66" x="456.5" y="576.5" width="19.5" height="3.2" rx="1.6" ry="1.6"/>
                <text class="cls-30" transform="translate(258.7 581.5)"><tspan x="0" y="0">SO-2025-0006</tspan></text>
                <text class="cls-30" transform="translate(508 581.5)"><tspan x="0" y="0">¥12200</tspan></text>
                <circle class="cls-44" cx="325.3" cy="578.1" r="6"/>
                <g>
                  <path class="cls-8" d="M410.7,577.2v2.9c0,.2-.2.4-.4.4h-3.1c-.2,0-.4-.2-.4-.4v-4c0-.2.2-.3.4-.3h2l1.4,1.4Z"/>
                  <path class="cls-8" d="M410.7,577.2h-1.3c0,0-.1,0-.1-.1v-1.3l1.4,1.4Z"/>
                  <line class="cls-8" x1="407.8" y1="577.4" x2="408.4" y2="577.4"/>
                  <line class="cls-8" x1="407.8" y1="578.4" x2="409.9" y2="578.4"/>
                  <line class="cls-8" x1="407.8" y1="579.3" x2="409.9" y2="579.3"/>
                </g>
              </g>
            </g>
          </g>
          <path class="cls-54" d="M841.1,160.5v550.7c0,6.6-4.7,12-10.4,12H97c-5.7,0-10.4-5.4-10.4-12V160.5h754.5Z"/>
        </g>
        <g>
          <rect class="cls-45" x="587.2" y="68.3" width="363.4" height="762.2" rx="12.1" ry="12.1"/>
          <rect class="cls-50" x="569.1" y="50.1" width="363.4" height="762.2" rx="12.1" ry="12.1"/>
          <path class="cls-35" d="M569.1,115.5h363.4v684.8c0,6.7-5.4,12.1-12.1,12.1h-339.2c-6.7,0-12.1-5.4-12.1-12.1V115.5h0Z"/>
          <line class="cls-14" x1="616.6" y1="216.6" x2="891.2" y2="216.6"/>
          <g>
            <rect class="cls-57" x="581" y="156.3" width="341.4" height="181.9" rx="7.8" ry="7.8"/>
            <rect class="cls-33" x="581" y="156.3" width="341.4" height="181.9" rx="7.8" ry="7.8"/>
          </g>
          <g>
            <rect class="cls-50" x="581.2" y="496.6" width="341.4" height="134.2" rx="7.8" ry="7.8"/>
            <rect class="cls-1" x="581.2" y="496.6" width="341.4" height="134.2" rx="7.8" ry="7.8"/>
          </g>
          <g>
            <text class="cls-17" transform="translate(586 81.7)"><tspan x="0" y="0">SO-2025-0001</tspan></text>
            <g>
              <path class="cls-44" d="M584.7,386l-3.8-7.2h2.5l2.8,6h-1.2l2.8-6h2.5l-3.8,7.2h-1.6ZM583.9,382.4l.5,1.5h-3.1v-1.5h2.6ZM581.2,386.7v-1.5h8.6v1.5h-8.6ZM584.4,390.3v-5.4h2.3v5.4h-2.3ZM586.9,383.9l.6-1.5h2.3v1.5h-3Z"/>
              <path class="cls-44" d="M591.3,380.7v-1.9h4.3v1.9h-4.3ZM593.6,390.3v-11.6s2.2,0,2.2,0v11.6s-2.2,0-2.2,0Z"/>
              <path class="cls-44" d="M597.4,386.2l4-7.5h2.5l-4,7.5h-2.4ZM597.4,387.5v-1.3l.8-.6h8.3v1.9h-9.1ZM602.9,390.3v-7.4h2.2v7.4h-2.2Z"/>
              <path class="cls-44" d="M608.6,390.3l3.5-4.9.8-.2c-.1.3-.3.5-.4.7-.2.2-.4.3-.6.4-.3,0-.6.1-1,.1-.7,0-1.3-.2-1.9-.5-.6-.3-1-.8-1.3-1.3-.3-.6-.5-1.2-.5-2s.2-1.4.6-2c.4-.6.9-1.1,1.5-1.5.6-.4,1.3-.6,2.1-.6s1.5.2,2.1.5c.6.4,1.1.8,1.5,1.4.4.6.6,1.3.6,2s-.4,2-1.1,3.1l-3.2,4.6h-2.6ZM611.3,384.7c.4,0,.7,0,1-.3s.5-.4.7-.7.3-.7.3-1,0-.7-.3-1.1-.4-.6-.7-.7c-.3-.2-.6-.3-1-.3s-.7,0-1,.3c-.3.2-.5.4-.7.7-.2.3-.3.7-.3,1.1s0,.7.3,1.1c.2.3.4.6.7.7.3.2.6.3,1,.3Z"/>
              <path class="cls-44" d="M621.4,390.5c-.9,0-1.7-.2-2.5-.7s-1.3-1.2-1.8-2.1c-.4-.9-.6-1.9-.6-3.1s.2-2.2.6-3.1c.4-.9,1-1.6,1.7-2.1.7-.5,1.5-.7,2.4-.7s1.7.2,2.5.7,1.3,1.2,1.7,2.1c.4.9.6,1.9.6,3.1s-.2,2.3-.6,3.1c-.4.9-1,1.6-1.7,2.1-.7.5-1.5.7-2.4.7ZM621.3,388.4c.5,0,1-.1,1.4-.4.4-.3.7-.7.9-1.3s.3-1.3.3-2.2-.1-1.6-.3-2.2c-.2-.6-.5-1-.9-1.3s-.8-.4-1.4-.4-1,.1-1.3.4c-.4.3-.7.7-.9,1.3-.2.6-.3,1.3-.3,2.2s.1,1.6.3,2.2c.2.6.5,1,.9,1.3.4.3.8.4,1.4.4Z"/>
              <path class="cls-44" d="M630.9,390.5c-.8,0-1.5-.1-2.2-.4-.7-.3-1.2-.7-1.6-1.2l1.5-1.5c.2.3.5.6.9.8s.9.3,1.4.3.8,0,1.2-.2c.3-.2.6-.4.8-.7.2-.3.3-.7.3-1.1s0-.8-.3-1.1c-.2-.3-.4-.5-.8-.7-.3-.1-.7-.2-1.1-.2s-.8,0-1.1.1c-.3,0-.7.3-1,.5v-1.4c.3-.2.6-.4.8-.5.2-.1.5-.2.8-.3.3,0,.6-.1,1-.1.8,0,1.5.2,2.1.5.6.3,1,.8,1.3,1.4.3.6.4,1.2.4,1.9s-.2,1.4-.6,2-.9,1.1-1.6,1.4-1.4.5-2.3.5ZM628.9,385.1l-1.1-1,.5-5.3h2l-.6,5.4-.9,1ZM628.6,380.7l-.3-1.9h6.3v1.9h-6Z"/>
              <path class="cls-44" d="M641.3,390.5c-.9,0-1.7-.2-2.5-.7s-1.3-1.2-1.8-2.1c-.4-.9-.6-1.9-.6-3.1s.2-2.2.6-3.1c.4-.9,1-1.6,1.7-2.1.7-.5,1.5-.7,2.4-.7s1.7.2,2.5.7,1.3,1.2,1.7,2.1c.4.9.6,1.9.6,3.1s-.2,2.3-.6,3.1c-.4.9-1,1.6-1.7,2.1-.7.5-1.5.7-2.4.7ZM641.3,388.4c.5,0,1-.1,1.4-.4.4-.3.7-.7.9-1.3s.3-1.3.3-2.2-.1-1.6-.3-2.2c-.2-.6-.5-1-.9-1.3s-.8-.4-1.4-.4-1,.1-1.3.4c-.4.3-.7.7-.9,1.3-.2.6-.3,1.3-.3,2.2s.1,1.6.3,2.2c.2.6.5,1,.9,1.3.4.3.8.4,1.4.4Z"/>
            </g>
            <g>
              <path class="cls-44" d="M872.5,516.7l-2.4-4.5h1.6l1.7,3.7h-.8l1.7-3.7h1.5l-2.4,4.5h-1ZM872,514.5l.3.9h-2v-.9h1.7ZM870.3,517.1v-1h5.4v1h-5.4ZM872.3,519.4v-3.4h1.4v3.4h-1.4ZM873.9,515.4l.4-.9h1.4v.9h-1.8Z"/>
              <path class="cls-44" d="M876.6,513.4v-1.2h2.7v1.2h-2.7ZM878,519.4v-7.2h1.4v7.2h-1.4Z"/>
              <path class="cls-44" d="M880.4,518.6l2.7-2.8c.2-.2.3-.4.5-.6s.2-.3.3-.5c0-.1,0-.3,0-.4,0-.3,0-.5-.3-.7-.2-.2-.4-.3-.7-.3s-.6,0-.8.2c-.2.2-.5.4-.7.8l-1-.8c.3-.5.6-.9,1.1-1.1.4-.2.9-.4,1.5-.4s.9,0,1.2.3c.3.2.6.4.8.8s.3.7.3,1.2,0,.6-.1.8-.2.5-.4.7c-.2.2-.4.5-.7.8l-2,2h-1.8ZM880.4,519.4v-.8l1.2-.4h3.9v1.2h-5Z"/>
              <path class="cls-44" d="M888.6,519.5c-.5,0-1,0-1.3-.3-.4-.2-.7-.4-.9-.8-.2-.3-.3-.7-.3-1.1s0-.6.2-.9c.1-.3.3-.5.6-.7.2-.2.5-.3.9-.4v.3c-.3,0-.5-.2-.7-.4-.2-.2-.3-.4-.4-.6,0-.2-.1-.5-.1-.7,0-.4,0-.7.3-1s.5-.5.8-.7c.3-.2.7-.3,1.1-.3s.8,0,1.1.3.6.4.8.7c.2.3.3.6.3,1s0,.5-.1.7c0,.2-.2.4-.4.6-.2.2-.4.3-.7.4v-.3c.3,0,.6.2.8.4.2.2.4.4.6.7.1.3.2.6.2.9s-.1.8-.3,1.1c-.2.3-.5.6-.9.8-.4.2-.8.3-1.3.3ZM888.6,518.3c.2,0,.4,0,.6-.1.2,0,.3-.2.4-.4.1-.2.2-.4.2-.6s0-.4-.2-.5c-.1-.2-.2-.3-.4-.4s-.4-.1-.6-.1-.4,0-.6.1c-.2,0-.3.2-.4.4-.1.2-.2.3-.2.5s0,.4.2.6c.1.2.2.3.4.4.2,0,.4.1.6.1ZM888.6,515.1c.3,0,.5,0,.7-.3.2-.2.3-.4.3-.7s0-.5-.3-.7c-.2-.2-.4-.3-.7-.3s-.5,0-.7.3c-.2.2-.3.4-.3.7s0,.5.3.7c.2.2.4.3.7.3Z"/>
              <path class="cls-44" d="M894.9,519.5c-.6,0-1.1-.2-1.5-.5-.5-.3-.8-.7-1.1-1.3s-.4-1.2-.4-2,.1-1.4.4-1.9c.3-.6.6-1,1.1-1.3.5-.3,1-.5,1.5-.5s1.1.2,1.5.5c.5.3.8.7,1.1,1.3.3.6.4,1.2.4,2s-.1,1.4-.4,2c-.3.6-.6,1-1.1,1.3-.5.3-1,.5-1.5.5ZM894.9,518.2c.3,0,.6,0,.9-.3s.4-.5.6-.8c.1-.4.2-.8.2-1.4s0-1-.2-1.3c-.1-.4-.3-.6-.6-.8-.2-.2-.5-.3-.9-.3s-.6,0-.8.3c-.2.2-.4.4-.6.8-.1.4-.2.8-.2,1.3s0,1,.2,1.4c.1.4.3.6.6.8s.5.3.9.3Z"/>
              <path class="cls-44" d="M901.6,519.5c-.6,0-1.1-.2-1.5-.5-.5-.3-.8-.7-1.1-1.3s-.4-1.2-.4-2,.1-1.4.4-1.9c.3-.6.6-1,1.1-1.3.5-.3,1-.5,1.5-.5s1.1.2,1.5.5c.5.3.8.7,1.1,1.3.3.6.4,1.2.4,2s-.1,1.4-.4,2c-.3.6-.6,1-1.1,1.3-.5.3-1,.5-1.5.5ZM901.6,518.2c.3,0,.6,0,.9-.3s.4-.5.6-.8c.1-.4.2-.8.2-1.4s0-1-.2-1.3c-.1-.4-.3-.6-.6-.8-.2-.2-.5-.3-.9-.3s-.6,0-.8.3c-.2.2-.4.4-.6.8-.1.4-.2.8-.2,1.3s0,1,.2,1.4c.1.4.3.6.6.8s.5.3.9.3Z"/>
              <path class="cls-44" d="M908.4,519.5c-.6,0-1.1-.2-1.5-.5-.5-.3-.8-.7-1.1-1.3s-.4-1.2-.4-2,.1-1.4.4-1.9c.3-.6.6-1,1.1-1.3.5-.3,1-.5,1.5-.5s1.1.2,1.5.5c.5.3.8.7,1.1,1.3.3.6.4,1.2.4,2s-.1,1.4-.4,2c-.3.6-.6,1-1.1,1.3-.5.3-1,.5-1.5.5ZM908.4,518.2c.3,0,.6,0,.9-.3s.4-.5.6-.8c.1-.4.2-.8.2-1.4s0-1-.2-1.3c-.1-.4-.3-.6-.6-.8-.2-.2-.5-.3-.9-.3s-.6,0-.8.3c-.2.2-.4.4-.6.8-.1.4-.2.8-.2,1.3s0,1,.2,1.4c.1.4.3.6.6.8s.5.3.9.3Z"/>
            </g>
            <g>
              <path class="cls-44" d="M900.8,580.5c-.6,0-1.1-.2-1.6-.5s-.8-.8-1.1-1.3-.4-1.2-.4-2,.1-1.4.4-2c.3-.6.6-1,1.1-1.3.5-.3,1-.5,1.6-.5s1.1.2,1.6.5c.5.3.8.8,1.1,1.3.3.6.4,1.2.4,2s-.1,1.4-.4,2c-.3.6-.6,1-1.1,1.3-.5.3-1,.5-1.6.5ZM900.8,579.2c.3,0,.6,0,.9-.3.2-.2.4-.5.6-.8.1-.4.2-.8.2-1.4s0-1-.2-1.4c-.1-.4-.3-.7-.6-.8-.2-.2-.5-.3-.9-.3s-.6,0-.9.3-.4.5-.6.8c-.1.4-.2.8-.2,1.4s0,1,.2,1.4c.1.4.3.7.6.8.2.2.5.3.9.3Z"/>
              <path class="cls-44" d="M906.2,575.9c-.3,0-.5,0-.8-.2-.2-.1-.4-.3-.6-.5-.1-.2-.2-.5-.2-.8s0-.5.2-.8c.1-.2.3-.4.5-.5.2-.1.5-.2.8-.2s.6,0,.8.2c.2.1.4.3.5.5s.2.5.2.8,0,.5-.2.8c-.1.2-.3.4-.5.5-.2.1-.5.2-.8.2ZM904.8,580.3l4.6-7.4h1.3l-4.6,7.4h-1.3ZM906.2,574.9c.2,0,.3,0,.4-.1,0,0,.1-.2.1-.4s0-.3-.1-.4c0,0-.2-.1-.4-.1s-.3,0-.4.1c0,0-.1.2-.1.4s0,.3.1.4.2.1.4.1ZM909.4,580.5c-.3,0-.5,0-.8-.2-.2-.1-.4-.3-.5-.5s-.2-.5-.2-.8,0-.5.2-.8c.1-.2.3-.4.5-.5.2-.1.5-.2.8-.2s.5,0,.8.2c.2.1.4.3.5.5.1.2.2.5.2.8s0,.6-.2.8-.3.4-.5.5-.5.2-.8.2ZM909.4,579.5c.2,0,.3,0,.4-.1,0,0,.1-.2.1-.4s0-.3-.1-.4c0,0-.2-.1-.4-.1s-.3,0-.4.1c0,0-.1.2-.1.4s0,.3.1.4.2.1.4.1Z"/>
            </g>
            <g>
              <path class="cls-60" d="M580.5,441.9l3.2-3.3c.2-.2.4-.5.6-.7.1-.2.2-.4.3-.5s0-.3,0-.5c0-.4-.1-.6-.3-.8-.2-.2-.5-.3-.9-.3s-.7,0-1,.3c-.3.2-.6.5-.8.9l-1.1-1c.3-.6.7-1,1.3-1.3.5-.3,1.1-.4,1.7-.4s1.1.1,1.5.3c.4.2.7.5,1,.9s.3.8.3,1.4,0,.7-.1.9c0,.3-.2.6-.4.8-.2.3-.5.6-.8.9l-2.3,2.4h-2.1ZM580.5,442.8v-.9l1.4-.5h4.5v1.4h-5.9Z"/>
              <path class="cls-60" d="M590.9,443c-.7,0-1.3-.2-1.8-.5s-1-.9-1.3-1.5c-.3-.7-.5-1.4-.5-2.3s.2-1.6.5-2.3c.3-.7.7-1.2,1.3-1.5.5-.4,1.1-.5,1.8-.5s1.3.2,1.8.5c.5.4,1,.9,1.3,1.5.3.7.5,1.4.5,2.3s-.2,1.7-.5,2.3c-.3.7-.7,1.2-1.3,1.5s-1.1.5-1.8.5ZM590.8,441.4c.4,0,.7-.1,1-.3s.5-.5.7-1c.2-.4.2-1,.2-1.6s0-1.2-.2-1.6c-.2-.4-.4-.8-.7-1-.3-.2-.6-.3-1-.3s-.7.1-1,.3c-.3.2-.5.5-.7.9-.2.4-.2,1-.2,1.6s0,1.2.2,1.6c.2.4.4.8.7,1,.3.2.6.3,1,.3Z"/>
              <path class="cls-60" d="M595.1,441.9l3.2-3.3c.2-.2.4-.5.6-.7.1-.2.2-.4.3-.5s0-.3,0-.5c0-.4-.1-.6-.3-.8-.2-.2-.5-.3-.9-.3s-.7,0-1,.3c-.3.2-.6.5-.8.9l-1.1-1c.3-.6.7-1,1.3-1.3.5-.3,1.1-.4,1.7-.4s1.1.1,1.5.3c.4.2.7.5,1,.9s.3.8.3,1.4,0,.7-.1.9c0,.3-.2.6-.4.8-.2.3-.5.6-.8.9l-2.3,2.4h-2.1ZM595.1,442.8v-.9l1.4-.5h4.5v1.4h-5.9Z"/>
              <path class="cls-60" d="M604.5,443c-.6,0-1.1-.1-1.6-.3-.5-.2-.9-.5-1.2-.9l1.1-1.1c.2.2.4.4.7.6.3.1.6.2,1,.2s.6,0,.9-.2c.2-.1.4-.3.6-.5.1-.2.2-.5.2-.8s0-.6-.2-.8c-.1-.2-.3-.4-.6-.5-.2-.1-.5-.2-.8-.2s-.6,0-.8.1c-.2,0-.5.2-.7.4v-1.1c.2-.2.4-.3.6-.4.2-.1.4-.2.6-.2.2,0,.5,0,.8,0,.6,0,1.1.1,1.5.4s.7.6.9,1c.2.4.3.9.3,1.4s-.1,1.1-.4,1.5c-.3.4-.7.8-1.1,1-.5.2-1.1.4-1.7.4ZM603.1,439l-.8-.8.4-3.9h1.5l-.4,4-.7.7ZM602.9,435.8l-.2-1.4h4.7v1.4h-4.4Z"/>
              <path class="cls-60" d="M608.3,443.4l3.2-9.6h1.4l-3.2,9.6h-1.4Z"/>
              <path class="cls-60" d="M613.2,435.8v-1.4h3.2v1.4h-3.2ZM614.9,442.8v-8.5h1.6v8.5h-1.6Z"/>
              <path class="cls-60" d="M617.7,435.8v-1.4h3.2s0,1.4,0,1.4h-3.2ZM619.3,442.8v-8.5h1.6s0,8.5,0,8.5h-1.6Z"/>
              <path class="cls-60" d="M621.9,443.4l3.2-9.6h1.4l-3.2,9.6h-1.4Z"/>
              <path class="cls-60" d="M626.9,441.9l3.2-3.3c.2-.2.4-.5.6-.7.1-.2.2-.4.3-.5s0-.3,0-.5c0-.4-.1-.6-.3-.8-.2-.2-.5-.3-.9-.3s-.7,0-1,.3c-.3.2-.6.5-.8.9l-1.1-1c.3-.6.7-1,1.3-1.3.5-.3,1.1-.4,1.7-.4s1.1.1,1.5.3c.4.2.7.5,1,.9s.3.8.3,1.4,0,.7-.1.9c0,.3-.2.6-.4.8-.2.3-.5.6-.8.9l-2.3,2.4h-2.1ZM626.9,442.8v-.9l1.4-.5h4.5v1.4h-5.9Z"/>
              <path class="cls-60" d="M636.3,443c-.6,0-1.1-.1-1.6-.3-.5-.2-.9-.5-1.2-.9l1.1-1.1c.2.2.4.4.7.6.3.1.6.2,1,.2s.6,0,.8-.2c.2-.1.4-.3.5-.5.1-.2.2-.5.2-.8s0-.5-.2-.7c-.1-.2-.3-.4-.6-.5-.2-.1-.5-.2-.9-.2s-.3,0-.5,0-.3,0-.4,0l.7-.9c.2,0,.4-.1.6-.2.2,0,.4,0,.5,0,.4,0,.8.1,1.2.3.4.2.6.5.8.9.2.4.3.8.3,1.3s-.1,1-.4,1.5c-.3.4-.6.8-1.1,1-.5.2-1,.4-1.7.4ZM634,435.8v-1.4h5.4v.9l-1.4.5h-4ZM635.3,438.8v-1l2.2-2.5h1.9s-2.3,2.6-2.3,2.6l-1.8.9Z"/>
            </g>
            <g>
              <path class="cls-60" d="M664.4,519.9c-.6,0-1.1,0-1.5-.3s-.8-.5-1.1-.9l.9-.9c.2.3.5.5.7.7s.6.2,1,.2.6,0,.9-.2.3-.3.3-.6,0-.4-.2-.5c-.1-.1-.3-.3-.5-.3-.2,0-.4-.2-.7-.3s-.5-.2-.7-.3c-.2-.1-.5-.2-.7-.4s-.4-.4-.5-.6c-.1-.2-.2-.5-.2-.9s.1-.8.3-1.1.5-.5.9-.7c.4-.2.8-.2,1.2-.2s.9,0,1.3.3.7.4,1,.7l-.9.9c-.2-.2-.4-.4-.7-.5-.2-.1-.5-.2-.8-.2s-.6,0-.8.2c-.2.1-.3.3-.3.5s0,.4.2.5c.1.1.3.2.5.3.2,0,.4.2.7.3.2,0,.5.2.7.3.2.1.5.2.7.4.2.2.4.4.5.6.1.3.2.6.2.9,0,.7-.2,1.2-.7,1.6-.5.4-1.1.6-1.9.6Z"/>
              <path class="cls-60" d="M667.4,519.8l2.9-7.2h1.1l2.9,7.2h-1.5l-2.2-5.9h.5l-2.3,5.9h-1.5ZM668.9,518.4v-1.2h3.9v1.2h-3.9Z"/>
              <path class="cls-60" d="M674.8,517.8v-1.2h3.5v1.2h-3.5Z"/>
              <path class="cls-60" d="M681,519.9c-.5,0-.9,0-1.3-.3-.4-.2-.7-.4-1-.8l.9-.9c.1.2.3.4.6.5s.5.2.8.2.5,0,.7-.1.4-.2.5-.4.2-.4.2-.6,0-.5-.2-.6-.3-.3-.5-.4c-.2,0-.5-.1-.8-.1s-.3,0-.4,0c-.1,0-.3,0-.3,0l.6-.8c.2,0,.3,0,.5-.1.2,0,.3,0,.5,0,.4,0,.7,0,1,.3s.5.4.7.7c.2.3.3.7.3,1.1s-.1.9-.3,1.2c-.2.4-.5.6-.9.8-.4.2-.9.3-1.4.3ZM679,513.8v-1.2h4.6v.8l-1.1.4h-3.4ZM680.1,516.3v-.8l1.8-2.1h1.6s-1.9,2.2-1.9,2.2l-1.5.8Z"/>
              <path class="cls-60" d="M687.5,519.9c-.6,0-1.1-.2-1.5-.5-.5-.3-.8-.7-1.1-1.3s-.4-1.2-.4-2,.1-1.4.4-1.9c.3-.6.6-1,1.1-1.3.5-.3,1-.5,1.5-.5s1.1.2,1.5.5c.5.3.8.7,1.1,1.3.3.6.4,1.2.4,2s-.1,1.4-.4,2c-.3.6-.6,1-1.1,1.3-.5.3-1,.5-1.5.5ZM687.4,518.6c.3,0,.6,0,.9-.3.2-.2.4-.5.6-.8.1-.4.2-.8.2-1.4s0-1-.2-1.3c-.1-.4-.3-.6-.6-.8-.2-.2-.5-.3-.9-.3s-.6,0-.8.3-.4.4-.6.8c-.1.4-.2.8-.2,1.3s0,1,.2,1.4c.1.4.3.6.6.8s.5.3.9.3Z"/>
              <path class="cls-60" d="M694.2,519.9c-.6,0-1.1-.2-1.5-.5-.5-.3-.8-.7-1.1-1.3s-.4-1.2-.4-2,.1-1.4.4-1.9c.3-.6.6-1,1.1-1.3.5-.3,1-.5,1.5-.5s1.1.2,1.5.5c.5.3.8.7,1.1,1.3.3.6.4,1.2.4,2s-.1,1.4-.4,2c-.3.6-.6,1-1.1,1.3-.5.3-1,.5-1.5.5ZM694.2,518.6c.3,0,.6,0,.9-.3.2-.2.4-.5.6-.8.1-.4.2-.8.2-1.4s0-1-.2-1.3c-.1-.4-.3-.6-.6-.8-.2-.2-.5-.3-.9-.3s-.6,0-.8.3-.4.4-.6.8c-.1.4-.2.8-.2,1.3s0,1,.2,1.4c.1.4.3.6.6.8s.5.3.9.3Z"/>
              <path class="cls-60" d="M701,519.9c-.6,0-1.1-.2-1.5-.5-.5-.3-.8-.7-1.1-1.3s-.4-1.2-.4-2,.1-1.4.4-1.9c.3-.6.6-1,1.1-1.3.5-.3,1-.5,1.5-.5s1.1.2,1.5.5c.5.3.8.7,1.1,1.3.3.6.4,1.2.4,2s-.1,1.4-.4,2c-.3.6-.6,1-1.1,1.3-.5.3-1,.5-1.5.5ZM701,518.6c.3,0,.6,0,.9-.3.2-.2.4-.5.6-.8.1-.4.2-.8.2-1.4s0-1-.2-1.3c-.1-.4-.3-.6-.6-.8-.2-.2-.5-.3-.9-.3s-.6,0-.8.3-.4.4-.6.8c-.1.4-.2.8-.2,1.3s0,1,.2,1.4c.1.4.3.6.6.8s.5.3.9.3Z"/>
            </g>
            <rect class="cls-51" x="689.7" y="70.1" width="26.8" height="13.2" rx="3.4" ry="3.4"/>
            <g>
              <polygon class="cls-26" points="582.3 472.8 587 470 592.1 472.8 587.2 475.7 582.3 472.8"/>
              <polygon class="cls-26" points="582.3 472.8 582.3 478.5 587.2 481.5 587.2 475.7 582.3 472.8"/>
              <polygon class="cls-26" points="592.1 472.8 592.1 478.5 587.2 481.5 587.2 475.7 592.1 472.8"/>
              <line class="cls-26" x1="584.6" y1="471.4" x2="589.5" y2="474.3"/>
            </g>
          </g>
          <path class="cls-49" d="M710.2,78.3h-14c-.9,0-1.7-.8-1.7-1.7h0c0-.9.6-1.7,1.5-1.7h14c.9,0,1.7.8,1.7,1.7h0c0,.9-.6,1.7-1.5,1.7Z"/>
          <rect class="cls-48" x="588.1" y="92.8" width="86.5" height="8.1" rx="3.8" ry="3.8"/>
          <rect class="cls-40" x="904.3" y="60.6" width="23.9" height="23.9" rx="4.7" ry="4.7"/>
          <line class="cls-7" x1="911.8" y1="68.3" x2="919.5" y2="76.1"/>
          <line class="cls-7" x1="919.5" y1="68.3" x2="911.8" y2="76.1"/>
          <rect class="cls-18" x="569.1" y="115.5" width="363.4" height="28.3"/>
          <rect class="cls-13" x="582.2" y="115.5" width="62" height="28.3" rx="6.3" ry="6.3"/>
          <rect class="cls-44" x="593.6" y="125.6" width="39.1" height="8.1" rx="3.8" ry="3.8"/>
          <rect class="cls-58" x="661.2" y="125.6" width="39.1" height="8.1" rx="3.8" ry="3.8"/>
          <rect class="cls-58" x="740.6" y="125.6" width="51" height="8.1" rx="3.8" ry="3.8"/>
          <text class="cls-29" transform="translate(598.7 184.3)"><tspan x="0" y="0">受注ステータス</tspan></text>
          <circle class="cls-44" cx="616.6" cy="216.6" r="17.3"/>
          <circle class="cls-2" cx="671.1" cy="222" r="17.3"/>
          <circle class="cls-2" cx="723.3" cy="222" r="17.3"/>
          <circle class="cls-2" cx="781.6" cy="222" r="17.3"/>
          <circle class="cls-2" cx="834" cy="222" r="17.3"/>
          <circle class="cls-2" cx="887.7" cy="222" r="17.3"/>
          <g>
            <path class="cls-27" d="M622,214v8.2c0,.6-.5,1-1,1h-8.8c-.6,0-1-.5-1-1v-11.3c0-.6.5-1,1-1h5.8l4,4.1Z"/>
            <path class="cls-27" d="M622,214h-3.6c-.2,0-.4-.2-.4-.4v-3.7l4,4.1Z"/>
            <line class="cls-27" x1="613.7" y1="214.6" x2="615.6" y2="214.6"/>
            <line class="cls-27" x1="613.7" y1="217.3" x2="619.6" y2="217.3"/>
            <line class="cls-27" x1="613.7" y1="219.9" x2="619.6" y2="219.9"/>
          </g>
          <g>
            <polyline class="cls-24" points="663.8 223.8 667.8 227.8 677.9 217.6"/>
            <g>
              <polygon class="cls-15" points="774.8 218.7 781.5 214.6 788.7 218.7 781.8 222.8 774.8 218.7"/>
              <polygon class="cls-15" points="774.8 218.7 774.8 226.8 781.8 231 781.8 222.8 774.8 218.7"/>
              <polygon class="cls-15" points="788.7 218.7 788.7 226.8 781.8 231 781.8 222.8 788.7 218.7"/>
              <line class="cls-15" x1="778.2" y1="216.6" x2="785.1" y2="220.8"/>
            </g>
            <g>
              <polygon class="cls-15" points="716.4 218.7 723.1 214.6 730.3 218.7 723.4 222.8 716.4 218.7"/>
              <polygon class="cls-15" points="716.4 218.7 716.4 226.8 723.4 231 723.4 222.8 716.4 218.7"/>
              <polygon class="cls-15" points="730.3 218.7 730.3 226.8 723.4 231 723.4 222.8 730.3 218.7"/>
            </g>
            <g>
              <rect class="cls-10" x="827.2" y="216.4" width="10.3" height="8.8"/>
              <polyline class="cls-10" points="837.5 219.9 839.9 219.9 842.1 222.2 842.1 225.2 837.5 225.2"/>
              <circle class="cls-10" cx="839.2" cy="226.9" r="1.7" transform="translate(-30 242) rotate(-16.1)"/>
              <circle class="cls-10" cx="830.2" cy="226.9" r="1.7" transform="translate(-30.4 239.5) rotate(-16.1)"/>
            </g>
            <g>
              <path class="cls-23" d="M895.3,222.8c0,4.2-3.4,7.7-7.7,7.7-4.2,0-7.7-3.4-7.7-7.7,0-4.2,3.4-7.7,7.7-7.7"/>
              <polyline class="cls-23" points="884.9 221 887.7 223.7 894.7 216.7"/>
            </g>
          </g>
          <rect class="cls-44" x="603.5" y="244.1" width="26.1" height="6.5" rx="3" ry="3"/>
          <rect class="cls-61" x="661.2" y="250.5" width="17.9" height="6.5" rx="3" ry="3"/>
          <rect class="cls-61" x="598.7" y="298.6" width="35.2" height="7.4" rx="3.5" ry="3.5"/>
          <rect class="cls-61" x="581" y="358.8" width="35.2" height="7.4" rx="3.5" ry="3.5"/>
          <rect class="cls-61" x="581" y="415.9" width="16.1" height="7.4" rx="3.5" ry="3.5"/>
          <rect class="cls-60" x="598.5" y="472" width="37.2" height="7.4" rx="3.5" ry="3.5"/>
          <rect class="cls-60" x="594" y="512.9" width="61.5" height="7.4" rx="3.5" ry="3.5"/>
          <rect class="cls-61" x="594" y="529.4" width="78" height="7.4" rx="3.5" ry="3.5"/>
          <rect class="cls-61" x="594" y="551.8" width="51.3" height="7.4" rx="3.5" ry="3.5"/>
          <rect class="cls-61" x="594" y="572.3" width="33.5" height="7.4" rx="3.5" ry="3.5"/>
          <rect class="cls-61" x="658.4" y="551.8" width="70.6" height="7.4" rx="3.5" ry="3.5"/>
          <rect class="cls-60" x="641.6" y="472" width="21.3" height="7.4" rx="3.5" ry="3.5"/>
          <rect class="cls-44" x="786.9" y="464.2" width="67" height="23.4" rx="3.5" ry="3.5"/>
          <rect class="cls-44" x="835.8" y="598.6" width="49.1" height="23.4" rx="3.5" ry="3.5"/>
          <rect class="cls-59" x="857.7" y="464.2" width="67" height="23.4" rx="3.5" ry="3.5"/>
          <rect class="cls-61" x="655.3" y="262.5" width="29.6" height="6.5" rx="3" ry="3"/>
          <rect class="cls-61" x="713.2" y="250.5" width="23" height="6.5" rx="3" ry="3"/>
          <rect class="cls-61" x="709.9" y="262.5" width="29.6" height="6.5" rx="3" ry="3"/>
          <rect class="cls-61" x="822.5" y="250.5" width="23" height="6.5" rx="3" ry="3"/>
          <rect class="cls-61" x="824" y="262.5" width="20.1" height="6.5" rx="3" ry="3"/>
          <rect class="cls-61" x="879.7" y="250.5" width="15.9" height="6.5" rx="3" ry="3"/>
          <rect class="cls-61" x="873.8" y="262.5" width="27.7" height="6.5" rx="3" ry="3"/>
          <rect class="cls-61" x="762.9" y="250.5" width="36" height="6.5" rx="3" ry="3"/>
          <rect class="cls-61" x="766.1" y="262.5" width="29.6" height="6.5" rx="3" ry="3"/>
          <rect class="cls-44" x="599.3" y="256.8" width="34.6" height="6.5" rx="3" ry="3"/>
          <rect class="cls-44" x="613.2" y="267.8" width="6.8" height="6.5" rx="3" ry="3"/>
          <g>
            <rect class="cls-47" x="598.7" y="314.5" width="302.8" height="5.7" rx="2.7" ry="2.7"/>
            <rect class="cls-63" x="598.7" y="314.5" width="42" height="5.7" rx="2.7" ry="2.7"/>
          </g>
          <g>
            <rect class="cls-6" x="867.2" y="471.7" width="7" height="5.9"/>
            <polyline class="cls-6" points="874.2 474.1 875.8 474.1 877.3 475.6 877.3 477.6 874.2 477.6"/>
            <circle class="cls-6" cx="875.3" cy="478.8" r="1.1" transform="translate(-98.8 263.2) rotate(-16.2)"/>
            <circle class="cls-6" cx="869.3" cy="478.8" r="1.1" transform="translate(-99.1 261.5) rotate(-16.2)"/>
          </g>
          <g>
            <path class="cls-34" d="M805,476c0,2.8-2.3,5.2-5.2,5.2s-5.2-2.3-5.2-5.2c0-2.8,2.3-5.2,5.2-5.2"/>
            <polyline class="cls-34" points="798 474.8 799.9 476.6 804.6 471.9"/>
          </g>
          <rect class="cls-43" x="813.2" y="472" width="29.7" height="7.4" rx="3.5" ry="3.5"/>
          <rect class="cls-43" x="855.6" y="607.5" width="22.8" height="5.7" rx="2.7" ry="2.7"/>
          <rect class="cls-43" x="884.9" y="472" width="29.7" height="7.4" rx="3.5" ry="3.5"/>
          <rect class="cls-51" x="709.6" y="509.5" width="26.8" height="13.2" rx="3.4" ry="3.4"/>
          <path class="cls-49" d="M730.2,517.8h-14c-.9,0-1.7-.8-1.7-1.7h0c0-.9.6-1.7,1.5-1.7h14c.9,0,1.7.8,1.7,1.7h0c0,.9-.6,1.7-1.5,1.7Z"/>
          <rect class="cls-51" x="597.1" y="587.5" width="315.1" height="5.3" rx="2.5" ry="2.5"/>
          <polyline class="cls-34" points="842.5 610.8 844.4 612.7 849.1 607.9"/>
          <line class="cls-31" x1="897.9" y1="607.8" x2="903.4" y2="613.2"/>
          <line class="cls-31" x1="903.4" y1="607.8" x2="897.9" y2="613.2"/>
          <g>
            <rect class="cls-60" x="599.9" y="664.6" width="46.4" height="7.4" rx="3.5" ry="3.5"/>
            <g>
              <path class="cls-28" d="M590.7,665.7v6.5c0,.4-.4.8-.8.8h-6.9c-.4,0-.8-.4-.8-.8v-8.9c0-.4.4-.8.8-.8h4.5l3.1,3.2Z"/>
              <path class="cls-28" d="M590.7,665.7h-2.8c-.2,0-.3-.2-.3-.3v-2.9l3.1,3.2Z"/>
              <line class="cls-28" x1="584.2" y1="666.2" x2="585.7" y2="666.2"/>
              <line class="cls-28" x1="584.2" y1="668.3" x2="588.9" y2="668.3"/>
              <line class="cls-28" x1="584.2" y1="670.4" x2="588.9" y2="670.4"/>
            </g>
            <g>
              <rect class="cls-57" x="581" y="688.1" width="341.4" height="108.6" rx="7.8" ry="7.8"/>
              <rect class="cls-33" x="581" y="688.1" width="341.4" height="108.6" rx="7.8" ry="7.8"/>
            </g>
            <g>
              <path class="cls-37" d="M762.3,712.1v16c0,1.1-.9,2-2,2h-17c-1.1,0-2-.9-2-2v-22.1c0-1.1.9-1.9,2-1.9h11.2l7.8,8Z"/>
              <path class="cls-37" d="M762.3,712.1h-7c-.4,0-.8-.4-.8-.8v-7.2l7.8,8Z"/>
              <line class="cls-37" x1="746.2" y1="713.4" x2="749.9" y2="713.4"/>
              <line class="cls-37" x1="746.2" y1="718.5" x2="757.7" y2="718.5"/>
              <line class="cls-37" x1="746.2" y1="723.7" x2="757.7" y2="723.7"/>
            </g>
            <rect class="cls-62" x="702.1" y="743.9" width="99.7" height="7.4" rx="3.5" ry="3.5"/>
            <rect class="cls-62" x="670.6" y="763.8" width="162.6" height="7.4" rx="3.5" ry="3.5"/>
          </g>
        </g>
        <line class="cls-9" x1="913.4" y1="738.1" x2="573.3" y2="738.1"/>
      </g>
    </g>
  </g>
</svg>