<?xml version="1.0" encoding="UTF-8"?>
<svg xmlns="http://www.w3.org/2000/svg" version="1.1" xmlns:xlink="http://www.w3.org/1999/xlink" viewBox="0 0 1000 880.7">
  <defs>
    <style>
      .cls-1 {
        stroke: #c62f30;
        stroke-width: .5px;
      }

      .cls-1, .cls-2, .cls-3, .cls-4, .cls-5, .cls-6, .cls-7, .cls-8, .cls-9, .cls-10, .cls-11, .cls-12, .cls-13, .cls-14, .cls-15, .cls-16, .cls-17, .cls-18, .cls-19, .cls-20, .cls-21, .cls-22, .cls-23, .cls-24, .cls-25, .cls-26, .cls-27, .cls-28, .cls-29, .cls-30 {
        stroke-linecap: round;
        stroke-linejoin: round;
      }

      .cls-1, .cls-3, .cls-4, .cls-5, .cls-6, .cls-12, .cls-15, .cls-19, .cls-23, .cls-26, .cls-27, .cls-28, .cls-30 {
        fill: none;
      }

      .cls-2 {
        font-size: 8.3px;
        stroke-width: .3px;
      }

      .cls-2, .cls-4, .cls-6, .cls-7, .cls-8, .cls-11, .cls-31, .cls-13, .cls-29 {
        stroke: #000;
      }

      .cls-2, .cls-8, .cls-10, .cls-11, .cls-31, .cls-13, .cls-17, .cls-18, .cls-32, .cls-29, .cls-33 {
        font-family: KozGoPr6N-Regular-90ms-RKSJ-H, 'Kozuka Gothic Pr6N';
      }

      .cls-34, .cls-16, .cls-25 {
        fill: #fff4e6;
      }

      .cls-35 {
        fill: #fef4c6;
      }

      .cls-36 {
        fill: #fff5e5;
      }

      .cls-3 {
        stroke-width: .8px;
      }

      .cls-3, .cls-22, .cls-32, .cls-24, .cls-25, .cls-27 {
        stroke: #f59e0b;
      }

      .cls-4, .cls-26, .cls-30 {
        stroke-width: .6px;
      }

      .cls-37 {
        fill: #f49d0d;
      }

      .cls-5 {
        stroke-width: 1.2px;
      }

      .cls-5, .cls-16 {
        stroke: #ffddb3;
      }

      .cls-38 {
        opacity: .1;
      }

      .cls-38, .cls-10, .cls-18, .cls-39 {
        fill: #6e6e73;
      }

      .cls-6, .cls-12 {
        stroke-width: .8px;
      }

      .cls-40 {
        fill: #c9c9c9;
      }

      .cls-41, .cls-42, .cls-20 {
        fill: #fff;
      }

      .cls-7 {
        stroke-width: .5px;
      }

      .cls-42 {
        stroke-width: 1px;
      }

      .cls-42, .cls-12, .cls-14, .cls-17 {
        stroke: #e19c49;
      }

      .cls-42, .cls-31, .cls-32, .cls-33 {
        stroke-miterlimit: 10;
      }

      .cls-43 {
        fill: #858588;
      }

      .cls-8 {
        font-size: 13.5px;
        stroke-width: .5px;
      }

      .cls-9 {
        stroke-width: .9px;
      }

      .cls-9, .cls-19, .cls-20 {
        stroke: #e5e7eb;
      }

      .cls-9, .cls-44 {
        fill: #fafafa;
      }

      .cls-10 {
        font-size: 5.5px;
        stroke-width: .2px;
      }

      .cls-10, .cls-18, .cls-26 {
        stroke: #6e6e73;
      }

      .cls-11 {
        font-size: 9.7px;
        stroke-width: .3px;
      }

      .cls-45 {
        fill: #ef4444;
      }

      .cls-31, .cls-32, .cls-33 {
        font-size: 5.5px;
        stroke-width: .2px;
      }

      .cls-13 {
        font-size: 7.2px;
        stroke-width: .3px;
      }

      .cls-14 {
        font-family: HiraKakuProN-W3-90ms-RKSJ-H, 'Hiragino Kaku Gothic ProN';
        font-size: 8.1px;
        stroke-width: .1px;
      }

      .cls-14, .cls-17, .cls-46 {
        fill: #e19c49;
      }

      .cls-15 {
        stroke-width: .5px;
      }

      .cls-15, .cls-30 {
        stroke: #fff;
      }

      .cls-16 {
        stroke-width: .5px;
      }

      .cls-47 {
        fill: #ffe1e1;
      }

      .cls-17, .cls-18 {
        font-size: 16.3px;
        stroke-width: .8px;
      }

      .cls-19, .cls-20, .cls-25 {
        stroke-width: 1px;
      }

      .cls-21 {
        fill: #f1fdf4;
        stroke: #0bb980;
        stroke-width: .9px;
      }

      .cls-48, .cls-33 {
        fill: #10b981;
      }

      .cls-49 {
        fill: #333;
      }

      .cls-22 {
        stroke-width: .6px;
      }

      .cls-22, .cls-24 {
        fill: #ffddb3;
      }

      .cls-23 {
        stroke: #d1d1d1;
        stroke-width: .9px;
      }

      .cls-50, .cls-32 {
        fill: #f59e0b;
      }

      .cls-24 {
        stroke-width: .4px;
      }

      .cls-51 {
        fill: #0bb980;
      }

      .cls-27, .cls-28 {
        stroke-width: .5px;
      }

      .cls-28, .cls-33 {
        stroke: #10b981;
      }

      .cls-52 {
        fill: #d1fae3;
      }

      .cls-29 {
        font-size: 12.7px;
        stroke-width: .4px;
      }

      .cls-53 {
        fill: #d1d1d1;
      }

      .cls-54 {
        fill: #e5e7eb;
      }
    </style>
  </defs>
  <!-- Generator: Adobe Illustrator 28.7.1, SVG Export Plug-In . SVG Version: 1.2.0 Build 142)  -->
  <g>
    <g id="Layer_1">
      <path class="cls-34" d="M753.4,72.9c-105.5,66.3-36.6,155,68.4,102.1s90.8-202.2-68.4-102.1Z"/>
      <path class="cls-34" d="M100.9,153.4C408.8-4.6,711.8,6,665.7,92.4s5.3,189.6,138,144.1,218.8,54.2,127.2,204.4c-91.6,150.2-137.1,86.8-178,224.6s-149.9,181.8-318.2,169.7S23.8,557.6,10.2,386.4s90.7-233,90.7-233Z"/>
      <g>
        <g>
          <g>
            <g>
              <path class="cls-38" d="M821.9,154.8v599.2c0,16.1-11.2,29.2-25,29.2H102.3c-13.8,0-25-13.1-25-29.2V154.8c0-16.1,11.2-29.2,25-29.2h694.6c13.8,0,25,13.1,25,29.2Z"/>
              <path class="cls-41" d="M798.4,131.1v614.5c0,7.6-5.3,13.7-11.9,13.7H74.6c-6.6,0-11.9-6.1-11.9-13.7V131.1c0-7.6,5.3-13.7,11.9-13.7h711.9c6.6,0,11.9,6.1,11.9,13.7Z"/>
              <path class="cls-49" d="M798.4,131.1v32.6H62.7v-32.6c0-7.6,5.3-13.7,11.9-13.7h711.9c6.6,0,11.9,6.1,11.9,13.7Z"/>
              <path class="cls-46" d="M100.4,140.7c0,5-4,9.1-8.9,9.1s-8.9-4.1-8.9-9.1,4-9.1,8.9-9.1,8.9,4.1,8.9,9.1Z"/>
              <ellipse class="cls-46" cx="124.4" cy="140.7" rx="8.9" ry="9.1"/>
              <ellipse class="cls-46" cx="156.4" cy="140.7" rx="8.9" ry="9.1"/>
            </g>
            <image width="3232" height="1011" transform="translate(82.5 176.2) scale(0)" xlink:href="C:\Users\Hariyana\Downloads\sainta-core.png"/>
            <g>
              <text class="cls-8" transform="translate(713.1 197.4)"><tspan x="0" y="0" xml:space="preserve"> 山田 太郎</tspan></text>
              <g>
                <path class="cls-46" d="M688.7,176.6c4.2,0,8.1,1.6,11,4.6,3,3,4.6,6.9,4.6,11s-1.6,8.1-4.6,11c-2.9,3-6.9,4.6-11,4.6s-8.1-1.6-11-4.6c-2.9-2.9-4.6-6.9-4.6-11s1.6-8.1,4.6-11c3-2.9,6.9-4.6,11-4.6M688.7,175.1c-4.6,0-8.9,1.8-12.1,5-3.2,3.2-5,7.5-5,12.1s1.8,8.9,5,12.1c3.2,3.2,7.5,5,12.1,5s8.9-1.8,12.1-5c3.2-3.2,5-7.5,5-12.1s-1.8-8.9-5-12.1c-3.2-3.2-7.5-5-12.1-5h0Z"/>
                <path class="cls-46" d="M696.6,189.8c0-2.2-.6-4.2-1.9-6-.9-1.3-2.1-2.3-3.7-2.8-.8-.2-1.7-.3-2.5-.3-1.1,0-2.1.4-3,1-1.3.8-2.1,2-2.6,3.4-.2.7-.4,1.3-.5,2,0,.3,0,.7,0,1,0,.2.3.4.5.6,0,0,.1,0,0,.1-.3,1-.6,1.9-1.3,2.8-.4.5-.9,1-1.3,1.6-.3.4-.6.8-.8,1.2,0,.1,0,.2,0,.4,0,.5.2.8.7.8.8,0,1.4-.2,2.1-.6.9-.4,1.7-1,2.4-1.7.5-.4.9-.9,1.4-1.3.4-.4.8-.7,1.4-.8,0,0,.1,0,0-.1-.2-.6-.2-1.1-.2-1.7,0-.8.2-1.5.7-2.1.2-.2.2-.5,0-.8-.3-.7.3-1.5,1-1.5.4,0,.7.4.8.8,0,.6-.2,1-.7,1.2-1,.6-1.3,1.4-1.3,2.5,0,.5,0,1,.2,1.5,0,.1,0,.2.2.2,1.4,0,2.6-.6,3.5-1.6.2-.2.3-.4.4-.7,0,0,0,0,0,0,0,0,0,0,0,0,0,.3,0,.6,0,.9,0,1.4-.5,2.7-1.1,3.9-.9,2.1-2,4.1-3.3,6.1-1.2,1.9-2.5,3.7-3.8,5.6-.5.8-1.1,1.6-1.6,2.5,0,0,0,0,0,0,2,.9,4.2,1.3,6.4,1.3s2.5-.1,3.7-.4c.7-2.5,1.6-4.9,2.3-7.4.3-1.2.6-2.5.9-3.7.1-.8.3-1.6.4-2.4,0-.6.1-1.1.2-1.7.1-1.2.2-2.4.1-3.6Z"/>
              </g>
            </g>
            <g>
              <g>
                <g>
                  <path class="cls-6" d="M98.1,236.9h-3.8c-.9,0-1.7.7-1.7,1.7h0c0,.9.7,1.7,1.7,1.7h2.6c.9,0,1.7.7,1.7,1.7v.4c0,.9-.7,1.7-1.7,1.7h-4.6"/>
                  <line class="cls-6" x1="95.4" y1="234.7" x2="95.4" y2="246.1"/>
                </g>
                <g>
                  <circle class="cls-6" cx="95.3" cy="296.2" r="1.9"/>
                  <path class="cls-6" d="M99.4,303.5v-1.3c0-1.1-.9-2-2-2h-3.8c-1.1,0-2,.9-2,2v1.3"/>
                </g>
                <g>
                  <circle class="cls-6" cx="93.9" cy="267.3" r="1.9"/>
                  <path class="cls-6" d="M97,265.3c1.1,0,1.9.9,1.9,1.9s-.9,1.9-1.9,1.9"/>
                  <path class="cls-6" d="M98,274.5v-1.3c0-1.1-.9-2-2-2h-3.8c-1.1,0-2,.9-2,2v1.3"/>
                  <path class="cls-6" d="M101.1,274.5v-1.3c0-1.1-.9-2-2-2"/>
                </g>
                <g>
                  <polyline class="cls-6" points="90.1 331.3 93.7 327.8 96.1 330.2 100.6 325.7"/>
                  <polyline class="cls-6" points="98 325.5 100.8 325.5 100.8 328.7"/>
                </g>
                <g>
                  <path class="cls-6" d="M99.5,385.1v6.2c0,.4-.3.8-.8.8h-6.6c-.4,0-.8-.3-.8-.8v-8.5c0-.4.3-.7.8-.7h4.3l3,3.1Z"/>
                  <path class="cls-6" d="M99.5,385.1h-2.7c-.2,0-.3-.1-.3-.3v-2.8l3,3.1Z"/>
                  <line class="cls-6" x1="93.3" y1="385.6" x2="94.7" y2="385.6"/>
                  <line class="cls-6" x1="93.3" y1="387.6" x2="97.7" y2="387.6"/>
                  <line class="cls-6" x1="93.3" y1="389.6" x2="97.7" y2="389.6"/>
                </g>
                <g>
                  <circle cx="93.9" cy="421" r=".9"/>
                  <g>
                    <path class="cls-6" d="M89.9,410.9h2.1l1.4,6.7c0,.4.5.8.9.8h4.7c.4,0,.8-.3.9-.7l1.1-4.4h-8.6"/>
                    <circle cx="99.4" cy="421" r=".9"/>
                  </g>
                </g>
                <g>
                  <circle class="cls-6" cx="95.5" cy="444.5" r="5"/>
                  <polyline class="cls-6" points="95.5 441.3 95.5 444.5 97.4 445.4"/>
                </g>
                <g>
                  <rect class="cls-36" x="80.3" y="344.1" width="109.7" height="27.1" rx="4" ry="4"/>
                  <g>
                    <polygon class="cls-12" points="91.3 355.1 95.4 352.6 99.8 355.1 95.5 357.7 91.3 355.1"/>
                    <polygon class="cls-12" points="91.3 355.1 91.3 360.1 95.5 362.7 95.5 357.7 91.3 355.1"/>
                    <polygon class="cls-12" points="99.8 355.1 99.8 360.1 95.5 362.7 95.5 357.7 99.8 355.1"/>
                    <line class="cls-12" x1="93.3" y1="353.9" x2="97.6" y2="356.4"/>
                  </g>
                  <text class="cls-14" transform="translate(110.2 360.8)"><tspan x="0" y="0">在庫・製品管理</tspan></text>
                </g>
              </g>
              <rect class="cls-40" x="111.6" y="238.7" width="32.5" height="8" rx="4" ry="4"/>
              <rect class="cls-40" x="111.6" y="267.1" width="32.5" height="8" rx="4" ry="4"/>
              <rect class="cls-40" x="111.6" y="325.6" width="32.5" height="8" rx="4" ry="4"/>
              <rect class="cls-40" x="111.6" y="383.5" width="40" height="8" rx="4" ry="4"/>
              <rect class="cls-40" x="111.6" y="410.7" width="40" height="8" rx="4" ry="4"/>
              <rect class="cls-40" x="111.6" y="440.5" width="31" height="8" rx="4" ry="4"/>
              <rect class="cls-40" x="111.6" y="296.4" width="40.6" height="8" rx="4" ry="4"/>
            </g>
            <line class="cls-19" x1="62.7" y1="220.7" x2="798.4" y2="220.7"/>
            <line class="cls-19" x1="198.9" y1="220.7" x2="198.9" y2="759.3"/>
            <line class="cls-19" x1="199.1" y1="313" x2="798.6" y2="313"/>
          </g>
          <g>
            <g>
              <g>
                <path class="cls-7" d="M228.3,242.4c1.1,0,1.8,0,2.3-.1v1.5c-.6,0-1.3-.1-2.3-.1h-9.1c-.8,1.6-1.8,3.2-2.9,4.5v8c0,.9,0,1.6.1,2.2h-1.6c0-.5.1-1.2.1-2.2v-6.4c-.9,1.1-1.3,1.4-2.4,2.3-.3-.4-.5-.7-1-1.1,1.5-1.1,2.3-1.9,3.4-3.2,0-.7,0-.9-.1-1.3h1.2c.7-1,1.2-1.9,1.7-2.9h-3.3c-1.1,0-1.7,0-2.3.1v-1.5c.5,0,1.2.1,2.3.1h3.9c.6-1.3.9-2.3,1.1-3.2l1.6.3c-.1.2-.2.4-.4.9-.2.5-.7,1.6-.8,1.9h8.5ZM227.6,249c1,0,1.5,0,2-.1v1.4c-.6,0-1.1,0-2,0h-3.3v6h4.2c1,0,1.6,0,2.1-.1v1.5c-.8,0-1.4-.1-2.1-.1h-9.1c-.8,0-1.5,0-2.1.1v-1.5c.6,0,1.3.1,2.1.1h3.6v-6h-2.8c-.9,0-1.5,0-2,0v-1.4c.5,0,1,.1,2,.1h2.8v-1.8c0-1.1,0-1.7-.1-2.2h1.6c0,.5-.1,1.1-.1,2.3v1.8h3.3Z"/>
                <path class="cls-7" d="M242.1,240.6c0-.6,0-1-.1-1.4h1.6c0,.3-.1.7-.1,1.4v.5h6c.9,0,1.6,0,2.2-.1v1.3c-.5,0-1.1-.1-2.1-.1h-13.8c0,6.4-.1,9-.5,11.3-.3,1.8-.8,3.1-1.7,4.6-.4-.5-.6-.7-1.1-1,.9-1.5,1.3-2.7,1.6-4.5.3-1.9.4-5.1.4-9.7s0-.3,0-.3c0-.4,0-1.1,0-1.6.7,0,1.3.1,2.3.1h5.5v-.5ZM238.4,245.1c-.9,0-1.3,0-1.8.1v-1.3c.5,0,1,.1,1.8.1h4.6c0-.5,0-.8-.1-1.2h1.4c0,.4,0,.6,0,1.2h5.2c.8,0,1.2,0,1.8-.1v1.3c-.5,0-1.1-.1-1.8-.1h-5.2v1.6h4c.9,0,1.4,0,2,0,0,.5,0,.8,0,1.7v3.1c0,1,0,1.3,0,1.7-.6,0-1.1,0-2,0h-4v1.7h5.5c1,0,1.6,0,2.1-.1v1.4c-.7,0-1.3-.1-2.2-.1h-5.4v.7c0,1,0,1.6.1,2.1h-1.5c0-.5.1-1.1.1-2.1v-.6h-5.2c-.8,0-1.5,0-2,.1v-1.3c.5,0,1.1.1,1.9.1h5.2v-1.7h-3.7c-.9,0-1.4,0-2,0,0-.5,0-.9,0-1.8v-3.1c0-.9,0-1.2,0-1.7.5,0,1.1,0,2,0h3.7v-1.6h-4.6ZM238.6,247.7v1.6h4.4v-1.6h-4.4ZM238.6,250.3v1.7h4.4v-1.7h-4.4ZM244.2,249.3h4.6v-1.6h-4.6v1.6ZM244.2,252h4.6v-1.7h-4.6v1.7Z"/>
                <path class="cls-7" d="M259.9,248.9c0,.9-.8,1.7-1.7,1.7s-1.7-.8-1.7-1.7.8-1.7,1.7-1.7,1.7.8,1.7,1.7Z"/>
                <path class="cls-7" d="M273.6,252.1c-.6.6-1.5,1.3-2.4,1.7v2.8c2-.4,2.8-.5,4.6-1v1.1c-2.7.7-3.9.9-7.5,1.6-.4,0-.6.1-1.1.2l-.3-1.3c.7,0,1.3,0,3-.3v-2.3c-1.3.7-2.8,1.2-4.9,1.7-.2-.5-.3-.7-.7-1.1,3.2-.6,5.7-1.6,7.7-3.1h-5.2c-1.2,0-1.7,0-2.3.1v-1.3c.7,0,1.3.1,2.3.1h6.7v-.4c0-.3,0-.7,0-1h1.4c0,.3,0,.7,0,1v.4h6.3c1,0,1.7,0,2.3-.1v1.3c-.6,0-1.1-.1-2.3-.1h-6c.5,1,1.1,1.6,2.2,2.4,1.3-.7,2.1-1.3,2.8-2.1l1.1.7c-1.2,1-1.7,1.3-2.9,2,1.6.9,3.2,1.5,5.3,2-.3.4-.5.6-.8,1.2-2.9-.9-4.8-1.9-6.4-3.1-1.3-1-1.9-1.8-2.5-3.1h-.2ZM266.7,242c-.4.5-.5.7-1,1.2-.4-.3-.5-.4-1-.6,1-1,1.5-1.7,1.9-3.1l1.2.4c-.3.6-.3.8-.5,1.1h2.1c0-.8,0-1.1-.1-1.6h1.4c0,.5-.1.8-.1,1.6h2.4c.9,0,1.3,0,1.8-.1v1.2c-.5,0-1,0-1.8,0h-2.4v1.4h2.6c1,0,1.3,0,1.9-.1v1.2c-.5,0-1.1,0-1.8,0h-2.7v1.3h2c1,0,1.4,0,1.8,0,0,.4,0,.6,0,1.1v1.7c0,.9-.4,1.2-1.5,1.2s-.8,0-1.2,0c0-.3,0-.6-.2-1,.5.1,1.1.2,1.4.2s.5-.1.5-.4v-1.6h-2.7v1.9c0,.7,0,1.2,0,1.6h-1.3c0-.5,0-.9,0-1.6v-1.9h-2.5v1.8c0,.7,0,1,0,1.3h-1.3c0-.5,0-.8,0-1.4v-1.5c0-.5,0-.9,0-1.3.4,0,1,0,1.6,0h2.1v-1.3h-2.7c-.7,0-1.2,0-1.7.1v-1.2c.5,0,.9,0,1.6,0h2.9v-1.4h-2.7ZM276.2,247.3c0-.5.1-.9.1-1.5v-3.7c0-.6,0-1-.1-1.5h1.5c0,.4-.1.8-.1,1.5v3.7c0,.6,0,.9.1,1.5h-1.5ZM281.9,248.2c0,1.2-.5,1.6-2,1.6s-1.4,0-2.1-.1c0-.5-.2-.9-.3-1.3.9.2,1.7.3,2.3.3.8,0,.9,0,.9-.6v-6.5c0-.8,0-1.3-.1-1.8h1.5c-.1.6-.1,1-.1,1.9v6.6Z"/>
                <path class="cls-7" d="M286.2,251.3c0-.8,0-1.4,0-2,.6,0,1.1,0,1.9,0h4c.7,0,1.2,0,1.7,0,0,.4,0,.8,0,2v4.9c0,1,0,1.6,0,2.1h-1.4v-.9h-4.9v1.3h-1.4c0-.5.1-1.1.1-2.2v-5.1ZM287.5,256h4.9v-5.6h-4.9v5.6ZM289.2,241.8c0-.7,0-1.2,0-1.8.7,0,1.2.1,2.4.1h6.9c1.2,0,1.8,0,2.4-.1,0,.5,0,1,0,1.7v3.6c0,.8,0,1.3,0,1.9-.6,0-1.2,0-2.2,0h-7.2c-1,0-1.7,0-2.2,0,0-.6,0-1.1,0-1.8v-3.6ZM290.6,245.9h8.8v-4.6h-8.8v4.6ZM295.8,251c0-1,0-1.3,0-1.8.5,0,1,0,1.7,0h4.6c.8,0,1.3,0,1.8,0,0,.5,0,1.2,0,2.1v5.1c0,1.1,0,1.7.1,2.2h-1.4v-1.3h-5.4v1.3h-1.4c0-.5,0-1.1,0-2.1v-5.4ZM297.1,256h5.4v-5.6h-5.4v5.6Z"/>
                <path class="cls-7" d="M309.7,242.1c-.7.8-1.2,1.4-2,2.1-.4-.4-.4-.5-1.1-.8,1.6-1.2,2.7-2.5,3.4-4.2l1.3.4c-.4.7-.5.9-.9,1.5h3.5c.9,0,1.3,0,1.8-.1v1.3c-.6,0-.7,0-1.6,0h-1.6c.4.7.6,1.1.9,1.8l-1.2.5c-.3-.9-.6-1.5-1-2.3h-1.6ZM316.5,243.3c-.4-.3-.5-.4-.8-.5,1.3-1.1,1.8-2,2.3-3.6l1.3.3c-.3.6-.4.9-.7,1.5h5c.9,0,1.3,0,1.8-.1v1.3c-.5,0-1-.1-1.8-.1h-2.8c.4.6.7,1.1,1,1.7l-1.2.5c-.4-1-.6-1.4-1.1-2.3h-1.7c-.3.5-.4.6-1.2,1.4,0,0,0,0-.2-.1,0,.4,0,.5,0,1.1v.4h6.3c1,0,1.5,0,2.1,0,0,.4,0,.7,0,1.3v1.1c0,.6,0,1,0,1.4h-1.3v-2.6h-14.8v2.6h-1.3c0-.4,0-.8,0-1.4v-1.1c0-.6,0-.9,0-1.3.6,0,1.1,0,2.1,0h5.7v-.4c0-.5,0-.7,0-1.2h1.4ZM310.1,258.5c0-.7.1-1.3.1-2.1v-7.6c0-.7,0-1,0-1.5.7,0,1.2.1,2.1.1h7.5c.9,0,1.5,0,2.1-.1,0,.4,0,.8,0,1.5v1.2c0,.7,0,1.2,0,1.6-.6,0-1.2,0-2.1,0h-8.3v1.5h9.2c.9,0,1.4,0,1.9,0,0,.5-.1,1.1-.1,1.9v1.7c0,.8,0,1.3.1,2h-1.4v-1.1h-9.7v1.1h-1.4ZM311.5,250.4h9v-2h-9v2ZM311.5,256.3h9.7v-2.2h-9.7v2.2Z"/>
                <path class="cls-7" d="M329.2,241.8c-.8,0-1.1,0-1.7.1v-1.4c.5.1.9.1,1.8.1h3.2c.8,0,1.2,0,1.7-.1v1.4c-.5,0-.9,0-1.6,0h-1v4.9h.8c.6,0,.9,0,1.4-.1v1.3c-.5,0-.9,0-1.4,0h-.8v5.3c1-.4,1.4-.6,2.5-1.2v1.3c-2,1-2.4,1.2-5.4,2.4-.5.2-.6.2-.8.4l-.4-1.5c.8-.2,1.5-.4,2.9-.9v-5.9h-1.1c-.6,0-.9,0-1.4.1v-1.3c.5,0,.8.1,1.4.1h1.1v-4.9h-1.1ZM337.5,249.8c-1.3,0-2,0-2.6,0,0-.4,0-.6,0-.8q0-.5,0-1.7v-4.5c0-1.3,0-2-.1-2.7.6,0,1.3.1,2.7.1h5.5c1.5,0,2.1,0,2.7-.1,0,.6,0,1.4,0,2.7v4.2c0,1.4,0,2.1,0,2.7-.8,0-1.3,0-2.5,0h-2.4v2.4h3.1c1,0,1.5,0,2.1-.1v1.4c-.6,0-1.1-.1-2.1-.1h-3.1v3.1h3.9c1,0,1.5,0,2.1-.1v1.4c-.6,0-1.1-.1-2.1-.1h-9.4c-1,0-1.5,0-2.1.1v-1.4c.5,0,1,.1,2,.1h4.4v-3.1h-2.8c-1,0-1.5,0-2,.1v-1.4c.5,0,1,.1,2,.1h2.8v-2.4h-2.1ZM336.2,241.6v3h3.4v-3h-3.4ZM336.2,245.7v3h3.4v-3h-3.4ZM340.9,244.6h3.6v-3h-3.6v3ZM340.9,248.6h3.6v-3h-3.6v3Z"/>
              </g>
              <g>
                <rect class="cls-16" x="382.1" y="239" width="91.5" height="20.8" rx="4.1" ry="4.1"/>
                <rect class="cls-46" x="442.2" y="240.7" width="29.5" height="17.3" rx="2.1" ry="2.1"/>
                <rect class="cls-46" x="482.2" y="240.7" width="24.7" height="17.3" rx="8.7" ry="8.7"/>
                <rect class="cls-46" x="392.9" y="247.4" width="38" height="4" rx="2" ry="2"/>
                <rect class="cls-41" x="487.9" y="247.4" width="11.4" height="4" rx="2" ry="2"/>
                <rect class="cls-41" x="445.4" y="247.4" width="23" height="4" rx="2" ry="2"/>
              </g>
            </g>
            <g>
              <g>
                <rect class="cls-19" x="591.5" y="241.6" width="93.1" height="19.7" rx="2.9" ry="2.9"/>
                <g>
                  <path class="cls-26" d="M601.5,248.3h2.5c0,0,.2,0,.2,0l3,3c.1.1.1.3,0,.5l-2.5,2.5c-.1.1-.3.1-.5,0l-3-3c0,0,0-.2,0-.2v-2.5c0-.2.2-.3.3-.3Z"/>
                  <circle class="cls-26" cx="602.7" cy="249.9" r=".3"/>
                </g>
                <rect class="cls-39" x="612.1" y="249.2" width="27" height="4.5" rx="1.7" ry="1.7"/>
                <rect class="cls-39" x="647.6" y="249.2" width="28.8" height="4.5" rx="1.7" ry="1.7"/>
                <circle class="cls-39" cx="643.5" cy="251.6" r="1.1"/>
              </g>
              <g>
                <rect class="cls-19" x="691.1" y="241.6" width="20.4" height="19.7" rx="2.9" ry="2.9"/>
                <path class="cls-26" d="M704.7,252.1v1.7c0,.4-.3.8-.8.8h-4.7c-.4,0-.8-.3-.8-.8v-1.7"/>
                <polyline class="cls-26" points="699.8 250.5 701.6 252.3 703.3 250.5"/>
                <line class="cls-26" x1="701.6" y1="252.2" x2="701.6" y2="248.2"/>
              </g>
              <g>
                <rect class="cls-46" x="717.9" y="241.6" width="59.2" height="19.7" rx="2.9" ry="2.9"/>
                <g>
                  <line class="cls-30" x1="730.3" y1="249" x2="730.3" y2="253.8"/>
                  <line class="cls-30" x1="732.7" y1="251.4" x2="727.9" y2="251.4"/>
                </g>
                <rect class="cls-41" x="739.5" y="249" width="27.8" height="4.8" rx="1.8" ry="1.8"/>
              </g>
              <g>
                <rect class="cls-19" x="701.3" y="269.7" width="75.9" height="19.7" rx="2.9" ry="2.9"/>
                <rect x="711.5" y="277.1" width="19.9" height="5.3" rx="2.1" ry="2.1"/>
                <polyline class="cls-4" points="764.3 278.4 766.4 280.5 768.8 278.2"/>
              </g>
              <g>
                <rect class="cls-19" x="625.5" y="269.7" width="70.5" height="19.7" rx="2.9" ry="2.9"/>
                <rect x="634.7" y="277.1" width="33.5" height="5.3" rx="2.1" ry="2.1"/>
                <polygon class="cls-4" points="689.4 275.9 686 279.2 686 283.3 684.1 282.1 684.1 279.3 680.7 275.9 689.4 275.9"/>
              </g>
              <g>
                <rect class="cls-19" x="548.5" y="269.7" width="70.5" height="19.7" rx="2.9" ry="2.9"/>
                <rect class="cls-39" x="569.5" y="277.1" width="21.7" height="5.3" rx="2.1" ry="2.1"/>
                <circle class="cls-26" cx="558.4" cy="279.2" r="3"/>
                <line class="cls-26" x1="560.5" y1="281.3" x2="562.1" y2="282.9"/>
              </g>
            </g>
          </g>
          <g>
            <path class="cls-25" d="M199.4,426.6v-103.3c0-3.4,2.8-6.1,6.3-6.1h174.2c3.5,0,6.3,2.7,6.3,6.1v103.3c0,3.4-2.8,6.1-6.3,6.1h-174.2c-3.5,0-6.3-2.7-6.3-6.1Z"/>
            <g>
              <g>
                <rect class="cls-44" x="214" y="329.5" width="28.6" height="27.2" rx="3.9" ry="3.9"/>
                <path class="cls-53" d="M242.6,352.7v.7c0,1.8-1.5,3.3-3.3,3.3h-22c-1.8,0-3.3-1.5-3.3-3.3v-7.6l5.2-6.6c.8-1,2.4-1,3.1.1l7.1,10.2,3.2-4c.8-1,2.3-1.1,3.2-.1l6.7,7.3Z"/>
                <path class="cls-53" d="M229.7,341.4c1.4,0,2.5-1.1,2.5-2.5,0-1.4-1.1-2.5-2.6-2.5-1.4,0-2.5,1.1-2.5,2.5,0,1.4,1.1,2.5,2.6,2.5Z"/>
                <rect class="cls-23" x="214" y="329.5" width="28.6" height="27.2" rx="3.9" ry="3.9"/>
              </g>
              <g>
                <text class="cls-13" transform="translate(248.8 337.3)"><tspan x="0" y="0">電動昇降デスク SA-2000</tspan></text>
                <rect class="cls-43" x="248.8" y="343.8" width="52.1" height="4.6" rx="2.3" ry="2.3"/>
                <g>
                  <rect class="cls-24" x="249.7" y="351.7" width="15.3" height="12.8" rx="6.4" ry="6.4"/>
                  <rect class="cls-50" x="252.9" y="356.6" width="8.9" height="2.9" rx="1.4" ry="1.4"/>
                </g>
              </g>
              <g>
                <rect class="cls-48" x="336.2" y="329.2" width="35.4" height="12.8" rx="6.4" ry="6.4"/>
                <rect class="cls-52" x="336.2" y="409.2" width="35.4" height="12.8" rx="6.4" ry="6.4"/>
                <rect class="cls-52" x="214" y="386" width="157.5" height="2.9" rx="1.5" ry="1.5"/>
                <rect class="cls-48" x="214" y="386" width="137.9" height="2.9" rx="1.5" ry="1.5"/>
                <circle class="cls-41" cx="341.4" cy="335.6" r="1.7"/>
                <rect class="cls-41" x="346.9" y="334.1" width="19.7" height="2.9" rx="1.4" ry="1.4"/>
              </g>
              <rect class="cls-39" x="214" y="374.1" width="21.7" height="4" rx="2" ry="2"/>
              <rect class="cls-39" x="214" y="409.2" width="10" height="4" rx="2" ry="2"/>
              <rect class="cls-39" x="214" y="394.4" width="33.3" height="4" rx="2" ry="2"/>
              <rect class="cls-39" x="356.9" y="394.4" width="14.7" height="4" rx="2" ry="2"/>
              <text class="cls-2" transform="translate(356.8 379.9)"><tspan x="0" y="0">5 台</tspan></text>
              <text class="cls-31" transform="translate(215.6 422) scale(1.1 1)"><tspan x="0" y="0">¥0</tspan></text>
              <rect class="cls-39" x="274.9" y="409.2" width="17.8" height="4" rx="2" ry="2"/>
              <text class="cls-32" transform="translate(275.6 422) scale(1.1 1)"><tspan x="0" y="0">¥25,000</tspan></text>
              <text class="cls-33" transform="translate(346.9 417.8) scale(1.1 1)"><tspan x="0" y="0">100%</tspan></text>
            </g>
          </g>
          <g>
            <path class="cls-19" d="M199.4,543v-103.3c0-3.4,2.8-6.1,6.3-6.1h174.2c3.5,0,6.3,2.7,6.3,6.1v103.3c0,3.4-2.8,6.1-6.3,6.1h-174.2c-3.5,0-6.3-2.7-6.3-6.1Z"/>
            <g>
              <g>
                <rect class="cls-44" x="214" y="445.9" width="28.6" height="27.2" rx="3.9" ry="3.9"/>
                <path class="cls-53" d="M242.6,469.2v.7c0,1.8-1.5,3.3-3.3,3.3h-22c-1.8,0-3.3-1.5-3.3-3.3v-7.6l5.2-6.6c.8-1,2.4-1,3.1.1l7.1,10.2,3.2-4c.8-1,2.3-1.1,3.2-.1l6.7,7.3Z"/>
                <path class="cls-53" d="M229.7,457.9c1.4,0,2.5-1.1,2.5-2.5,0-1.4-1.1-2.5-2.6-2.5-1.4,0-2.5,1.1-2.5,2.5,0,1.4,1.1,2.5,2.6,2.5Z"/>
                <rect class="cls-23" x="214" y="445.9" width="28.6" height="27.2" rx="3.9" ry="3.9"/>
              </g>
              <g>
                <text class="cls-13" transform="translate(248.8 453.8)"><tspan x="0" y="0">電動昇降デスク SA-3000</tspan></text>
                <rect class="cls-43" x="248.8" y="460.2" width="52.1" height="4.6" rx="2.3" ry="2.3"/>
                <g>
                  <rect class="cls-24" x="249.7" y="468.2" width="15.3" height="12.8" rx="6.4" ry="6.4"/>
                  <rect class="cls-50" x="252.9" y="473.1" width="8.9" height="2.9" rx="1.4" ry="1.4"/>
                </g>
              </g>
              <g>
                <rect class="cls-48" x="336.2" y="445.6" width="35.4" height="12.8" rx="6.4" ry="6.4"/>
                <rect class="cls-52" x="336.2" y="525.7" width="35.4" height="12.8" rx="6.4" ry="6.4"/>
                <rect class="cls-48" x="214" y="502.5" width="157.5" height="2.9" rx="1.5" ry="1.5"/>
                <circle class="cls-41" cx="341.4" cy="452" r="1.7"/>
                <rect class="cls-41" x="346.9" y="450.6" width="19.7" height="2.9" rx="1.4" ry="1.4"/>
              </g>
              <rect class="cls-39" x="214" y="490.6" width="21.7" height="4" rx="2" ry="2"/>
              <rect class="cls-39" x="214" y="525.7" width="10" height="4" rx="2" ry="2"/>
              <rect class="cls-39" x="214" y="510.9" width="33.3" height="4" rx="2" ry="2"/>
              <rect class="cls-39" x="356.9" y="510.9" width="14.7" height="4" rx="2" ry="2"/>
              <text class="cls-2" transform="translate(356.8 496.4)"><tspan x="0" y="0">8 台</tspan></text>
              <text class="cls-31" transform="translate(215.6 538.5) scale(1.1 1)"><tspan x="0" y="0">¥0</tspan></text>
              <rect class="cls-39" x="274.9" y="525.7" width="17.8" height="4" rx="2" ry="2"/>
              <text class="cls-32" transform="translate(275.6 538.5) scale(1.1 1)"><tspan x="0" y="0">¥32,000</tspan></text>
              <text class="cls-33" transform="translate(346.9 534.3) scale(1.1 1)"><tspan x="0" y="0">100%</tspan></text>
            </g>
          </g>
        </g>
        <g>
          <g>
            <rect class="cls-38" x="413.2" y="331.9" width="544.1" height="372.4" rx="22.8" ry="22.8"/>
            <rect class="cls-20" x="393.8" y="317.2" width="547.8" height="372.4" rx="12.6" ry="12.6"/>
          </g>
          <g>
            <g>
              <rect class="cls-21" x="749.7" y="600.7" width="161.6" height="40.6" rx="5.2" ry="5.2"/>
              <rect class="cls-20" x="582.1" y="600.7" width="161.6" height="40.6" rx="5.2" ry="5.2"/>
              <rect class="cls-20" x="413.7" y="600.7" width="161.6" height="40.6" rx="5.2" ry="5.2"/>
              <g>
                <rect class="cls-44" x="408" y="338.4" width="50.2" height="47.9" rx="5.8" ry="5.8"/>
                <path class="cls-54" d="M458.3,379.3v1.2c0,3.2-2.6,5.8-5.8,5.8h-38.6c-3.2,0-5.8-2.6-5.8-5.8v-13.3s9.2-11.6,9.2-11.6c1.4-1.8,4.1-1.7,5.4.2l12.5,18,5.7-7.1c1.4-1.8,4.1-1.9,5.6-.2l11.8,12.8Z"/>
                <path class="cls-54" d="M435.7,359.4c2.5,0,4.5-2,4.5-4.5,0-2.5-2-4.4-4.5-4.4-2.5,0-4.5,2-4.5,4.5,0,2.5,2,4.4,4.5,4.4Z"/>
                <rect class="cls-5" x="408" y="338.4" width="50.2" height="47.9" rx="5.8" ry="5.8"/>
              </g>
              <text class="cls-29" transform="translate(460.8 360.9)"><tspan x="0" y="0">電動昇降デスク SA-2000</tspan></text>
              <text class="cls-11" transform="translate(633.6 462.8)"><tspan x="0" y="0">在庫閾値設定</tspan></text>
              <g>
                <g>
                  <rect class="cls-52" x="574" y="366.4" width="44.1" height="15.8" rx="7.9" ry="7.9"/>
                  <rect class="cls-48" x="589.1" y="372.5" width="22.5" height="3.6" rx="1.7" ry="1.7"/>
                </g>
                <g>
                  <path class="cls-28" d="M585.2,374.2c0,1.6-1.3,2.9-2.9,2.9s-2.9-1.3-2.9-2.9,1.3-2.9,2.9-2.9"/>
                  <polyline class="cls-28" points="581.3 373.6 582.3 374.6 584.9 371.9"/>
                </g>
              </g>
              <g>
                <g>
                  <rect class="cls-22" x="536.4" y="366.4" width="32.2" height="15.8" rx="7.9" ry="7.9"/>
                  <rect class="cls-50" x="550.3" y="372.5" width="12.2" height="3.6" rx="1.8" ry="1.8"/>
                </g>
                <g>
                  <path class="cls-27" d="M542.7,371.5h2c0,0,.1,0,.2,0l2.4,2.4c.1.1.1.3,0,.4l-2,2c-.1.1-.3.1-.4,0l-2.4-2.4c0,0,0-.1,0-.2v-2c0-.1.1-.3.3-.3Z"/>
                  <circle class="cls-27" cx="543.7" cy="372.7" r=".2"/>
                </g>
              </g>
              <rect class="cls-43" x="467.1" y="371.4" width="63" height="5.7" rx="2.9" ry="2.9"/>
              <rect class="cls-43" x="518.9" y="476.1" width="31.5" height="5.7" rx="2.9" ry="2.9"/>
              <rect class="cls-49" x="412.7" y="540.6" width="45.5" height="5.7" rx="2.9" ry="2.9"/>
              <rect class="cls-45" x="433.3" y="611.1" width="45.5" height="5.7" rx="2.9" ry="2.9"/>
              <path class="cls-47" d="M418,553.3h120.7v20.6h-120.7c-2.5,0-4.6-2.1-4.6-4.6v-11.4c0-2.5,2.1-4.6,4.6-4.6Z"/>
              <rect class="cls-35" x="537.5" y="553.3" width="125.3" height="20.6"/>
              <path class="cls-52" d="M662.7,553.3h245.2c2.3,0,4.1,1.8,4.1,4.1v12.4c0,2.3-1.8,4.1-4.1,4.1h-245.2v-20.6h0Z"/>
              <rect class="cls-43" x="530" y="514.7" width="9.2" height="5.7" rx="2.9" ry="2.9"/>
              <rect class="cls-43" x="485.1" y="625.8" width="17.9" height="5.7" rx="2.9" ry="2.9"/>
              <rect class="cls-43" x="653.5" y="625.8" width="17.9" height="5.7" rx="2.9" ry="2.9"/>
              <rect class="cls-43" x="825.2" y="625.8" width="12.6" height="5.7" rx="2.9" ry="2.9"/>
              <text class="cls-18" transform="translate(532.2 506.7)"><tspan x="0" y="0">5</tspan></text>
              <text class="cls-10" transform="translate(413.6 584.4)"><tspan x="0" y="0">0</tspan></text>
              <text class="cls-10" transform="translate(577.5 584.4)"><tspan x="0" y="0">1</tspan></text>
              <rect class="cls-43" x="759.2" y="476.1" width="31.5" height="5.7" rx="2.9" ry="2.9"/>
              <rect class="cls-43" x="792.9" y="476.1" width="21.4" height="5.7" rx="2.9" ry="2.9"/>
              <rect class="cls-43" x="782.5" y="514.7" width="9.2" height="5.7" rx="2.9" ry="2.9"/>
              <text class="cls-17" transform="translate(784.7 506.7)"><tspan x="0" y="0">3</tspan></text>
              <text class="cls-10" transform="translate(741.2 584.4)"><tspan x="0" y="0">3</tspan></text>
              <text class="cls-10" transform="translate(904.7 584.4)"><tspan x="0" y="0">6+</tspan></text>
              <g>
                <rect class="cls-52" x="874.9" y="535.2" width="36.2" height="12.9" rx="6.5" ry="6.5"/>
                <rect class="cls-48" x="884.4" y="540.2" width="18.5" height="2.9" rx="1.4" ry="1.4"/>
              </g>
              <circle class="cls-45" cx="425.9" cy="613.9" r="3"/>
              <rect class="cls-37" x="603.1" y="611.1" width="35.9" height="5.7" rx="2.5" ry="2.5"/>
              <circle class="cls-37" cx="595.7" cy="613.9" r="3"/>
              <rect class="cls-51" x="770.9" y="611.1" width="43.4" height="5.7" rx="2.8" ry="2.8"/>
              <circle class="cls-51" cx="763.6" cy="613.9" r="3"/>
              <rect class="cls-38" x="791.4" y="552.1" width="3.4" height="24.5" rx="1.7" ry="1.7"/>
              <rect class="cls-41" x="790.4" y="551.2" width="3.4" height="24.5" rx="1.7" ry="1.7"/>
            </g>
            <rect class="cls-9" x="393.8" y="394" width="548" height="33.7"/>
            <rect class="cls-19" x="401" y="439.4" width="523" height="217.4" rx="7" ry="7"/>
            <g>
              <g>
                <rect class="cls-46" x="858.4" y="338.4" width="42.6" height="20.4" rx="2.7" ry="2.7"/>
                <rect class="cls-41" x="877.2" y="346.3" width="16" height="4.7" rx="2.3" ry="2.3"/>
                <g>
                  <path class="cls-15" d="M871.5,345.1l-3.1,3.1v1.2s1.1,0,1.1,0l3.1-3.1c.3-.3.3-.9,0-1.2h0c-.3-.3-.9-.3-1.2,0Z"/>
                  <path class="cls-15" d="M872,348.3v2.6c0,.3-.3.6-.6.6h-4.6c-.3,0-.6-.3-.6-.6v-4.6c0-.3.3-.6.6-.6h2.6"/>
                </g>
              </g>
              <g>
                <line class="cls-1" x1="911.4" y1="345.9" x2="917.7" y2="345.9"/>
                <path class="cls-1" d="M915.3,344.7h-1.3c-.4,0-.7.2-.7.3v.9h2.7s0-.9,0-.9c0-.2-.3-.3-.7-.3Z"/>
                <path class="cls-1" d="M912.3,345.9h4.6v4.7c0,.4-.3.7-.7.7h-3.1c-.4,0-.7-.3-.7-.7v-4.7h0Z"/>
                <line class="cls-1" x1="914" y1="347.4" x2="914" y2="349.6"/>
                <line class="cls-1" x1="915.2" y1="347.4" x2="915.2" y2="349.6"/>
              </g>
            </g>
            <g>
              <rect class="cls-49" x="417.8" y="406.4" width="21.4" height="9.9" rx="2.6" ry="2.6"/>
              <rect class="cls-46" x="467.1" y="406.4" width="42.4" height="9.9" rx="2.6" ry="2.6"/>
              <rect class="cls-49" x="537.5" y="406.4" width="21.2" height="9.9" rx="2.6" ry="2.6"/>
              <rect class="cls-49" x="585.3" y="406.4" width="21.2" height="9.9" rx="2.6" ry="2.6"/>
              <path class="cls-3" d="M462.8,423.9c0,1.9,1.8,3.5,4.1,3.5h44.2c2.2,0,4.1-1.6,4.1-3.5"/>
            </g>
          </g>
          <g>
            <circle class="cls-38" cx="932.5" cy="664.1" r="17.5"/>
            <circle class="cls-42" cx="930.8" cy="661.3" r="15.9"/>
            <circle class="cls-42" cx="930.8" cy="661.3" r="9.5" transform="translate(-126.1 1093.6) rotate(-57.6)"/>
            <path class="cls-46" d="M930,663.7v-2.7s.4,0,.4,0c.3,0,.6,0,.9-.2.2-.1.4-.3.6-.6.1-.2.2-.5.2-.8s0-.6-.2-.8c-.1-.2-.3-.4-.6-.5-.2-.1-.5-.2-.9-.2s-.8.1-1.2.3-.6.5-.8.9l-.9-.8c.3-.6.7-1,1.2-1.3.5-.3,1.1-.5,1.8-.5s1.1.1,1.5.3c.4.2.8.5,1,1s.4.9.4,1.4-.1.9-.3,1.3c-.2.4-.5.7-.9,1-.4.3-.9.4-1.4.5l.5-.6v2.1h-1.2ZM930.5,666.9c-.3,0-.5,0-.7-.3-.2-.2-.3-.4-.3-.7s0-.5.3-.7.4-.3.7-.3.5,0,.7.3c.2.2.3.4.3.7s0,.5-.3.7c-.2.2-.4.3-.7.3Z"/>
          </g>
        </g>
      </g>
    </g>
  </g>
</svg>